<mxfile host="app.diagrams.net" modified="2020-09-09T21:36:56.563Z" agent="5.0 (Windows)" etag="R_BKmfWHhwgRr5WSB3MZ" version="13.6.9" type="gitlab">
  <diagram id="0-AfTno0kVMA7Fzk6J9f" name="Page-1">
    <mxGraphModel dx="1700" dy="1159" grid="1" gridSize="10" guides="1" tooltips="1" connect="1" arrows="1" fold="1" page="1" pageScale="1" pageWidth="850" pageHeight="1100" math="0" shadow="0">
      <root>
        <mxCell id="0" />
        <mxCell id="1" parent="0" />
        <mxCell id="mzBB7SvwG0IbSalPoIVl-3" value="" style="shape=cube;whiteSpace=wrap;html=1;boundedLbl=1;backgroundOutline=1;darkOpacity=0.05;darkOpacity2=0.1;direction=east;" parent="1" vertex="1">
          <mxGeometry x="330" y="110" width="170" height="20" as="geometry" />
        </mxCell>
        <mxCell id="mzBB7SvwG0IbSalPoIVl-33" value="" style="edgeStyle=orthogonalEdgeStyle;rounded=0;orthogonalLoop=1;jettySize=auto;html=1;" parent="1" source="mzBB7SvwG0IbSalPoIVl-1" target="mzBB7SvwG0IbSalPoIVl-32" edge="1">
          <mxGeometry relative="1" as="geometry">
            <Array as="points">
              <mxPoint x="425" y="150" />
              <mxPoint x="425" y="150" />
            </Array>
          </mxGeometry>
        </mxCell>
        <mxCell id="mzBB7SvwG0IbSalPoIVl-1" value="" style="shape=cube;whiteSpace=wrap;html=1;boundedLbl=1;backgroundOutline=1;darkOpacity=0.05;darkOpacity2=0.1;direction=east;fillColor=#f5f5f5;strokeColor=#666666;fontColor=#333333;" parent="1" vertex="1">
          <mxGeometry x="370" y="100" width="90" height="30" as="geometry" />
        </mxCell>
        <mxCell id="mzBB7SvwG0IbSalPoIVl-74" value="" style="edgeStyle=orthogonalEdgeStyle;rounded=0;orthogonalLoop=1;jettySize=auto;html=1;" parent="1" source="mzBB7SvwG0IbSalPoIVl-14" edge="1">
          <mxGeometry relative="1" as="geometry">
            <mxPoint x="660" y="807" as="targetPoint" />
            <Array as="points">
              <mxPoint x="435" y="710" />
              <mxPoint x="660" y="710" />
              <mxPoint x="660" y="807" />
            </Array>
          </mxGeometry>
        </mxCell>
        <mxCell id="mzBB7SvwG0IbSalPoIVl-14" value="&lt;div&gt;&lt;font face=&quot;Georgia&quot;&gt;&lt;b&gt;30 &lt;span class=&quot;st&quot;&gt;°C&lt;/span&gt;&lt;/b&gt;&lt;/font&gt;&lt;/div&gt;&lt;div&gt;&lt;b&gt;&lt;span class=&quot;st&quot;&gt;&lt;font face=&quot;Georgia&quot;&gt;RH ~ 50-60%&lt;/font&gt;&lt;br&gt;&lt;/span&gt;&lt;/b&gt;&lt;/div&gt;" style="shape=cube;whiteSpace=wrap;html=1;boundedLbl=1;backgroundOutline=1;darkOpacity=0.05;darkOpacity2=0.1;" parent="1" vertex="1">
          <mxGeometry x="330" y="490" width="210" height="190" as="geometry" />
        </mxCell>
        <mxCell id="mzBB7SvwG0IbSalPoIVl-17" value="" style="rounded=1;whiteSpace=wrap;html=1;fillColor=#A1A1A1;" parent="1" vertex="1">
          <mxGeometry x="490" y="570" width="40" height="10" as="geometry" />
        </mxCell>
        <mxCell id="mzBB7SvwG0IbSalPoIVl-97" value="" style="edgeStyle=orthogonalEdgeStyle;rounded=0;orthogonalLoop=1;jettySize=auto;html=1;" parent="1" source="mzBB7SvwG0IbSalPoIVl-19" target="mzBB7SvwG0IbSalPoIVl-75" edge="1">
          <mxGeometry relative="1" as="geometry">
            <mxPoint x="955" y="825" as="targetPoint" />
            <Array as="points">
              <mxPoint x="955" y="710" />
              <mxPoint x="770" y="710" />
            </Array>
          </mxGeometry>
        </mxCell>
        <mxCell id="mzBB7SvwG0IbSalPoIVl-19" value="&lt;div&gt;&lt;font face=&quot;Georgia&quot;&gt;&lt;b&gt;30 &lt;span class=&quot;st&quot;&gt;°C&lt;/span&gt;&lt;/b&gt;&lt;/font&gt;&lt;/div&gt;&lt;div&gt;&lt;b&gt;&lt;span class=&quot;st&quot;&gt;&lt;font face=&quot;Georgia&quot;&gt;RH ~ 85-95%&lt;/font&gt;&lt;br&gt;&lt;/span&gt;&lt;/b&gt;&lt;/div&gt;" style="shape=cube;whiteSpace=wrap;html=1;boundedLbl=1;backgroundOutline=1;darkOpacity=0.05;darkOpacity2=0.1;" parent="1" vertex="1">
          <mxGeometry x="850" y="490" width="210" height="190" as="geometry" />
        </mxCell>
        <mxCell id="mzBB7SvwG0IbSalPoIVl-20" value="" style="rounded=1;whiteSpace=wrap;html=1;fillColor=#A1A1A1;" parent="1" vertex="1">
          <mxGeometry x="1010" y="570" width="40" height="10" as="geometry" />
        </mxCell>
        <mxCell id="mzBB7SvwG0IbSalPoIVl-21" value="&amp;nbsp;&amp;nbsp;&amp;nbsp;&amp;nbsp;&amp;nbsp;&amp;nbsp;&amp;nbsp;&amp;nbsp;&amp;nbsp; &lt;b&gt;&lt;font face=&quot;Georgia&quot;&gt;H&lt;sub&gt;2&lt;/sub&gt;0&lt;/font&gt;&lt;/b&gt;" style="ellipse;whiteSpace=wrap;html=1;" parent="1" vertex="1">
          <mxGeometry x="920" y="640" width="100" height="30" as="geometry" />
        </mxCell>
        <mxCell id="mzBB7SvwG0IbSalPoIVl-27" value="" style="endArrow=none;html=1;" parent="1" edge="1">
          <mxGeometry width="50" height="50" relative="1" as="geometry">
            <mxPoint x="940" y="650" as="sourcePoint" />
            <mxPoint x="950" y="630" as="targetPoint" />
            <Array as="points">
              <mxPoint x="940" y="640" />
              <mxPoint x="950" y="640" />
            </Array>
          </mxGeometry>
        </mxCell>
        <mxCell id="mzBB7SvwG0IbSalPoIVl-29" value="" style="endArrow=none;html=1;" parent="1" edge="1">
          <mxGeometry width="50" height="50" relative="1" as="geometry">
            <mxPoint x="960" y="665" as="sourcePoint" />
            <mxPoint x="970" y="645" as="targetPoint" />
            <Array as="points">
              <mxPoint x="960" y="655" />
              <mxPoint x="970" y="655" />
            </Array>
          </mxGeometry>
        </mxCell>
        <mxCell id="mzBB7SvwG0IbSalPoIVl-30" value="" style="endArrow=none;html=1;" parent="1" edge="1">
          <mxGeometry width="50" height="50" relative="1" as="geometry">
            <mxPoint x="990" y="650" as="sourcePoint" />
            <mxPoint x="1000" y="630" as="targetPoint" />
            <Array as="points">
              <mxPoint x="990" y="640" />
              <mxPoint x="1000" y="640" />
            </Array>
          </mxGeometry>
        </mxCell>
        <mxCell id="mzBB7SvwG0IbSalPoIVl-31" value="" style="shape=cube;whiteSpace=wrap;html=1;boundedLbl=1;backgroundOutline=1;darkOpacity=0.05;darkOpacity2=0.1;direction=east;" parent="1" vertex="1">
          <mxGeometry x="340" y="230" width="170" height="20" as="geometry" />
        </mxCell>
        <mxCell id="mzBB7SvwG0IbSalPoIVl-56" value="" style="edgeStyle=orthogonalEdgeStyle;rounded=0;orthogonalLoop=1;jettySize=auto;html=1;" parent="1" source="mzBB7SvwG0IbSalPoIVl-32" target="mzBB7SvwG0IbSalPoIVl-58" edge="1">
          <mxGeometry relative="1" as="geometry">
            <mxPoint x="425" y="350" as="targetPoint" />
          </mxGeometry>
        </mxCell>
        <mxCell id="mzBB7SvwG0IbSalPoIVl-32" value="" style="shape=cube;whiteSpace=wrap;html=1;boundedLbl=1;backgroundOutline=1;darkOpacity=0.05;darkOpacity2=0.1;direction=east;fillColor=#f5f5f5;strokeColor=#666666;fontColor=#333333;" parent="1" vertex="1">
          <mxGeometry x="380" y="220" width="90" height="30" as="geometry" />
        </mxCell>
        <mxCell id="mzBB7SvwG0IbSalPoIVl-35" value="" style="endArrow=none;html=1;fillColor=#76608a;strokeColor=#432D57;" parent="1" edge="1">
          <mxGeometry width="50" height="50" relative="1" as="geometry">
            <mxPoint x="410" y="225" as="sourcePoint" />
            <mxPoint x="450" y="225" as="targetPoint" />
          </mxGeometry>
        </mxCell>
        <mxCell id="mzBB7SvwG0IbSalPoIVl-36" value="" style="endArrow=none;html=1;fillColor=#76608a;strokeColor=#432D57;" parent="1" edge="1">
          <mxGeometry width="50" height="50" relative="1" as="geometry">
            <mxPoint x="410" y="235" as="sourcePoint" />
            <mxPoint x="450" y="235" as="targetPoint" />
          </mxGeometry>
        </mxCell>
        <mxCell id="mzBB7SvwG0IbSalPoIVl-37" value="" style="endArrow=none;html=1;fillColor=#76608a;strokeColor=#432D57;" parent="1" edge="1">
          <mxGeometry width="50" height="50" relative="1" as="geometry">
            <mxPoint x="410" y="235" as="sourcePoint" />
            <mxPoint x="410" y="225" as="targetPoint" />
          </mxGeometry>
        </mxCell>
        <mxCell id="mzBB7SvwG0IbSalPoIVl-38" value="" style="endArrow=none;html=1;fillColor=#76608a;strokeColor=#432D57;" parent="1" edge="1">
          <mxGeometry width="50" height="50" relative="1" as="geometry">
            <mxPoint x="400" y="235" as="sourcePoint" />
            <mxPoint x="410" y="235" as="targetPoint" />
            <Array as="points">
              <mxPoint x="400" y="235" />
            </Array>
          </mxGeometry>
        </mxCell>
        <mxCell id="mzBB7SvwG0IbSalPoIVl-53" value="" style="shape=image;verticalLabelPosition=bottom;labelBackgroundColor=#ffffff;verticalAlign=top;aspect=fixed;imageAspect=0;image=data:image/jpeg,/9j/4AAQSkZJRgABAQEBLAEsAAD/4QC7RXhpZgAASUkqAAgAAAABAA4BAgCZAAAAGgAAAAAAAABNaWNyb3Njb3BlIGljb24uIE1lZGljYWwgZGlhZ25vc3RpY3MsIGxhYm9yYXRvcnksIHJlc2VhcmNoLCBlZHVjYXRpb24sIHN0dWR5LiBWZWN0b3IgaWxsdXN0cmF0aW9uLiBFcXVpcG1lbnQgZm9yIG1lZGljYWwgcmVzZWFyY2gsIGxhYm9yYXRvcmllcy4gSXNvbGF0ZWT/4QVEaHR0cDovL25zLmFkb2JlLmNvbS94YXAvMS4wLwAJPHJkZjpSREYgeG1sbnM6cmRmPSJodHRwOi8vd3d3LnczLm9yZy8xOTk5LzAyLzIyLXJkZi1zeW50YXgtbnMjIj4KCQk8cmRmOkRlc2NyaXB0aW9uIHJkZjphYm91dD0iIiB4bWxuczpwaG90b3Nob3A9Imh0dHA6Ly9ucy5hZG9iZS5jb20vcGhvdG9zaG9wLzEuMC8iIHhtbG5zOklwdGM0eG1wQ29yZT0iaHR0cDovL2lwdGMub3JnL3N0ZC9JcHRjNHhtcENvcmUvMS4wL3htbG5zLyIgICB4bWxuczpHZXR0eUltYWdlc0dJRlQ9Imh0dHA6Ly94bXAuZ2V0dHlpbWFnZXMuY29tL2dpZnQvMS4wLyIgeG1sbnM6ZGM9Imh0dHA6Ly9wdXJsLm9yZy9kYy9lbGVtZW50cy8xLjEvIiB4bWxuczpwbHVzPSJodHRwOi8vbnMudXNlcGx1cy5vcmcvbGRmL3htcC8xLjAvIiAgeG1sbnM6aXB0Y0V4dD0iaHR0cDovL2lwdGMub3JnL3N0ZC9JcHRjNHhtcEV4dC8yMDA4LTAyLTI5LyIgeG1sbnM6eG1wUmlnaHRzPSJodHRwOi8vbnMuYWRvYmUuY29tL3hhcC8xLjAvcmlnaHRzLyIgcGhvdG9zaG9wOkNyZWRpdD0iR2V0dHkgSW1hZ2VzL2lTdG9ja3Bob3RvIiBHZXR0eUltYWdlc0dJRlQ6QXNzZXRJRD0iOTAzNTA5NDk4IiB4bXBSaWdodHM6V2ViU3RhdGVtZW50PSJodHRwczovL3d3dy5pc3RvY2twaG90by5jb20vbGVnYWwvbGljZW5zZS1hZ3JlZW1lbnQ/dXRtX21lZGl1bT1vcmdhbmljJmFtcDt1dG1fc291cmNlPWdvb2dsZSZhbXA7dXRtX2NhbXBhaWduPWlwdGN1cmwiID4KPGRjOmNyZWF0b3I+PHJkZjpTZXE+PHJkZjpsaT5TaGFtcyBTdWxleW1hbm92YTwvcmRmOmxpPjwvcmRmOlNlcT48L2RjOmNyZWF0b3I+PGRjOmRlc2NyaXB0aW9uPjxyZGY6QWx0PjxyZGY6bGkgeG1sOmxhbmc9IngtZGVmYXVsdCI+TWljcm9zY29wZSBpY29uLiBNZWRpY2FsIGRpYWdub3N0aWNzLCBsYWJvcmF0b3J5LCByZXNlYXJjaCwgZWR1Y2F0aW9uLCBzdHVkeS4gVmVjdG9yIGlsbHVzdHJhdGlvbi4gRXF1aXBtZW50IGZvciBtZWRpY2FsIHJlc2VhcmNoLCBsYWJvcmF0b3JpZXMuIElzb2xhdGVkPC9yZGY6bGk+PC9yZGY6QWx0PjwvZGM6ZGVzY3JpcHRpb24+CjxwbHVzOkxpY2Vuc29yPjxyZGY6U2VxPjxyZGY6bGkgcmRmOnBhcnNlVHlwZT0nUmVzb3VyY2UnPjxwbHVzOkxpY2Vuc29yVVJMPmh0dHBzOi8vd3d3LmlzdG9ja3Bob3RvLmNvbS9waG90by9saWNlbnNlLWdtOTAzNTA5NDk4LT91dG1fbWVkaXVtPW9yZ2FuaWMmYW1wO3V0bV9zb3VyY2U9Z29vZ2xlJmFtcDt1dG1fY2FtcGFpZ249aXB0Y3VybDwvcGx1czpMaWNlbnNvclVSTD48L3JkZjpsaT48L3JkZjpTZXE+PC9wbHVzOkxpY2Vuc29yPgoJCTwvcmRmOkRlc2NyaXB0aW9uPgoJPC9yZGY6UkRGPgr/7QDuUGhvdG9zaG9wIDMuMAA4QklNBAQAAAAAANEcAlAAEVNoYW1zIFN1bGV5bWFub3ZhHAJ4AJlNaWNyb3Njb3BlIGljb24uIE1lZGljYWwgZGlhZ25vc3RpY3MsIGxhYm9yYXRvcnksIHJlc2VhcmNoLCBlZHVjYXRpb24sIHN0dWR5LiBWZWN0b3IgaWxsdXN0cmF0aW9uLiBFcXVpcG1lbnQgZm9yIG1lZGljYWwgcmVzZWFyY2gsIGxhYm9yYXRvcmllcy4gSXNvbGF0ZWQcAm4AGEdldHR5IEltYWdlcy9pU3RvY2twaG90bwD/2wBDAAoHBwgHBgoICAgLCgoLDhgQDg0NDh0VFhEYIx8lJCIfIiEmKzcvJik0KSEiMEExNDk7Pj4+JS5ESUM8SDc9Pjv/2wBDAQoLCw4NDhwQEBw7KCIoOzs7Ozs7Ozs7Ozs7Ozs7Ozs7Ozs7Ozs7Ozs7Ozs7Ozs7Ozs7Ozs7Ozs7Ozs7Ozs7Ozv/wgARCAJkAmQDAREAAhEBAxEB/8QAGwABAAIDAQEAAAAAAAAAAAAAAAUGAQMEAgf/xAAUAQEAAAAAAAAAAAAAAAAAAAAA/9oADAMBAAIQAxAAAAG5gAAAAAAAAAAAAAAAAAAAAAAAAAAAAAAAAAAAAAAAAAAAAAAAAAAAAAAAAAAAAAAAAAAAAAAAAAAAAAAAAAAAAAAAAAAAAAAAAAAAAAAAAAAAAAAAAAAAAAAAAAAAAAAAAAAAAAAAAAAAAAAAAAAAAAAAAAAAAAAAAAAAAAAAAAAAAAAAAAAAAAAAAAAAAAAAAAAAAAAAAAAAAAAAAAAAAAAAAAAAAAAAAAAAAAAAAAAAAAAAAAAAAAAAAAAAAAAAAAAAAAAAAAAAAAAAAAAAAAAAAAAAAAAAAAAAAAAAAAAAAAAAAAAAAAAAAAAAAAAAAAAAAAAAAAAAAAAAAAAAAAAAAAAAAAAAAAAAAAAAAAAAAAAAAAAAAAAAAAAAAAAAAAAAAAAAAAAAAAAAAAAAAAAAAAAAAAAAAAAAAAAAAAAAAAAAAAAAAAAAAAAAAAAAAAAAAAAAAAAAAAAAAAAAAAAAAAAAAAAAAAAAAAAAAAAAAAAAAAAAAAAAAAAAAAAAAAAAAAAAAAAAAAAAAAAAAAAAAAAAAAAAAAAAAAAAAAAAAAAAAAAAAAAAAAAAAAAAAAAAAAAAAAAAAAAAAAAAAAAAAAAAAAAAAAAAAAAAAAAAAAAAAAAAAAAAAAAAAAAAAAAAAAAAAAAAAAAAAAAAAAAAAAAAAAAAAAAAAAAAAAAAAAAAAAAAAAAAAAAAAAAAAAAAAAAAAAAAAAAAAAAAAAAAAAAAAAAAAAAAAAAAAAAAAAAAAAGopRYSZAAAAAAAAAAAAAAAAAAAAAAAAAAAAAAAAAAAAMFLIcFjLSZAAAAAAAAAAAAAAAAAAAAAAAAAAAAAAAAAAAK2VYA3H0I2gAAAAAAAAAAAAAAAAAAAAAAAAAAAAAAAAHGVsnzwUcwDJdyVAAAAAAAAAAAAAAAAAAAAAAAAAAAAAAAAANZQziPR7NQBZyzAAAAAAAAAAAAAAAAAAAAAAAAAAAAAAAAAGCmkKAACXLqZAAAAAAAAAAAAAAAAAAAAAAAAAAAAAAAAAK6VQAAAvpIAAAAAAAAAAAAAAAAAAAAAAAAAAAAAAAAAEaUY8gAAG0vp1gAAAAAAAAAAAAAAAAAAAAAAAAAAAAAAAHOUI5wAAAZL8dwAAAAAAAAAAAAAAAAAAAAAAAAAAAAAAAPJRyMAAAALSWQAAAAAAAAAAAAAAAAAAAAAAAAAAAAAAAAqpXAAAACZLmZAAAAAAAAAAAAAAAAAAAAAAAAAAAAAAABDFLAAAAOg+gG0AAAAAAAAAAAAAAAAAAAAAAAAAAAAAAAHGUI1gAAAAuxLgAAAAAAAAAAAAAAAAAAAAAAAAAAAAAAGsoZxAAAAAEwXUAAAAAAAAAAAAAAAAAAAAAAAAAAAAAAGCnEIAAAAADeXk7QAAAAAAAAAAAAAAAAAAAAAAAAAAAAACLKMAAAAAADcXk7gAAAAAAAAAAAAAAAAAAAAAAAAAAAAAcZGFUPAAANwNJk2mkHSX43AAAAAAAAAAAAAAAAAAAAAAAAAAAAA4ShncWQqhygAyXgkTkN5gopyAny3AAAAAAAAAAAAAAAAAAAAAAAAAAAAA4ijnOby2EGRABaSyAAHAUM8mT6EdQAAAAAAAAAAAAAAAAAAAAAAAAAAAANBTCMMlnMFZJcuhkAAFRIAFmLOAAAAAAAAAAAAAAAAAAAAAAAAAAAAAeSrlcBYiXO82gAAEeUIEiXwAAAAAAAAAAAAAAAAAAAAAAAAAAAAAAhioFvJkAAAAwfODUbD6QZAAAAAAAAAAAAAAAAAAAAAAAAAAAAAAMGQAAAAD5+cQPpR7AAAAAAAAAAAAAAAAAAAAAAAAAAAAAAAAAAAAPnxxg+lHsAAAAAAAAAAAAAAAAAAAAAAAAAAAAAAAAAAAHk+bng3H0YyAAAAAAAAAAAAAAAAAAAAAAAACBKuAAAAACfLOAAACKKOCVLwAAAAAAAAAAAAAAAAAAAAAAAAAVUrgAAAAAJkugAAAKUQ4LYWEAAAAAAAAAAAAAAAAAAAAAAAAAiCuAA0nEASRkAnCeAAAIcpQNh9DNwAAAAAAAAAAAAAAAAAAAAAAAAAAANJ8+NIJ0t5kAAAAjikGoFoLKAAAAAAAAAAAAAAAAAAAAAAAAAAAACGKYYBKFuOsAAGCAKqeASReT0AAAAAAAAAAAAAAAAAAAAAAAAAAAAAV0qgB6JglzsPRoI4gzkAO0vJvAAAAAAAAAAAAAAAAAAAAAAAAAAAAAAIQqJrAAAAAJcuBuAAAAAAAAAAAAAAAAAAAAAAAAAAAAAAAOYrJCHgAAA7SzEyZAAAAAAAAAAAAAAAAAAAAAAAAAAAAAAAABpK+VgAHeW47zIAAAAAAAAAAAAAAAAAAAAAAAAAAAAAAB5PAABGlJABMFwAAMmwAAAAAAAAAAAAAAAAAAAAAAAAAAAAGs+emgAAAAAAAAt5PAAAAAAAAAAAAAAAAAAAAAAAAAAAAHKfPAAAAAAAAAWMtQAAAAAAAAAAAAAAAAAAAAAAAAAAABoPnRgAAAAAAAAsxZwAAAAAAAAAAAAAAAAAAAAAAAAAAAARZzAAAAAAAAyS5tAAAAAAAAAAAAAAAAAAAAAAAAAAAAAAAAAAAAAAAAAAAAAAAAAAAAAAAAAAAAAAAAAAAAAAAAAAAAAAAAAAAAAAAAAAAAAAAAAAAAAAAAAAAAAAAAAAAAAAAAAAAAAAAAAAAAAAAAAAAAAAAAAAAAAAAAAAAAAAAAAAAAAAAAAAAAAAAAAAAAAAAAAAAAAAAAAAAAAAAAAAAAAAAAAAAAAAAAAAAAAAAAAAAAAAAAAAAAAAAAAAAAAAAAAAAAAAAAAAAAAAAAAAAAAAAAAAAAAAAAAAAAAAAAAAAAAAAAAAAAAAAAAAAAAAAAAAAAAAAAAAAAAAAAAAAAAAAAAAAAAAAAAAAAAAAAAAAAAAAAAAAAAAAAAAAAAAAAAAAAAAAAAAAAAAAAAAAAAAAAAAAAAAAAAAAAAAAAAAAAAAAAAAAAAAAAAAAAAAAAAAAAAAAAAAAAAAAAAAAAAAAAAAAAAAAAAAAAAAAAAAAAAAAAAAAAAAAAAAAAAAAAAAAAAAAAAAAAAAAAAAAAAAAAAAAAAAAAAAAAAAAAAAAAAAAAAAAAAAAAAAAAAAAAAAAAAAAAAAAAAAAAAAAAAAAAAAAAAAAAAAAAAAAAAAAAAAAAAAAAAAAAAAAAAAAAAAAAAAAAAAAAAAAAAAAAAAAAAAAAAAAAAAAAAAAAAAAAAAAAAAAAAAAAAAAAAAAAAAAAAAAAAAAAAAAAAAAAAAAAAAAAAAAAAAAAAAAAAAAAAAAAB//8QAKhAAAQMDAgYBBQEBAAAAAAAAAwECBAAFExVQEBESIDBgFCExMjRAoDP/2gAIAQEAAQUC/wA8pCNEwk87zRLg0/pc+Xnfwh3LlX39IuUzl2CE4xBsxi9DkyGxhasfqizByUnS/jDVea8PusGJ8cfob3tGyVIdJLSOVqkI8r+Nth+i3CZmf3QInyCeiXKZ0J3wyBeD0ObKSMJVVy94yOE+MbOD0ExWgEczjl8CIqrDCoI3oCqiJNlLJL4bbD6U9BuUzqXw2+Jnf6DcJeBnhAPKYbGiZ6BJkNjCI9xH+K3Sc4d/e9o2SpLpJfHbH9Mzf7hMzP8AIEqhLGlMks324Kb43mGRwXxZLZI98JLAF0qAw6Oa5ju4QnmIQTxOpEVVIIguMc7o5RkaUe9S5HxgOcr3RZhIyvHHuIjxyR39iJzWDE+MNzWuT4UZaYEY6MFhxyI7oxeFrk9BN6lR0khMB4H0IrwvDJDOHLgPj9lth8u6XGSSFUVq0i8ljFzg3ooWHZLhPjLSLyWJckdUu286+1W+Jnf33UHQXhaC74qIqTLb08bZJfllQRyaGNomd80WWJwgP6Jm+y7e09PE9j7fEwM8RG9BKYvST0qZ9JfBn4eky15y+Dfo30hV6WuXqdQm9Ztzucl4W5i1mLWYtZi1mLWYtZi1mLWYtZi1mLWYtWyUR5PBcS4onC3M65m53j/p5LX+54LjIzSOFpFyHuc+IslmnSq06VWnSq06VRYhwt4pb5Kpp0qtOlVp0qoEFwHd9wl4B8GMUjxDQQt4KNDCKNwScIE7DSLzTwy5bIzCEcV/C1xuW93CJnZxiznxqDJFITuVeSSrm1lOe57uEOKskqIjU3ufA6+xFVqiuhmUy6gdSToy18yNTrlGbRLvRpJj9kaM+S8QmBHvsy3tPTxuG7xxYDz0MbBM38wBnae1kZTmq1e8MQx6j20YvRHiYVJsAIgdkMDZBxQo4vQVVErIysjKyMrIysjKuD2rC7LYqJLyMrIysjKyMrIyuti72R3QMpXmf/Da5Dis3mT+t/FZ/wA95O1XA/is7V3s1vAZ2kgrSQVpIK0kFaSCtJBWkgrSQVpIK0kFaSCtJBWkgrSQVpIK0kFJaQUwbRM/zpf/xAAUEQEAAAAAAAAAAAAAAAAAAADA/9oACAEDAQE/ATlP/8QAFBEBAAAAAAAAAAAAAAAAAAAAwP/aAAgBAgEBPwE5T//EADYQAAECAQgJAQcFAQAAAAAAAAEAAhEDEiExMjNRkRATICIwQVBgoXFAQlJhcoGxBCNikqCC/9oACAEBAAY/Av8APKXuMAFPa8tHIKY/dlPz2XMZdt86RJy9Xxdk6iTNPvHYDGVlNZXNEOxJ7vsMVZZDBUUO+FUW3VKJ0wCi68dX2IXuMAFONXIaItMCFPeYnY18oPpHYurYdxvnbnOu2+exdRJmk2uABI0Q5diUWzUomkngT2GBTZTGvsIvdUEXu4MBWmsNdZ7BialRYbVwtfKCn3R2FqJM0e8eFPeNxvnsKYw77vHCawumx5oMaIAdgzzXyCL3GJPDmuts7AL3GACnGrkOIB8Q7A1bDuN88USjawotr5jrx1Q+r044ewwIURQ4Vjrs18oAVrZCE45FTXCBG2GMESVNe0tOiAQ1jC2OOkPb9xig9tR62X86gi5xiSsWc2qc072PMKa8ehx2YBU23VqDgCPmrlq3GNb6BTHhTHfY46dS6p1Xr1uZGBrBU14honsMCtXKATsFObvSf42NfKCn3RtTfeFkqBrGiITZTGvrcx4iFG0zHRELV/qP7LWfp/6qlT33bfPAEqKnV+ul8l9x1yBpCMpIVfDp1BMWwo+SnWXYhBjRADgPHMUjSz50dens3X/lTHNIdgp77x3jhubgdDXYHsuV+rSPTsqV+rSOySTyRdidDG4nqjWSZgXc1ePzV4/NXj81ePzV4/NXj81ePzV4/NXj81ePzV4/NXj80ZJ5nUREeC7F1Glv8aeqSfpxf+TwZosso0ulT71A6oCy01XflXflXflXflTpRkBsREnR6hXflXflXflGUlLVQHAmNO+7xpDG1lNYKgOsuk3VFFjqxp1cpY5HBRHCxeagi95iTp17h9PW57LbfOxC0zBRY77bcSpsjvOx5Kc4xJ0/wFZUBUOuGWkhvcxjsRBgVB8Hj5reDmq9Cvm5q3H0C/ak/u5b76MNiDauZQYwUDr0+T3X/lTXtgeJOdus/KmMEB2BCUbFRkjPGHNQcCD8+BusoxKnP33eOxIPYHeqdKsiCOUdmY4kCHJUScTiaewaTBW25q23NW25q23NW25p8HDlz2aTDdVtuattzVtuattzVtuatDPrbn/CIoveYn2J0m8xm1HrUr9J9jlPQdae0Vlp9jlHcqutziC0/JWnq09Wnq09Wnq09Wnq09Wnq09Wnq09Wnq09Wnq09VvzUxggB/nT//EACsQAQABAgMGBgMBAQAAAAAAAAERACExQfEQMFFgYdEgUHGBkfChscFAoP/aAAgBAQABPyH/AJ5YDTlphN1lsFRcP4PRyVgS1fy58uOzClmZwHD60IBGR5Iit4wsungK6fwVeuwlx5EWXHDiKxHtDULs8VQQucLw60jJK3V2ggErgUUd+h05EiBOVpTaNuEbC7MAlOlvn4IovM798i51LHi8awdy/VwoAILByJI2FcZHDcW5hu8TkTBRsn+05dRKu4GJPMoYyEWcHkJZ+hxeFJndwOBw3IIJVgK7qM5BRJAurUYcYXj13UReMbLryFMWjAzeG6zeXy4VhyDk8vhxrHciWBxKoTTgOQWN3BxmpXTld2krNheJk8gQAnK0xtG3CN42QoP75AzrV3j3oeCuDUmoOLiefACecRif4HRX6/D896RxxipWi5BS4Xjh3AmXqZjZAhVyKwUCSG3Iq9hTLyc+dlAS7PWkgKlWoWXsT+VYYGA+BrDSyMPCQglbAUEpnG8OldBFCaUS/DsvBVKHBzKaXDHgNtzP1vOzpwHoGrm7Jydh5Yfmo9yxefUphn4mfq8EUvGNl18STBc4DTk4SE2ISQjI0ObD5Z+dtf2wqGbuBy9diAiJglEDF7DwfWiCXV7aRSCExGrOXPlwrCx44R5O0xF+1/554iATEaWBnE5z0rDZFKdMqLe7LH1qA04Nxamx7xtl+Sn7+fTcP4fVSfpwqzlj4cN0kkOddZ82dOB8/gmY3ghdW1SvEclSTr2mHwDkk8BCWnexR2dIM/PmijJqjGK17Wva17Wva17Wva17Wva17Wva17WvaUOLjEbmEDk/7tnmQX5p+S3uFuS8M2XVz2x8uvYPNFUDCHMr7zX1mvrNfWaxnGJkfAHIokSr6zX1mvrNRZiIDMbgMNdujjtKyVgrIjXnOHAxRnwvztlD3/T0oAQRwTdXVFDkoK7tjOOt3ed2ctfDhSQw7Xp+vy9KiKXNYnjBEAM2hmP4LvTN+OXbfUmjUZOAgDzz2pP8isNp1wYI1Fh7I/NY5PpJWFn62pKthT6UrL90/lK3ngWPBG6D6ZUaT8nn0pFm8Kt2Hk7x8l4+foo0M+QIdOBzKnOuVqJyrIRuHrx6IqP93LPbkSKK6KKmMzDHw33gaXUuQRDyXqa05WnK05WnK05R6tyHUeGdEJXWtOVpytOVpytOUMgd6edhYJEorNPx/iSgoycPOvquHJrLioB8Vgw/4pUeSXXztew4ria187Vr52rXztWvnatfO1a+dq187Vr52rXztWvnatfO1a+dq187Vr52rXztWvnagsrdIdqKBwwf86f/2gAMAwEAAgADAAAAEAAAAAAAAAAAAAAAAAAAAAAAAAAAAAAAAAAAAAAAAAAAAAAAAAAAAAAAAAAAAAAAAAAAAAAAAAAAAAAAAAAAAAAAAAAAAAAAAAAAAAAAAAAAAAAAAAAAAAAAAAAAAAAAAAAAAAAAAAAAAAAAAAAAAAAAAAAAAAAAAAAAAAAAAAAAAAAAAAAAAAAAAAAAAAAAAAAAAAAAAAAAAAAAAAAAAAAAAAAAAAAAAAAAAAAAAAAAAAAAAAAAAAAAAAAAAAAAAAAAAAAAAAAAAAAAAAAAAAAAAAAAAAAAAAAAAAAAAAAAAAAAAAAAAAAAAAAAAAAAAAAAAAAAAAAAAAAAAAAAAAAAAAAAAAAAAAAAAAAAAAAAAAAAAAAAAAAAAAAAAAAAAAAAAAAAAAAAAAAAAAAAAAAAAAAAAAAAAAAAAAAAAAAAAAAAAAAAAAAAAAAAAAAAAAAAAAAAAAAAAAAAAAAAAAAAAAAAAAAAAAAAAAAAAAAAAAAAAAAAAAAAAAAAAAAAAAAAAAAAAAAAAAAAAAAAAAAAAAAAAAAAAAAAAAAAAAAAAAAAAAAAAAAAAAAAAAAAAAAAAAAAAAAAAAAAAAAAAAAAAAAAAAAAAAAAAAAAAAAAAAAAAAAAAAAAAAAAAAAAAAAAAAAAAAAAAAAAAAAAAAAAAAAAAAAAAAAAAAAAAAAAAAAAAAAAAAAAAAAAAAAAAAAAAAAAAAAAAAAAAAAAAAAAAAAAAAAAAAAAAAAAAAAAAAAAAAABFAAAAAAAAAAAAAAAAAAAAAAAAAAAAAAAAAAAABJtAAAAAAAAAAAAAAAAAAAAAAAAAAAAAAAAAAAABtsAAAAAAAAAAAAAAAAAAAAAAAAAAAAAAAAABBBtkAAAAAAAAAAAAAAAAAAAAAAAAAAAAAAAAAAFtttAAAAAAAAAAAAAAAAAAAAAAAAAAAAAAAAABJttsoAAAAAAAAAAAAAAAAAAAAAAAAAAAAAAAAAJtttgAAAAAAAAAAAAAAAAAAAAAAAAAAAAAAAAAAtttsoAAAAAAAAAAAAAAAAAAAAAAAAAAAAAAAAJttttsAAAAAAAAAAAAAAAAAAAAAAAAAAAAAAAAJtttttAAAAAAAAAAAAAAAAAAAAAAAAAAAAAAAAANtttsoAAAAAAAAAAAAAAAAAAAAAAAAAAAAAAAANtttsoAAAAAAAAAAAAAAAAAAAAAAAAAAAAAAAANttttsAAAAAAAAAAAAAAAAAAAAAAAAAAAAAAABNtttttkAAAAAAAAAAAAAAAAAAAAAAAAAAAAAABBttttttgAAAAAAAAAAAAAAAAAAAAAAAAAAAAAABttttttsgAAAAAAAAAAAAAAAAAAAAAAAAAAAAAAAtttstttoAAAAAAAAAAAAAAAAAAAAAAAAAAAAAFpttsIIFsAAAAAAAAAAAAAAAAAAAAAAAAAAAAABsottAABFsAAAAAAAAAAAAAAAAAAAAAAAAAAAAABtgFoAABNoAAAAAAAAAAAAAAAAAAAAAAAAAAAAAJNgIAAAJtgAAAAAAAAAAAAAAAAAAAAAAAAAAAAAANAAAAAFlAAAAAAAAAAAAAAAAAAAAAAAAAAAAAAAAAAAAAtgAAAAAAAAAAAAAAAAAAAAAAAAAAAAAAAAAAAAFtAAAAAAAAAAAAAAAAAAAAAAAAAAAAAAAAAAAAAsoAAAAAAAAAAAAAAAAAAAAAAAABMkkkkkoAAABNkAAAAAAAAAAAAAAAAAAAAAAAAABtttttsAAAAFsAAAAAAAAAAAAAAAAAAAAAAAAABNJFtlJgAAAJtoAAAAAAAAAAAAAAAAAAAAAAAAAAAANsAAAAAItgAAAAAAAAAAAAAAAAAAAAAAAAAAAABFtoAAABtlAAAAAAAAAAAAAAAAAAAAAAAAAAAAABNsoJINttAAAAAAAAAAAAAAAAAAAAAAAAAAAAAABNtttttlAAAAAAAAAAAAAAAAAAAAAAAAAAAAAAABAtttthAAAAAAAAAAAAAAAAAAAAAAAAAAAAAAAAAINttIAAAAAAAAAAAAAAAAAAAAAAAAAAAAAAAAAABtsgAAAAAAAAAAAAAAAAAAAAAAAAAAAAAAAAttttttttsAAAAAAAAAAAAAAAAAAAAAAAAAAAABNttttttttoAAAAAAAAAAAAAAAAAAAAAAAAAAAAAttttttttsAAAAAAAAAAAAAAAAAAAAAAAAAAAAAAAAAAAAAAIAAAAAAAAAAAAAAAAAAAAAAAAAAAAAAAAAAAAAAAAAAAAAAAAAAAAAAAAAAAAAAAAAAAAAAAAAAAAAAAAAAAAAAAAAAAAAAAAAAAAAAAAAAAAAAAAAAAAAAAAAAAAAAAAAAAAAAAAAAAAAAAAAAAAAAAAAAAAAAAAAAAAAAAAAAAAAAAAAAAAAAAAAAAAAAAAAAAAAAAAAAAAAAAAAAAAAAAAAAAAAAAAAAAAAAAAAAAAAAAAAAAAAAAAAAAAAAAAAAAAAAAAAAAAAAAAAAAAAAAAAAAAAAAAAAAAAAAAAAAAAAAAAAAAAAAAAAAAAAAAAAAAAAAAAAAAAAAAAAAAAAAAAAAAAAAAAAAAAAAAAAAAAAAAAAAAAAAAAAAAAAAAAAAAAAAAAAAAAAAAAAAAAAAAAAAAAAAAAAAAAAAAAAAAAAAAAAAAAAAAAAAAAAAAAAAAAAAAAAAAAAAAAAAAAAAAAAAAAAAAAAAAAAAAAAAAAAAAAAAAAAAAAAAAAAAAAAAAAAAAAAAAAAAAAAAAAAAAAAAAAAAAAAAAAAAAAAAAAAAAAAAAAAAAAAAAAAAAAAAAAAAAAAAAAAAAAAAAAAAAAAAAAAAAAAAAAAAAAAAAAAAAAAAAAAAAAAAAAAAAAAAAAAAAAAAAAAAAAAAAAAAAAAAAAAAAAAAAAAAAAAAAAAAAAAAAAAAAAAAAAAAAAAAAAAAAAAAAAAAAAAAAAAAAAAAAAAAAAAAAAAAAB//xAAUEQEAAAAAAAAAAAAAAAAAAADA/9oACAEDAQE/EDlP/8QAFBEBAAAAAAAAAAAAAAAAAAAAwP/aAAgBAgEBPxA5T//EACwQAQABAQYDCQEAAwAAAAAAAAERACExQVFh8HGBwRAgMFBgkaGx0UCg4fH/2gAIAQEAAT8Q/wAeUq0gdDWjxDk4CXOs0VhEEx0zp6KURAAlXCnntyTcMuwVCKJaJhUmN8rXRmNaMsCRGRPRFwwWi5l1ce5IlcaDFdCjAYlN8CJ9CWyGw2HI4Zta2eA4zUkY0tt4jiVBcJMji+H3SRXqEquPa+BUASrUKCAvLgeuvoQXCCsqnfvj3Lj2MdaVwjQswBVlhph3ItuLhcZ+nvl6EWCW6kfFQNh48DD378yOK+06/wC6BAAgC4PQmcBNffZx0498iSZjGKVMGL94rnLjj6ESKDcnmtCkMgUlVvfAb2NiX6OZRLEYGBY+gowwWC/CGrUo5YC7CHgufaASq3FMmNoC4TMcrvQJvyqEAF7U6Ck+UtX68K4I7Bc63D0FeAds5HQx18JZBfB3DOgAAAFgHoEYJdE3nKlUqqtqvgh0iliD9y1oa0APt19Aw2Jebfyzpc0gPrh4QoyWJS6wh1/3FkPD0AYhBWBUjl/e5cfEJDY9wIfXn6wS1MYADYOPAw9/FfYJBsRIT2as6rbrXqa+fNGMxOsg1x08d6zLEuTJMShccAmteZo4eelFK+KuKBjnTcuW04pk/FI8iBwj38MCC4DFXAp8IYGx4Nzy7AC2gCV5U8ErpJN4dqLzcksxBqzrgzMx1LvOxTKyLljfoQtOUFeytEVWSizjkaAEBAoXIxNlN4KzRaPTupXeASq3FQWCHIYDh90reLwD2atrWkD2KvBMwF51hXMXuY4NFPgMszP07US28zeRz+487ghRCmDPS1pq/ALRzHHsvWaRcMkxKZla12LN2lWqCunJ/XcuGWQXOtw7zPCUz2ODc0h1hV4l52PcGBeJc0KIsIMDYPfzswbXOLmODS+R1it0DB1u7EwtKIRqQEEByP370Yi0hNjr+fbKnqOgEI0s9vQ7hnQAAALAMO+EH3bgMeZ9Pa+FWF8eeBlxgEiZJUkOutTMaX0ikREvHsbeAQLCbHLShMoUwDkMeNFWgDq6+AAUvkh8knPtaahepCD5jz4ol/WI6Z1oEAYlaeGfKhz6h3HPwgYJBCV/xw1OxwmE3kjQyCY+fLBBS5i7xBEun92e2TsR8eijFuh9mOnYEoGNaIr49EtBDEyAmr0hPFZ7FDJ+XBVxHmZcUuMEWDhM36Usy7rWtlda2V1rZXWtlda2V1rZXWtlda2V1rZXWtlda2V1pq/a0oRJOJD8eCEKWfo/ifftdYnlgQfKeabHmeLtGngklvSF2K6cu1I0ljzPn680minJga8nBspk2fmt39a3f1rd/WhaWENseD3CVKQhG5vrd/Wt39a3f1pqWNhFiVTGzwENohBtxPx/qr2XsjeOWrQL2IuebzbfORhmWcRwTUbasTiOQwTRO1GdS0tU7cKDC0okTM8JFISxbXVyKQbJJ9Gna0KJTTDHoOfndh27BuOVIgIjCOHaUnRtS3WsOF1FRgwXHOt3fDC0qQBWCKl/Dm+ONMqiVyvaUCmOdo1aASQJABceeLqMb/o0x43opERLx7VR5KwnMo8JY/RdRoIMXT84t+KHnm37FAy8mX1QbImLfKBRQonDon7Si30lk8jr3BrHipY9XSomWvxWKuK+fMTbaLuNk6+9X3rR+TM18Q9r3MsNHX7q5ciGLmuL6AgNTR4LhS+IVgHR3ZV7iBiOT4AZY6Lzx5TTbQrSwTTFz9qACAgPQeVYAWODhTLlgJMgxtxz7pKYawliLLeNLA5qvmw5FABAQHoA0Gbkj7raXWtpda2l1raXWtpdaSM7AFe7B4kYQYZ1tLrW0utbS61tLrW0utGXy4BXzuVwIZwTTwBkFsGQYH8IoyMNT2HIlXNi6R8+db3m/j2TN86B6DWaoKRQERhHD+IKUMLMJX7PfztykyUHmiJP8IQIECBAgQIECBAgQIECBQ42qB9qFLLYxf8AHT//2Q==;" parent="1" vertex="1">
          <mxGeometry x="439" y="280" width="51" height="51" as="geometry" />
        </mxCell>
        <mxCell id="mzBB7SvwG0IbSalPoIVl-70" value="" style="edgeStyle=orthogonalEdgeStyle;rounded=0;orthogonalLoop=1;jettySize=auto;html=1;entryX=0;entryY=0;entryDx=95;entryDy=0;entryPerimeter=0;" parent="1" source="mzBB7SvwG0IbSalPoIVl-58" target="mzBB7SvwG0IbSalPoIVl-14" edge="1">
          <mxGeometry relative="1" as="geometry">
            <mxPoint x="425" y="450" as="targetPoint" />
          </mxGeometry>
        </mxCell>
        <mxCell id="mzBB7SvwG0IbSalPoIVl-103" value="&lt;font style=&quot;font-size: 12px&quot;&gt;&lt;b&gt;Incubate for 1 hour minimum&lt;/b&gt;&lt;/font&gt;" style="edgeLabel;html=1;align=center;verticalAlign=middle;resizable=0;points=[];" parent="mzBB7SvwG0IbSalPoIVl-70" vertex="1" connectable="0">
          <mxGeometry x="-0.2421" y="-2" relative="1" as="geometry">
            <mxPoint as="offset" />
          </mxGeometry>
        </mxCell>
        <mxCell id="mzBB7SvwG0IbSalPoIVl-58" value="&lt;b&gt;&lt;font style=&quot;font-size: 16px&quot; face=&quot;Georgia&quot;&gt;Weigh the chip using a precise laboratory-level balance &lt;/font&gt;&lt;/b&gt;" style="text;html=1;align=center;verticalAlign=middle;resizable=0;points=[];autosize=1;" parent="1" vertex="1">
          <mxGeometry x="190" y="370" width="470" height="20" as="geometry" />
        </mxCell>
        <mxCell id="mzBB7SvwG0IbSalPoIVl-108" value="" style="edgeStyle=orthogonalEdgeStyle;rounded=0;orthogonalLoop=1;jettySize=auto;html=1;" parent="1" source="mzBB7SvwG0IbSalPoIVl-60" target="mzBB7SvwG0IbSalPoIVl-31" edge="1">
          <mxGeometry relative="1" as="geometry">
            <mxPoint x="705" y="150" as="targetPoint" />
            <Array as="points">
              <mxPoint x="690" y="240" />
            </Array>
          </mxGeometry>
        </mxCell>
        <mxCell id="mzBB7SvwG0IbSalPoIVl-109" style="edgeStyle=orthogonalEdgeStyle;rounded=0;orthogonalLoop=1;jettySize=auto;html=1;" parent="1" source="mzBB7SvwG0IbSalPoIVl-60" target="mzBB7SvwG0IbSalPoIVl-81" edge="1">
          <mxGeometry relative="1" as="geometry">
            <mxPoint x="860" y="240" as="targetPoint" />
            <Array as="points">
              <mxPoint x="690" y="240" />
            </Array>
          </mxGeometry>
        </mxCell>
        <mxCell id="mzBB7SvwG0IbSalPoIVl-60" value="&lt;br&gt;&lt;b&gt;&lt;font style=&quot;font-size: 16px&quot; face=&quot;Georgia&quot;&gt;Prime the control layer (with tubing or a P10 pipette tip) &lt;br&gt;Measure the required volume for control layer priming&lt;br&gt;&lt;/font&gt;&lt;/b&gt;" style="text;html=1;align=center;verticalAlign=middle;resizable=0;points=[];autosize=1;" parent="1" vertex="1">
          <mxGeometry x="465" y="20" width="480" height="50" as="geometry" />
        </mxCell>
        <mxCell id="mzBB7SvwG0IbSalPoIVl-65" value="&lt;font style=&quot;font-size: 16px&quot; face=&quot;Georgia&quot;&gt;&lt;b&gt;Image&lt;/b&gt;&lt;/font&gt;" style="text;html=1;align=center;verticalAlign=middle;resizable=0;points=[];autosize=1;" parent="1" vertex="1">
          <mxGeometry x="480" y="295.5" width="70" height="20" as="geometry" />
        </mxCell>
        <mxCell id="mzBB7SvwG0IbSalPoIVl-67" value="" style="shape=image;verticalLabelPosition=bottom;labelBackgroundColor=#ffffff;verticalAlign=top;aspect=fixed;imageAspect=0;image=data:image/jpeg,/9j/4AAQSkZJRgABAQEBLAEsAAD/4QC7RXhpZgAASUkqAAgAAAABAA4BAgCZAAAAGgAAAAAAAABNaWNyb3Njb3BlIGljb24uIE1lZGljYWwgZGlhZ25vc3RpY3MsIGxhYm9yYXRvcnksIHJlc2VhcmNoLCBlZHVjYXRpb24sIHN0dWR5LiBWZWN0b3IgaWxsdXN0cmF0aW9uLiBFcXVpcG1lbnQgZm9yIG1lZGljYWwgcmVzZWFyY2gsIGxhYm9yYXRvcmllcy4gSXNvbGF0ZWT/4QVEaHR0cDovL25zLmFkb2JlLmNvbS94YXAvMS4wLwAJPHJkZjpSREYgeG1sbnM6cmRmPSJodHRwOi8vd3d3LnczLm9yZy8xOTk5LzAyLzIyLXJkZi1zeW50YXgtbnMjIj4KCQk8cmRmOkRlc2NyaXB0aW9uIHJkZjphYm91dD0iIiB4bWxuczpwaG90b3Nob3A9Imh0dHA6Ly9ucy5hZG9iZS5jb20vcGhvdG9zaG9wLzEuMC8iIHhtbG5zOklwdGM0eG1wQ29yZT0iaHR0cDovL2lwdGMub3JnL3N0ZC9JcHRjNHhtcENvcmUvMS4wL3htbG5zLyIgICB4bWxuczpHZXR0eUltYWdlc0dJRlQ9Imh0dHA6Ly94bXAuZ2V0dHlpbWFnZXMuY29tL2dpZnQvMS4wLyIgeG1sbnM6ZGM9Imh0dHA6Ly9wdXJsLm9yZy9kYy9lbGVtZW50cy8xLjEvIiB4bWxuczpwbHVzPSJodHRwOi8vbnMudXNlcGx1cy5vcmcvbGRmL3htcC8xLjAvIiAgeG1sbnM6aXB0Y0V4dD0iaHR0cDovL2lwdGMub3JnL3N0ZC9JcHRjNHhtcEV4dC8yMDA4LTAyLTI5LyIgeG1sbnM6eG1wUmlnaHRzPSJodHRwOi8vbnMuYWRvYmUuY29tL3hhcC8xLjAvcmlnaHRzLyIgcGhvdG9zaG9wOkNyZWRpdD0iR2V0dHkgSW1hZ2VzL2lTdG9ja3Bob3RvIiBHZXR0eUltYWdlc0dJRlQ6QXNzZXRJRD0iOTAzNTA5NDk4IiB4bXBSaWdodHM6V2ViU3RhdGVtZW50PSJodHRwczovL3d3dy5pc3RvY2twaG90by5jb20vbGVnYWwvbGljZW5zZS1hZ3JlZW1lbnQ/dXRtX21lZGl1bT1vcmdhbmljJmFtcDt1dG1fc291cmNlPWdvb2dsZSZhbXA7dXRtX2NhbXBhaWduPWlwdGN1cmwiID4KPGRjOmNyZWF0b3I+PHJkZjpTZXE+PHJkZjpsaT5TaGFtcyBTdWxleW1hbm92YTwvcmRmOmxpPjwvcmRmOlNlcT48L2RjOmNyZWF0b3I+PGRjOmRlc2NyaXB0aW9uPjxyZGY6QWx0PjxyZGY6bGkgeG1sOmxhbmc9IngtZGVmYXVsdCI+TWljcm9zY29wZSBpY29uLiBNZWRpY2FsIGRpYWdub3N0aWNzLCBsYWJvcmF0b3J5LCByZXNlYXJjaCwgZWR1Y2F0aW9uLCBzdHVkeS4gVmVjdG9yIGlsbHVzdHJhdGlvbi4gRXF1aXBtZW50IGZvciBtZWRpY2FsIHJlc2VhcmNoLCBsYWJvcmF0b3JpZXMuIElzb2xhdGVkPC9yZGY6bGk+PC9yZGY6QWx0PjwvZGM6ZGVzY3JpcHRpb24+CjxwbHVzOkxpY2Vuc29yPjxyZGY6U2VxPjxyZGY6bGkgcmRmOnBhcnNlVHlwZT0nUmVzb3VyY2UnPjxwbHVzOkxpY2Vuc29yVVJMPmh0dHBzOi8vd3d3LmlzdG9ja3Bob3RvLmNvbS9waG90by9saWNlbnNlLWdtOTAzNTA5NDk4LT91dG1fbWVkaXVtPW9yZ2FuaWMmYW1wO3V0bV9zb3VyY2U9Z29vZ2xlJmFtcDt1dG1fY2FtcGFpZ249aXB0Y3VybDwvcGx1czpMaWNlbnNvclVSTD48L3JkZjpsaT48L3JkZjpTZXE+PC9wbHVzOkxpY2Vuc29yPgoJCTwvcmRmOkRlc2NyaXB0aW9uPgoJPC9yZGY6UkRGPgr/7QDuUGhvdG9zaG9wIDMuMAA4QklNBAQAAAAAANEcAlAAEVNoYW1zIFN1bGV5bWFub3ZhHAJ4AJlNaWNyb3Njb3BlIGljb24uIE1lZGljYWwgZGlhZ25vc3RpY3MsIGxhYm9yYXRvcnksIHJlc2VhcmNoLCBlZHVjYXRpb24sIHN0dWR5LiBWZWN0b3IgaWxsdXN0cmF0aW9uLiBFcXVpcG1lbnQgZm9yIG1lZGljYWwgcmVzZWFyY2gsIGxhYm9yYXRvcmllcy4gSXNvbGF0ZWQcAm4AGEdldHR5IEltYWdlcy9pU3RvY2twaG90bwD/2wBDAAoHBwgHBgoICAgLCgoLDhgQDg0NDh0VFhEYIx8lJCIfIiEmKzcvJik0KSEiMEExNDk7Pj4+JS5ESUM8SDc9Pjv/2wBDAQoLCw4NDhwQEBw7KCIoOzs7Ozs7Ozs7Ozs7Ozs7Ozs7Ozs7Ozs7Ozs7Ozs7Ozs7Ozs7Ozs7Ozs7Ozs7Ozs7Ozv/wgARCAJkAmQDAREAAhEBAxEB/8QAGwABAAIDAQEAAAAAAAAAAAAAAAUGAQMEAgf/xAAUAQEAAAAAAAAAAAAAAAAAAAAA/9oADAMBAAIQAxAAAAG5gAAAAAAAAAAAAAAAAAAAAAAAAAAAAAAAAAAAAAAAAAAAAAAAAAAAAAAAAAAAAAAAAAAAAAAAAAAAAAAAAAAAAAAAAAAAAAAAAAAAAAAAAAAAAAAAAAAAAAAAAAAAAAAAAAAAAAAAAAAAAAAAAAAAAAAAAAAAAAAAAAAAAAAAAAAAAAAAAAAAAAAAAAAAAAAAAAAAAAAAAAAAAAAAAAAAAAAAAAAAAAAAAAAAAAAAAAAAAAAAAAAAAAAAAAAAAAAAAAAAAAAAAAAAAAAAAAAAAAAAAAAAAAAAAAAAAAAAAAAAAAAAAAAAAAAAAAAAAAAAAAAAAAAAAAAAAAAAAAAAAAAAAAAAAAAAAAAAAAAAAAAAAAAAAAAAAAAAAAAAAAAAAAAAAAAAAAAAAAAAAAAAAAAAAAAAAAAAAAAAAAAAAAAAAAAAAAAAAAAAAAAAAAAAAAAAAAAAAAAAAAAAAAAAAAAAAAAAAAAAAAAAAAAAAAAAAAAAAAAAAAAAAAAAAAAAAAAAAAAAAAAAAAAAAAAAAAAAAAAAAAAAAAAAAAAAAAAAAAAAAAAAAAAAAAAAAAAAAAAAAAAAAAAAAAAAAAAAAAAAAAAAAAAAAAAAAAAAAAAAAAAAAAAAAAAAAAAAAAAAAAAAAAAAAAAAAAAAAAAAAAAAAAAAAAAAAAAAAAAAAAAAAAAAAAAAAAAAAAAAAAAAAAAAAAAAAAAAAAAAAAAAAAAAAAAAAAAAAAAAAAAAAAAAAAAAAAGopRYSZAAAAAAAAAAAAAAAAAAAAAAAAAAAAAAAAAAAAMFLIcFjLSZAAAAAAAAAAAAAAAAAAAAAAAAAAAAAAAAAAAK2VYA3H0I2gAAAAAAAAAAAAAAAAAAAAAAAAAAAAAAAAHGVsnzwUcwDJdyVAAAAAAAAAAAAAAAAAAAAAAAAAAAAAAAAANZQziPR7NQBZyzAAAAAAAAAAAAAAAAAAAAAAAAAAAAAAAAAGCmkKAACXLqZAAAAAAAAAAAAAAAAAAAAAAAAAAAAAAAAAK6VQAAAvpIAAAAAAAAAAAAAAAAAAAAAAAAAAAAAAAAAEaUY8gAAG0vp1gAAAAAAAAAAAAAAAAAAAAAAAAAAAAAAAHOUI5wAAAZL8dwAAAAAAAAAAAAAAAAAAAAAAAAAAAAAAAPJRyMAAAALSWQAAAAAAAAAAAAAAAAAAAAAAAAAAAAAAAAqpXAAAACZLmZAAAAAAAAAAAAAAAAAAAAAAAAAAAAAAABDFLAAAAOg+gG0AAAAAAAAAAAAAAAAAAAAAAAAAAAAAAAHGUI1gAAAAuxLgAAAAAAAAAAAAAAAAAAAAAAAAAAAAAAGsoZxAAAAAEwXUAAAAAAAAAAAAAAAAAAAAAAAAAAAAAAGCnEIAAAAADeXk7QAAAAAAAAAAAAAAAAAAAAAAAAAAAAACLKMAAAAAADcXk7gAAAAAAAAAAAAAAAAAAAAAAAAAAAAAcZGFUPAAANwNJk2mkHSX43AAAAAAAAAAAAAAAAAAAAAAAAAAAAA4ShncWQqhygAyXgkTkN5gopyAny3AAAAAAAAAAAAAAAAAAAAAAAAAAAAA4ijnOby2EGRABaSyAAHAUM8mT6EdQAAAAAAAAAAAAAAAAAAAAAAAAAAAANBTCMMlnMFZJcuhkAAFRIAFmLOAAAAAAAAAAAAAAAAAAAAAAAAAAAAAeSrlcBYiXO82gAAEeUIEiXwAAAAAAAAAAAAAAAAAAAAAAAAAAAAAAhioFvJkAAAAwfODUbD6QZAAAAAAAAAAAAAAAAAAAAAAAAAAAAAAMGQAAAAD5+cQPpR7AAAAAAAAAAAAAAAAAAAAAAAAAAAAAAAAAAAAPnxxg+lHsAAAAAAAAAAAAAAAAAAAAAAAAAAAAAAAAAAAHk+bng3H0YyAAAAAAAAAAAAAAAAAAAAAAAACBKuAAAAACfLOAAACKKOCVLwAAAAAAAAAAAAAAAAAAAAAAAAAVUrgAAAAAJkugAAAKUQ4LYWEAAAAAAAAAAAAAAAAAAAAAAAAAiCuAA0nEASRkAnCeAAAIcpQNh9DNwAAAAAAAAAAAAAAAAAAAAAAAAAAANJ8+NIJ0t5kAAAAjikGoFoLKAAAAAAAAAAAAAAAAAAAAAAAAAAAACGKYYBKFuOsAAGCAKqeASReT0AAAAAAAAAAAAAAAAAAAAAAAAAAAAAV0qgB6JglzsPRoI4gzkAO0vJvAAAAAAAAAAAAAAAAAAAAAAAAAAAAAAIQqJrAAAAAJcuBuAAAAAAAAAAAAAAAAAAAAAAAAAAAAAAAOYrJCHgAAA7SzEyZAAAAAAAAAAAAAAAAAAAAAAAAAAAAAAAABpK+VgAHeW47zIAAAAAAAAAAAAAAAAAAAAAAAAAAAAAAB5PAABGlJABMFwAAMmwAAAAAAAAAAAAAAAAAAAAAAAAAAAAGs+emgAAAAAAAAt5PAAAAAAAAAAAAAAAAAAAAAAAAAAAAHKfPAAAAAAAAAWMtQAAAAAAAAAAAAAAAAAAAAAAAAAAABoPnRgAAAAAAAAsxZwAAAAAAAAAAAAAAAAAAAAAAAAAAAARZzAAAAAAAAyS5tAAAAAAAAAAAAAAAAAAAAAAAAAAAAAAAAAAAAAAAAAAAAAAAAAAAAAAAAAAAAAAAAAAAAAAAAAAAAAAAAAAAAAAAAAAAAAAAAAAAAAAAAAAAAAAAAAAAAAAAAAAAAAAAAAAAAAAAAAAAAAAAAAAAAAAAAAAAAAAAAAAAAAAAAAAAAAAAAAAAAAAAAAAAAAAAAAAAAAAAAAAAAAAAAAAAAAAAAAAAAAAAAAAAAAAAAAAAAAAAAAAAAAAAAAAAAAAAAAAAAAAAAAAAAAAAAAAAAAAAAAAAAAAAAAAAAAAAAAAAAAAAAAAAAAAAAAAAAAAAAAAAAAAAAAAAAAAAAAAAAAAAAAAAAAAAAAAAAAAAAAAAAAAAAAAAAAAAAAAAAAAAAAAAAAAAAAAAAAAAAAAAAAAAAAAAAAAAAAAAAAAAAAAAAAAAAAAAAAAAAAAAAAAAAAAAAAAAAAAAAAAAAAAAAAAAAAAAAAAAAAAAAAAAAAAAAAAAAAAAAAAAAAAAAAAAAAAAAAAAAAAAAAAAAAAAAAAAAAAAAAAAAAAAAAAAAAAAAAAAAAAAAAAAAAAAAAAAAAAAAAAAAAAAAAAAAAAAAAAAAAAAAAAAAAAAAAAAAAAAAAAAAAAAAAAAAAAAAAAAAAAAAAAAAAAAAAAAAAAAAAAAAAAAAAAAAAAAAAAAAAAAAAAAAAAAAAAAAAAAAAAAAAAAAAAAAAAAAAAAAAAAAAAAAAAAAAAAAAAAAAAAAB//8QAKhAAAQMDAgYBBQEBAAAAAAAAAwECBAAFExVQEBESIDBgFCExMjRAoDP/2gAIAQEAAQUC/wA8pCNEwk87zRLg0/pc+Xnfwh3LlX39IuUzl2CE4xBsxi9DkyGxhasfqizByUnS/jDVea8PusGJ8cfob3tGyVIdJLSOVqkI8r+Nth+i3CZmf3QInyCeiXKZ0J3wyBeD0ObKSMJVVy94yOE+MbOD0ExWgEczjl8CIqrDCoI3oCqiJNlLJL4bbD6U9BuUzqXw2+Jnf6DcJeBnhAPKYbGiZ6BJkNjCI9xH+K3Sc4d/e9o2SpLpJfHbH9Mzf7hMzP8AIEqhLGlMks324Kb43mGRwXxZLZI98JLAF0qAw6Oa5ju4QnmIQTxOpEVVIIguMc7o5RkaUe9S5HxgOcr3RZhIyvHHuIjxyR39iJzWDE+MNzWuT4UZaYEY6MFhxyI7oxeFrk9BN6lR0khMB4H0IrwvDJDOHLgPj9lth8u6XGSSFUVq0i8ljFzg3ooWHZLhPjLSLyWJckdUu286+1W+Jnf33UHQXhaC74qIqTLb08bZJfllQRyaGNomd80WWJwgP6Jm+y7e09PE9j7fEwM8RG9BKYvST0qZ9JfBn4eky15y+Dfo30hV6WuXqdQm9Ztzucl4W5i1mLWYtZi1mLWYtZi1mLWYtZi1mLWYtWyUR5PBcS4onC3M65m53j/p5LX+54LjIzSOFpFyHuc+IslmnSq06VWnSq06VRYhwt4pb5Kpp0qtOlVp0qoEFwHd9wl4B8GMUjxDQQt4KNDCKNwScIE7DSLzTwy5bIzCEcV/C1xuW93CJnZxiznxqDJFITuVeSSrm1lOe57uEOKskqIjU3ufA6+xFVqiuhmUy6gdSToy18yNTrlGbRLvRpJj9kaM+S8QmBHvsy3tPTxuG7xxYDz0MbBM38wBnae1kZTmq1e8MQx6j20YvRHiYVJsAIgdkMDZBxQo4vQVVErIysjKyMrIysjKuD2rC7LYqJLyMrIysjKyMrIyuti72R3QMpXmf/Da5Dis3mT+t/FZ/wA95O1XA/is7V3s1vAZ2kgrSQVpIK0kFaSCtJBWkgrSQVpIK0kFaSCtJBWkgrSQVpIK0kFJaQUwbRM/zpf/xAAUEQEAAAAAAAAAAAAAAAAAAADA/9oACAEDAQE/ATlP/8QAFBEBAAAAAAAAAAAAAAAAAAAAwP/aAAgBAgEBPwE5T//EADYQAAECAQgJAQcFAQAAAAAAAAEAAhEDEiExMjNRkRATICIwQVBgoXFAQlJhcoGxBCNikqCC/9oACAEBAAY/Av8APKXuMAFPa8tHIKY/dlPz2XMZdt86RJy9Xxdk6iTNPvHYDGVlNZXNEOxJ7vsMVZZDBUUO+FUW3VKJ0wCi68dX2IXuMAFONXIaItMCFPeYnY18oPpHYurYdxvnbnOu2+exdRJmk2uABI0Q5diUWzUomkngT2GBTZTGvsIvdUEXu4MBWmsNdZ7BialRYbVwtfKCn3R2FqJM0e8eFPeNxvnsKYw77vHCawumx5oMaIAdgzzXyCL3GJPDmuts7AL3GACnGrkOIB8Q7A1bDuN88USjawotr5jrx1Q+r044ewwIURQ4Vjrs18oAVrZCE45FTXCBG2GMESVNe0tOiAQ1jC2OOkPb9xig9tR62X86gi5xiSsWc2qc072PMKa8ehx2YBU23VqDgCPmrlq3GNb6BTHhTHfY46dS6p1Xr1uZGBrBU14honsMCtXKATsFObvSf42NfKCn3RtTfeFkqBrGiITZTGvrcx4iFG0zHRELV/qP7LWfp/6qlT33bfPAEqKnV+ul8l9x1yBpCMpIVfDp1BMWwo+SnWXYhBjRADgPHMUjSz50dens3X/lTHNIdgp77x3jhubgdDXYHsuV+rSPTsqV+rSOySTyRdidDG4nqjWSZgXc1ePzV4/NXj81ePzV4/NXj81ePzV4/NXj81ePzV4/NXj80ZJ5nUREeC7F1Glv8aeqSfpxf+TwZosso0ulT71A6oCy01XflXflXflXflTpRkBsREnR6hXflXflXflGUlLVQHAmNO+7xpDG1lNYKgOsuk3VFFjqxp1cpY5HBRHCxeagi95iTp17h9PW57LbfOxC0zBRY77bcSpsjvOx5Kc4xJ0/wFZUBUOuGWkhvcxjsRBgVB8Hj5reDmq9Cvm5q3H0C/ak/u5b76MNiDauZQYwUDr0+T3X/lTXtgeJOdus/KmMEB2BCUbFRkjPGHNQcCD8+BusoxKnP33eOxIPYHeqdKsiCOUdmY4kCHJUScTiaewaTBW25q23NW25q23NW25p8HDlz2aTDdVtuattzVtuattzVtuatDPrbn/CIoveYn2J0m8xm1HrUr9J9jlPQdae0Vlp9jlHcqutziC0/JWnq09Wnq09Wnq09Wnq09Wnq09Wnq09Wnq09Wnq09VvzUxggB/nT//EACsQAQABAgMGBgMBAQAAAAAAAAERACExQfEQMFFgYdEgUHGBkfChscFAoP/aAAgBAQABPyH/AJ5YDTlphN1lsFRcP4PRyVgS1fy58uOzClmZwHD60IBGR5Iit4wsungK6fwVeuwlx5EWXHDiKxHtDULs8VQQucLw60jJK3V2ggErgUUd+h05EiBOVpTaNuEbC7MAlOlvn4IovM798i51LHi8awdy/VwoAILByJI2FcZHDcW5hu8TkTBRsn+05dRKu4GJPMoYyEWcHkJZ+hxeFJndwOBw3IIJVgK7qM5BRJAurUYcYXj13UReMbLryFMWjAzeG6zeXy4VhyDk8vhxrHciWBxKoTTgOQWN3BxmpXTld2krNheJk8gQAnK0xtG3CN42QoP75AzrV3j3oeCuDUmoOLiefACecRif4HRX6/D896RxxipWi5BS4Xjh3AmXqZjZAhVyKwUCSG3Iq9hTLyc+dlAS7PWkgKlWoWXsT+VYYGA+BrDSyMPCQglbAUEpnG8OldBFCaUS/DsvBVKHBzKaXDHgNtzP1vOzpwHoGrm7Jydh5Yfmo9yxefUphn4mfq8EUvGNl18STBc4DTk4SE2ISQjI0ObD5Z+dtf2wqGbuBy9diAiJglEDF7DwfWiCXV7aRSCExGrOXPlwrCx44R5O0xF+1/554iATEaWBnE5z0rDZFKdMqLe7LH1qA04Nxamx7xtl+Sn7+fTcP4fVSfpwqzlj4cN0kkOddZ82dOB8/gmY3ghdW1SvEclSTr2mHwDkk8BCWnexR2dIM/PmijJqjGK17Wva17Wva17Wva17Wva17Wva17WvaUOLjEbmEDk/7tnmQX5p+S3uFuS8M2XVz2x8uvYPNFUDCHMr7zX1mvrNfWaxnGJkfAHIokSr6zX1mvrNRZiIDMbgMNdujjtKyVgrIjXnOHAxRnwvztlD3/T0oAQRwTdXVFDkoK7tjOOt3ed2ctfDhSQw7Xp+vy9KiKXNYnjBEAM2hmP4LvTN+OXbfUmjUZOAgDzz2pP8isNp1wYI1Fh7I/NY5PpJWFn62pKthT6UrL90/lK3ngWPBG6D6ZUaT8nn0pFm8Kt2Hk7x8l4+foo0M+QIdOBzKnOuVqJyrIRuHrx6IqP93LPbkSKK6KKmMzDHw33gaXUuQRDyXqa05WnK05WnK05R6tyHUeGdEJXWtOVpytOVpytOUMgd6edhYJEorNPx/iSgoycPOvquHJrLioB8Vgw/4pUeSXXztew4ria187Vr52rXztWvnatfO1a+dq187Vr52rXztWvnatfO1a+dq187Vr52rXztWvnagsrdIdqKBwwf86f/2gAMAwEAAgADAAAAEAAAAAAAAAAAAAAAAAAAAAAAAAAAAAAAAAAAAAAAAAAAAAAAAAAAAAAAAAAAAAAAAAAAAAAAAAAAAAAAAAAAAAAAAAAAAAAAAAAAAAAAAAAAAAAAAAAAAAAAAAAAAAAAAAAAAAAAAAAAAAAAAAAAAAAAAAAAAAAAAAAAAAAAAAAAAAAAAAAAAAAAAAAAAAAAAAAAAAAAAAAAAAAAAAAAAAAAAAAAAAAAAAAAAAAAAAAAAAAAAAAAAAAAAAAAAAAAAAAAAAAAAAAAAAAAAAAAAAAAAAAAAAAAAAAAAAAAAAAAAAAAAAAAAAAAAAAAAAAAAAAAAAAAAAAAAAAAAAAAAAAAAAAAAAAAAAAAAAAAAAAAAAAAAAAAAAAAAAAAAAAAAAAAAAAAAAAAAAAAAAAAAAAAAAAAAAAAAAAAAAAAAAAAAAAAAAAAAAAAAAAAAAAAAAAAAAAAAAAAAAAAAAAAAAAAAAAAAAAAAAAAAAAAAAAAAAAAAAAAAAAAAAAAAAAAAAAAAAAAAAAAAAAAAAAAAAAAAAAAAAAAAAAAAAAAAAAAAAAAAAAAAAAAAAAAAAAAAAAAAAAAAAAAAAAAAAAAAAAAAAAAAAAAAAAAAAAAAAAAAAAAAAAAAAAAAAAAAAAAAAAAAAAAAAAAAAAAAAAAAAAAAAAAAAAAAAAAAAAAAAAAAAAAAAAAAAAAAAAAAAAAAAAAAAAAAAAAAAAAAAAAAAAAAAAAAAAAAAAAAAAAAAAAAAAAAAABFAAAAAAAAAAAAAAAAAAAAAAAAAAAAAAAAAAAABJtAAAAAAAAAAAAAAAAAAAAAAAAAAAAAAAAAAAABtsAAAAAAAAAAAAAAAAAAAAAAAAAAAAAAAAABBBtkAAAAAAAAAAAAAAAAAAAAAAAAAAAAAAAAAAFtttAAAAAAAAAAAAAAAAAAAAAAAAAAAAAAAAABJttsoAAAAAAAAAAAAAAAAAAAAAAAAAAAAAAAAAJtttgAAAAAAAAAAAAAAAAAAAAAAAAAAAAAAAAAAtttsoAAAAAAAAAAAAAAAAAAAAAAAAAAAAAAAAJttttsAAAAAAAAAAAAAAAAAAAAAAAAAAAAAAAAJtttttAAAAAAAAAAAAAAAAAAAAAAAAAAAAAAAAANtttsoAAAAAAAAAAAAAAAAAAAAAAAAAAAAAAAANtttsoAAAAAAAAAAAAAAAAAAAAAAAAAAAAAAAANttttsAAAAAAAAAAAAAAAAAAAAAAAAAAAAAAABNtttttkAAAAAAAAAAAAAAAAAAAAAAAAAAAAAABBttttttgAAAAAAAAAAAAAAAAAAAAAAAAAAAAAABttttttsgAAAAAAAAAAAAAAAAAAAAAAAAAAAAAAAtttstttoAAAAAAAAAAAAAAAAAAAAAAAAAAAAAFpttsIIFsAAAAAAAAAAAAAAAAAAAAAAAAAAAAABsottAABFsAAAAAAAAAAAAAAAAAAAAAAAAAAAAABtgFoAABNoAAAAAAAAAAAAAAAAAAAAAAAAAAAAAJNgIAAAJtgAAAAAAAAAAAAAAAAAAAAAAAAAAAAAANAAAAAFlAAAAAAAAAAAAAAAAAAAAAAAAAAAAAAAAAAAAAtgAAAAAAAAAAAAAAAAAAAAAAAAAAAAAAAAAAAAFtAAAAAAAAAAAAAAAAAAAAAAAAAAAAAAAAAAAAAsoAAAAAAAAAAAAAAAAAAAAAAAABMkkkkkoAAABNkAAAAAAAAAAAAAAAAAAAAAAAAABtttttsAAAAFsAAAAAAAAAAAAAAAAAAAAAAAAABNJFtlJgAAAJtoAAAAAAAAAAAAAAAAAAAAAAAAAAAANsAAAAAItgAAAAAAAAAAAAAAAAAAAAAAAAAAAABFtoAAABtlAAAAAAAAAAAAAAAAAAAAAAAAAAAAABNsoJINttAAAAAAAAAAAAAAAAAAAAAAAAAAAAAABNtttttlAAAAAAAAAAAAAAAAAAAAAAAAAAAAAAABAtttthAAAAAAAAAAAAAAAAAAAAAAAAAAAAAAAAAINttIAAAAAAAAAAAAAAAAAAAAAAAAAAAAAAAAAABtsgAAAAAAAAAAAAAAAAAAAAAAAAAAAAAAAAttttttttsAAAAAAAAAAAAAAAAAAAAAAAAAAAABNttttttttoAAAAAAAAAAAAAAAAAAAAAAAAAAAAAttttttttsAAAAAAAAAAAAAAAAAAAAAAAAAAAAAAAAAAAAAAIAAAAAAAAAAAAAAAAAAAAAAAAAAAAAAAAAAAAAAAAAAAAAAAAAAAAAAAAAAAAAAAAAAAAAAAAAAAAAAAAAAAAAAAAAAAAAAAAAAAAAAAAAAAAAAAAAAAAAAAAAAAAAAAAAAAAAAAAAAAAAAAAAAAAAAAAAAAAAAAAAAAAAAAAAAAAAAAAAAAAAAAAAAAAAAAAAAAAAAAAAAAAAAAAAAAAAAAAAAAAAAAAAAAAAAAAAAAAAAAAAAAAAAAAAAAAAAAAAAAAAAAAAAAAAAAAAAAAAAAAAAAAAAAAAAAAAAAAAAAAAAAAAAAAAAAAAAAAAAAAAAAAAAAAAAAAAAAAAAAAAAAAAAAAAAAAAAAAAAAAAAAAAAAAAAAAAAAAAAAAAAAAAAAAAAAAAAAAAAAAAAAAAAAAAAAAAAAAAAAAAAAAAAAAAAAAAAAAAAAAAAAAAAAAAAAAAAAAAAAAAAAAAAAAAAAAAAAAAAAAAAAAAAAAAAAAAAAAAAAAAAAAAAAAAAAAAAAAAAAAAAAAAAAAAAAAAAAAAAAAAAAAAAAAAAAAAAAAAAAAAAAAAAAAAAAAAAAAAAAAAAAAAAAAAAAAAAAAAAAAAAAAAAAAAAAAAAAAAAAAAAAAAAAAAAAAAAAAAAAAAAAAAAAAAAAAAAAAAAAAAAAAAAAAAAAAAAAAAAAAAAAAAAAAAAAAAAAAAAAAAAAAAAAAAAAAAAAAAAAAAAAAAAAAAAAAAAAAAAAAAAAAB//xAAUEQEAAAAAAAAAAAAAAAAAAADA/9oACAEDAQE/EDlP/8QAFBEBAAAAAAAAAAAAAAAAAAAAwP/aAAgBAgEBPxA5T//EACwQAQABAQYDCQEAAwAAAAAAAAERACExQVFh8HGBwRAgMFBgkaGx0UCg4fH/2gAIAQEAAT8Q/wAeUq0gdDWjxDk4CXOs0VhEEx0zp6KURAAlXCnntyTcMuwVCKJaJhUmN8rXRmNaMsCRGRPRFwwWi5l1ce5IlcaDFdCjAYlN8CJ9CWyGw2HI4Zta2eA4zUkY0tt4jiVBcJMji+H3SRXqEquPa+BUASrUKCAvLgeuvoQXCCsqnfvj3Lj2MdaVwjQswBVlhph3ItuLhcZ+nvl6EWCW6kfFQNh48DD378yOK+06/wC6BAAgC4PQmcBNffZx0498iSZjGKVMGL94rnLjj6ESKDcnmtCkMgUlVvfAb2NiX6OZRLEYGBY+gowwWC/CGrUo5YC7CHgufaASq3FMmNoC4TMcrvQJvyqEAF7U6Ck+UtX68K4I7Bc63D0FeAds5HQx18JZBfB3DOgAAAFgHoEYJdE3nKlUqqtqvgh0iliD9y1oa0APt19Aw2Jebfyzpc0gPrh4QoyWJS6wh1/3FkPD0AYhBWBUjl/e5cfEJDY9wIfXn6wS1MYADYOPAw9/FfYJBsRIT2as6rbrXqa+fNGMxOsg1x08d6zLEuTJMShccAmteZo4eelFK+KuKBjnTcuW04pk/FI8iBwj38MCC4DFXAp8IYGx4Nzy7AC2gCV5U8ErpJN4dqLzcksxBqzrgzMx1LvOxTKyLljfoQtOUFeytEVWSizjkaAEBAoXIxNlN4KzRaPTupXeASq3FQWCHIYDh90reLwD2atrWkD2KvBMwF51hXMXuY4NFPgMszP07US28zeRz+487ghRCmDPS1pq/ALRzHHsvWaRcMkxKZla12LN2lWqCunJ/XcuGWQXOtw7zPCUz2ODc0h1hV4l52PcGBeJc0KIsIMDYPfzswbXOLmODS+R1it0DB1u7EwtKIRqQEEByP370Yi0hNjr+fbKnqOgEI0s9vQ7hnQAAALAMO+EH3bgMeZ9Pa+FWF8eeBlxgEiZJUkOutTMaX0ikREvHsbeAQLCbHLShMoUwDkMeNFWgDq6+AAUvkh8knPtaahepCD5jz4ol/WI6Z1oEAYlaeGfKhz6h3HPwgYJBCV/xw1OxwmE3kjQyCY+fLBBS5i7xBEun92e2TsR8eijFuh9mOnYEoGNaIr49EtBDEyAmr0hPFZ7FDJ+XBVxHmZcUuMEWDhM36Usy7rWtlda2V1rZXWtlda2V1rZXWtlda2V1rZXWtlda2V1pq/a0oRJOJD8eCEKWfo/ifftdYnlgQfKeabHmeLtGngklvSF2K6cu1I0ljzPn680minJga8nBspk2fmt39a3f1rd/WhaWENseD3CVKQhG5vrd/Wt39a3f1pqWNhFiVTGzwENohBtxPx/qr2XsjeOWrQL2IuebzbfORhmWcRwTUbasTiOQwTRO1GdS0tU7cKDC0okTM8JFISxbXVyKQbJJ9Gna0KJTTDHoOfndh27BuOVIgIjCOHaUnRtS3WsOF1FRgwXHOt3fDC0qQBWCKl/Dm+ONMqiVyvaUCmOdo1aASQJABceeLqMb/o0x43opERLx7VR5KwnMo8JY/RdRoIMXT84t+KHnm37FAy8mX1QbImLfKBRQonDon7Si30lk8jr3BrHipY9XSomWvxWKuK+fMTbaLuNk6+9X3rR+TM18Q9r3MsNHX7q5ciGLmuL6AgNTR4LhS+IVgHR3ZV7iBiOT4AZY6Lzx5TTbQrSwTTFz9qACAgPQeVYAWODhTLlgJMgxtxz7pKYawliLLeNLA5qvmw5FABAQHoA0Gbkj7raXWtpda2l1raXWtpdaSM7AFe7B4kYQYZ1tLrW0utbS61tLrW0utGXy4BXzuVwIZwTTwBkFsGQYH8IoyMNT2HIlXNi6R8+db3m/j2TN86B6DWaoKRQERhHD+IKUMLMJX7PfztykyUHmiJP8IQIECBAgQIECBAgQIECBQ42qB9qFLLYxf8AHT//2Q==;" parent="1" vertex="1">
          <mxGeometry x="439" y="150" width="51" height="51" as="geometry" />
        </mxCell>
        <mxCell id="mzBB7SvwG0IbSalPoIVl-68" value="&lt;font style=&quot;font-size: 16px&quot; face=&quot;Georgia&quot;&gt;&lt;b&gt;Image&lt;/b&gt;&lt;/font&gt;" style="text;html=1;align=center;verticalAlign=middle;resizable=0;points=[];autosize=1;" parent="1" vertex="1">
          <mxGeometry x="480" y="165.5" width="70" height="20" as="geometry" />
        </mxCell>
        <mxCell id="mzBB7SvwG0IbSalPoIVl-71" value="&lt;font style=&quot;font-size: 12px&quot;&gt;Humidity Sensor&lt;/font&gt;" style="text;strokeColor=none;fillColor=none;html=1;fontSize=24;fontStyle=1;verticalAlign=middle;align=center;" parent="1" vertex="1">
          <mxGeometry x="350" y="510" width="100" height="40" as="geometry" />
        </mxCell>
        <mxCell id="mzBB7SvwG0IbSalPoIVl-72" value="&lt;font style=&quot;font-size: 12px&quot;&gt;Humidity Sensor&lt;/font&gt;" style="text;strokeColor=none;fillColor=none;html=1;fontSize=24;fontStyle=1;verticalAlign=middle;align=center;" parent="1" vertex="1">
          <mxGeometry x="870" y="510" width="100" height="40" as="geometry" />
        </mxCell>
        <mxCell id="mzBB7SvwG0IbSalPoIVl-73" value="&lt;b&gt;&lt;font style=&quot;font-size: 16px&quot; face=&quot;Georgia&quot;&gt;Remove and measure the water from the control layer &lt;/font&gt;&lt;/b&gt;" style="text;html=1;align=center;verticalAlign=middle;resizable=0;points=[];autosize=1;" parent="1" vertex="1">
          <mxGeometry x="485" y="830" width="460" height="20" as="geometry" />
        </mxCell>
        <mxCell id="mzBB7SvwG0IbSalPoIVl-93" value="" style="edgeStyle=orthogonalEdgeStyle;rounded=0;orthogonalLoop=1;jettySize=auto;html=1;entryX=0;entryY=0;entryDx=160;entryDy=10;entryPerimeter=0;" parent="1" source="mzBB7SvwG0IbSalPoIVl-75" target="mzBB7SvwG0IbSalPoIVl-78" edge="1">
          <mxGeometry relative="1" as="geometry">
            <mxPoint x="1060" y="120" as="targetPoint" />
            <Array as="points">
              <mxPoint x="1250" y="830" />
              <mxPoint x="1250" y="120" />
            </Array>
          </mxGeometry>
        </mxCell>
        <mxCell id="mzBB7SvwG0IbSalPoIVl-102" value="&lt;b&gt;&lt;font style=&quot;font-size: 12px&quot; face=&quot;Georgia&quot;&gt;N times&lt;/font&gt;&lt;/b&gt;" style="edgeLabel;html=1;align=center;verticalAlign=middle;resizable=0;points=[];" parent="mzBB7SvwG0IbSalPoIVl-93" vertex="1" connectable="0">
          <mxGeometry x="0.3499" y="1" relative="1" as="geometry">
            <mxPoint y="167.14" as="offset" />
          </mxGeometry>
        </mxCell>
        <mxCell id="mzBB7SvwG0IbSalPoIVl-75" value="&lt;b&gt;&lt;font style=&quot;font-size: 16px&quot; face=&quot;Georgia&quot;&gt;Weigh the chip using a precise laboratory-level balance &lt;/font&gt;&lt;/b&gt;" style="text;html=1;align=center;verticalAlign=middle;resizable=0;points=[];autosize=1;" parent="1" vertex="1">
          <mxGeometry x="480" y="810" width="470" height="20" as="geometry" />
        </mxCell>
        <mxCell id="mzBB7SvwG0IbSalPoIVl-76" value="&lt;b&gt;&lt;font style=&quot;font-size: 16px&quot; face=&quot;Georgia&quot;&gt;Weigh the chip using a precise laboratory-level balance &lt;/font&gt;&lt;/b&gt;" style="text;html=1;align=center;verticalAlign=middle;resizable=0;points=[];autosize=1;" parent="1" vertex="1">
          <mxGeometry x="190" y="370" width="470" height="20" as="geometry" />
        </mxCell>
        <mxCell id="mzBB7SvwG0IbSalPoIVl-78" value="" style="shape=cube;whiteSpace=wrap;html=1;boundedLbl=1;backgroundOutline=1;darkOpacity=0.05;darkOpacity2=0.1;direction=east;" parent="1" vertex="1">
          <mxGeometry x="860" y="110" width="170" height="20" as="geometry" />
        </mxCell>
        <mxCell id="mzBB7SvwG0IbSalPoIVl-79" value="" style="edgeStyle=orthogonalEdgeStyle;rounded=0;orthogonalLoop=1;jettySize=auto;html=1;" parent="1" source="mzBB7SvwG0IbSalPoIVl-80" target="mzBB7SvwG0IbSalPoIVl-82" edge="1">
          <mxGeometry relative="1" as="geometry">
            <Array as="points">
              <mxPoint x="955" y="150" />
              <mxPoint x="955" y="150" />
            </Array>
          </mxGeometry>
        </mxCell>
        <mxCell id="mzBB7SvwG0IbSalPoIVl-80" value="" style="shape=cube;whiteSpace=wrap;html=1;boundedLbl=1;backgroundOutline=1;darkOpacity=0.05;darkOpacity2=0.1;direction=east;fillColor=#f5f5f5;strokeColor=#666666;fontColor=#333333;" parent="1" vertex="1">
          <mxGeometry x="900" y="100" width="90" height="30" as="geometry" />
        </mxCell>
        <mxCell id="mzBB7SvwG0IbSalPoIVl-81" value="" style="shape=cube;whiteSpace=wrap;html=1;boundedLbl=1;backgroundOutline=1;darkOpacity=0.05;darkOpacity2=0.1;direction=east;" parent="1" vertex="1">
          <mxGeometry x="870" y="230" width="170" height="20" as="geometry" />
        </mxCell>
        <mxCell id="mzBB7SvwG0IbSalPoIVl-82" value="" style="shape=cube;whiteSpace=wrap;html=1;boundedLbl=1;backgroundOutline=1;darkOpacity=0.05;darkOpacity2=0.1;direction=east;fillColor=#f5f5f5;strokeColor=#666666;fontColor=#333333;" parent="1" vertex="1">
          <mxGeometry x="910" y="220" width="90" height="30" as="geometry" />
        </mxCell>
        <mxCell id="mzBB7SvwG0IbSalPoIVl-83" value="" style="endArrow=none;html=1;fillColor=#76608a;strokeColor=#432D57;" parent="1" edge="1">
          <mxGeometry width="50" height="50" relative="1" as="geometry">
            <mxPoint x="940" y="225" as="sourcePoint" />
            <mxPoint x="980" y="225" as="targetPoint" />
          </mxGeometry>
        </mxCell>
        <mxCell id="mzBB7SvwG0IbSalPoIVl-84" value="" style="endArrow=none;html=1;fillColor=#76608a;strokeColor=#432D57;" parent="1" edge="1">
          <mxGeometry width="50" height="50" relative="1" as="geometry">
            <mxPoint x="940" y="235" as="sourcePoint" />
            <mxPoint x="980" y="235" as="targetPoint" />
          </mxGeometry>
        </mxCell>
        <mxCell id="mzBB7SvwG0IbSalPoIVl-85" value="" style="endArrow=none;html=1;fillColor=#76608a;strokeColor=#432D57;" parent="1" edge="1">
          <mxGeometry width="50" height="50" relative="1" as="geometry">
            <mxPoint x="940" y="235" as="sourcePoint" />
            <mxPoint x="940" y="225" as="targetPoint" />
          </mxGeometry>
        </mxCell>
        <mxCell id="mzBB7SvwG0IbSalPoIVl-86" value="" style="endArrow=none;html=1;fillColor=#76608a;strokeColor=#432D57;" parent="1" edge="1">
          <mxGeometry width="50" height="50" relative="1" as="geometry">
            <mxPoint x="930" y="235" as="sourcePoint" />
            <mxPoint x="940" y="235" as="targetPoint" />
            <Array as="points">
              <mxPoint x="930" y="235" />
            </Array>
          </mxGeometry>
        </mxCell>
        <mxCell id="mzBB7SvwG0IbSalPoIVl-87" value="" style="shape=image;verticalLabelPosition=bottom;labelBackgroundColor=#ffffff;verticalAlign=top;aspect=fixed;imageAspect=0;image=data:image/jpeg,/9j/4AAQSkZJRgABAQEBLAEsAAD/4QC7RXhpZgAASUkqAAgAAAABAA4BAgCZAAAAGgAAAAAAAABNaWNyb3Njb3BlIGljb24uIE1lZGljYWwgZGlhZ25vc3RpY3MsIGxhYm9yYXRvcnksIHJlc2VhcmNoLCBlZHVjYXRpb24sIHN0dWR5LiBWZWN0b3IgaWxsdXN0cmF0aW9uLiBFcXVpcG1lbnQgZm9yIG1lZGljYWwgcmVzZWFyY2gsIGxhYm9yYXRvcmllcy4gSXNvbGF0ZWT/4QVEaHR0cDovL25zLmFkb2JlLmNvbS94YXAvMS4wLwAJPHJkZjpSREYgeG1sbnM6cmRmPSJodHRwOi8vd3d3LnczLm9yZy8xOTk5LzAyLzIyLXJkZi1zeW50YXgtbnMjIj4KCQk8cmRmOkRlc2NyaXB0aW9uIHJkZjphYm91dD0iIiB4bWxuczpwaG90b3Nob3A9Imh0dHA6Ly9ucy5hZG9iZS5jb20vcGhvdG9zaG9wLzEuMC8iIHhtbG5zOklwdGM0eG1wQ29yZT0iaHR0cDovL2lwdGMub3JnL3N0ZC9JcHRjNHhtcENvcmUvMS4wL3htbG5zLyIgICB4bWxuczpHZXR0eUltYWdlc0dJRlQ9Imh0dHA6Ly94bXAuZ2V0dHlpbWFnZXMuY29tL2dpZnQvMS4wLyIgeG1sbnM6ZGM9Imh0dHA6Ly9wdXJsLm9yZy9kYy9lbGVtZW50cy8xLjEvIiB4bWxuczpwbHVzPSJodHRwOi8vbnMudXNlcGx1cy5vcmcvbGRmL3htcC8xLjAvIiAgeG1sbnM6aXB0Y0V4dD0iaHR0cDovL2lwdGMub3JnL3N0ZC9JcHRjNHhtcEV4dC8yMDA4LTAyLTI5LyIgeG1sbnM6eG1wUmlnaHRzPSJodHRwOi8vbnMuYWRvYmUuY29tL3hhcC8xLjAvcmlnaHRzLyIgcGhvdG9zaG9wOkNyZWRpdD0iR2V0dHkgSW1hZ2VzL2lTdG9ja3Bob3RvIiBHZXR0eUltYWdlc0dJRlQ6QXNzZXRJRD0iOTAzNTA5NDk4IiB4bXBSaWdodHM6V2ViU3RhdGVtZW50PSJodHRwczovL3d3dy5pc3RvY2twaG90by5jb20vbGVnYWwvbGljZW5zZS1hZ3JlZW1lbnQ/dXRtX21lZGl1bT1vcmdhbmljJmFtcDt1dG1fc291cmNlPWdvb2dsZSZhbXA7dXRtX2NhbXBhaWduPWlwdGN1cmwiID4KPGRjOmNyZWF0b3I+PHJkZjpTZXE+PHJkZjpsaT5TaGFtcyBTdWxleW1hbm92YTwvcmRmOmxpPjwvcmRmOlNlcT48L2RjOmNyZWF0b3I+PGRjOmRlc2NyaXB0aW9uPjxyZGY6QWx0PjxyZGY6bGkgeG1sOmxhbmc9IngtZGVmYXVsdCI+TWljcm9zY29wZSBpY29uLiBNZWRpY2FsIGRpYWdub3N0aWNzLCBsYWJvcmF0b3J5LCByZXNlYXJjaCwgZWR1Y2F0aW9uLCBzdHVkeS4gVmVjdG9yIGlsbHVzdHJhdGlvbi4gRXF1aXBtZW50IGZvciBtZWRpY2FsIHJlc2VhcmNoLCBsYWJvcmF0b3JpZXMuIElzb2xhdGVkPC9yZGY6bGk+PC9yZGY6QWx0PjwvZGM6ZGVzY3JpcHRpb24+CjxwbHVzOkxpY2Vuc29yPjxyZGY6U2VxPjxyZGY6bGkgcmRmOnBhcnNlVHlwZT0nUmVzb3VyY2UnPjxwbHVzOkxpY2Vuc29yVVJMPmh0dHBzOi8vd3d3LmlzdG9ja3Bob3RvLmNvbS9waG90by9saWNlbnNlLWdtOTAzNTA5NDk4LT91dG1fbWVkaXVtPW9yZ2FuaWMmYW1wO3V0bV9zb3VyY2U9Z29vZ2xlJmFtcDt1dG1fY2FtcGFpZ249aXB0Y3VybDwvcGx1czpMaWNlbnNvclVSTD48L3JkZjpsaT48L3JkZjpTZXE+PC9wbHVzOkxpY2Vuc29yPgoJCTwvcmRmOkRlc2NyaXB0aW9uPgoJPC9yZGY6UkRGPgr/7QDuUGhvdG9zaG9wIDMuMAA4QklNBAQAAAAAANEcAlAAEVNoYW1zIFN1bGV5bWFub3ZhHAJ4AJlNaWNyb3Njb3BlIGljb24uIE1lZGljYWwgZGlhZ25vc3RpY3MsIGxhYm9yYXRvcnksIHJlc2VhcmNoLCBlZHVjYXRpb24sIHN0dWR5LiBWZWN0b3IgaWxsdXN0cmF0aW9uLiBFcXVpcG1lbnQgZm9yIG1lZGljYWwgcmVzZWFyY2gsIGxhYm9yYXRvcmllcy4gSXNvbGF0ZWQcAm4AGEdldHR5IEltYWdlcy9pU3RvY2twaG90bwD/2wBDAAoHBwgHBgoICAgLCgoLDhgQDg0NDh0VFhEYIx8lJCIfIiEmKzcvJik0KSEiMEExNDk7Pj4+JS5ESUM8SDc9Pjv/2wBDAQoLCw4NDhwQEBw7KCIoOzs7Ozs7Ozs7Ozs7Ozs7Ozs7Ozs7Ozs7Ozs7Ozs7Ozs7Ozs7Ozs7Ozs7Ozs7Ozs7Ozv/wgARCAJkAmQDAREAAhEBAxEB/8QAGwABAAIDAQEAAAAAAAAAAAAAAAUGAQMEAgf/xAAUAQEAAAAAAAAAAAAAAAAAAAAA/9oADAMBAAIQAxAAAAG5gAAAAAAAAAAAAAAAAAAAAAAAAAAAAAAAAAAAAAAAAAAAAAAAAAAAAAAAAAAAAAAAAAAAAAAAAAAAAAAAAAAAAAAAAAAAAAAAAAAAAAAAAAAAAAAAAAAAAAAAAAAAAAAAAAAAAAAAAAAAAAAAAAAAAAAAAAAAAAAAAAAAAAAAAAAAAAAAAAAAAAAAAAAAAAAAAAAAAAAAAAAAAAAAAAAAAAAAAAAAAAAAAAAAAAAAAAAAAAAAAAAAAAAAAAAAAAAAAAAAAAAAAAAAAAAAAAAAAAAAAAAAAAAAAAAAAAAAAAAAAAAAAAAAAAAAAAAAAAAAAAAAAAAAAAAAAAAAAAAAAAAAAAAAAAAAAAAAAAAAAAAAAAAAAAAAAAAAAAAAAAAAAAAAAAAAAAAAAAAAAAAAAAAAAAAAAAAAAAAAAAAAAAAAAAAAAAAAAAAAAAAAAAAAAAAAAAAAAAAAAAAAAAAAAAAAAAAAAAAAAAAAAAAAAAAAAAAAAAAAAAAAAAAAAAAAAAAAAAAAAAAAAAAAAAAAAAAAAAAAAAAAAAAAAAAAAAAAAAAAAAAAAAAAAAAAAAAAAAAAAAAAAAAAAAAAAAAAAAAAAAAAAAAAAAAAAAAAAAAAAAAAAAAAAAAAAAAAAAAAAAAAAAAAAAAAAAAAAAAAAAAAAAAAAAAAAAAAAAAAAAAAAAAAAAAAAAAAAAAAAAAAAAAAAAAAAAAAAAAAAAAAAAAAAAAAAAAAAAAAAAAAAAAAAAAAAAGopRYSZAAAAAAAAAAAAAAAAAAAAAAAAAAAAAAAAAAAAMFLIcFjLSZAAAAAAAAAAAAAAAAAAAAAAAAAAAAAAAAAAAK2VYA3H0I2gAAAAAAAAAAAAAAAAAAAAAAAAAAAAAAAAHGVsnzwUcwDJdyVAAAAAAAAAAAAAAAAAAAAAAAAAAAAAAAAANZQziPR7NQBZyzAAAAAAAAAAAAAAAAAAAAAAAAAAAAAAAAAGCmkKAACXLqZAAAAAAAAAAAAAAAAAAAAAAAAAAAAAAAAAK6VQAAAvpIAAAAAAAAAAAAAAAAAAAAAAAAAAAAAAAAAEaUY8gAAG0vp1gAAAAAAAAAAAAAAAAAAAAAAAAAAAAAAAHOUI5wAAAZL8dwAAAAAAAAAAAAAAAAAAAAAAAAAAAAAAAPJRyMAAAALSWQAAAAAAAAAAAAAAAAAAAAAAAAAAAAAAAAqpXAAAACZLmZAAAAAAAAAAAAAAAAAAAAAAAAAAAAAAABDFLAAAAOg+gG0AAAAAAAAAAAAAAAAAAAAAAAAAAAAAAAHGUI1gAAAAuxLgAAAAAAAAAAAAAAAAAAAAAAAAAAAAAAGsoZxAAAAAEwXUAAAAAAAAAAAAAAAAAAAAAAAAAAAAAAGCnEIAAAAADeXk7QAAAAAAAAAAAAAAAAAAAAAAAAAAAAACLKMAAAAAADcXk7gAAAAAAAAAAAAAAAAAAAAAAAAAAAAAcZGFUPAAANwNJk2mkHSX43AAAAAAAAAAAAAAAAAAAAAAAAAAAAA4ShncWQqhygAyXgkTkN5gopyAny3AAAAAAAAAAAAAAAAAAAAAAAAAAAAA4ijnOby2EGRABaSyAAHAUM8mT6EdQAAAAAAAAAAAAAAAAAAAAAAAAAAAANBTCMMlnMFZJcuhkAAFRIAFmLOAAAAAAAAAAAAAAAAAAAAAAAAAAAAAeSrlcBYiXO82gAAEeUIEiXwAAAAAAAAAAAAAAAAAAAAAAAAAAAAAAhioFvJkAAAAwfODUbD6QZAAAAAAAAAAAAAAAAAAAAAAAAAAAAAAMGQAAAAD5+cQPpR7AAAAAAAAAAAAAAAAAAAAAAAAAAAAAAAAAAAAPnxxg+lHsAAAAAAAAAAAAAAAAAAAAAAAAAAAAAAAAAAAHk+bng3H0YyAAAAAAAAAAAAAAAAAAAAAAAACBKuAAAAACfLOAAACKKOCVLwAAAAAAAAAAAAAAAAAAAAAAAAAVUrgAAAAAJkugAAAKUQ4LYWEAAAAAAAAAAAAAAAAAAAAAAAAAiCuAA0nEASRkAnCeAAAIcpQNh9DNwAAAAAAAAAAAAAAAAAAAAAAAAAAANJ8+NIJ0t5kAAAAjikGoFoLKAAAAAAAAAAAAAAAAAAAAAAAAAAAACGKYYBKFuOsAAGCAKqeASReT0AAAAAAAAAAAAAAAAAAAAAAAAAAAAAV0qgB6JglzsPRoI4gzkAO0vJvAAAAAAAAAAAAAAAAAAAAAAAAAAAAAAIQqJrAAAAAJcuBuAAAAAAAAAAAAAAAAAAAAAAAAAAAAAAAOYrJCHgAAA7SzEyZAAAAAAAAAAAAAAAAAAAAAAAAAAAAAAAABpK+VgAHeW47zIAAAAAAAAAAAAAAAAAAAAAAAAAAAAAAB5PAABGlJABMFwAAMmwAAAAAAAAAAAAAAAAAAAAAAAAAAAAGs+emgAAAAAAAAt5PAAAAAAAAAAAAAAAAAAAAAAAAAAAAHKfPAAAAAAAAAWMtQAAAAAAAAAAAAAAAAAAAAAAAAAAABoPnRgAAAAAAAAsxZwAAAAAAAAAAAAAAAAAAAAAAAAAAAARZzAAAAAAAAyS5tAAAAAAAAAAAAAAAAAAAAAAAAAAAAAAAAAAAAAAAAAAAAAAAAAAAAAAAAAAAAAAAAAAAAAAAAAAAAAAAAAAAAAAAAAAAAAAAAAAAAAAAAAAAAAAAAAAAAAAAAAAAAAAAAAAAAAAAAAAAAAAAAAAAAAAAAAAAAAAAAAAAAAAAAAAAAAAAAAAAAAAAAAAAAAAAAAAAAAAAAAAAAAAAAAAAAAAAAAAAAAAAAAAAAAAAAAAAAAAAAAAAAAAAAAAAAAAAAAAAAAAAAAAAAAAAAAAAAAAAAAAAAAAAAAAAAAAAAAAAAAAAAAAAAAAAAAAAAAAAAAAAAAAAAAAAAAAAAAAAAAAAAAAAAAAAAAAAAAAAAAAAAAAAAAAAAAAAAAAAAAAAAAAAAAAAAAAAAAAAAAAAAAAAAAAAAAAAAAAAAAAAAAAAAAAAAAAAAAAAAAAAAAAAAAAAAAAAAAAAAAAAAAAAAAAAAAAAAAAAAAAAAAAAAAAAAAAAAAAAAAAAAAAAAAAAAAAAAAAAAAAAAAAAAAAAAAAAAAAAAAAAAAAAAAAAAAAAAAAAAAAAAAAAAAAAAAAAAAAAAAAAAAAAAAAAAAAAAAAAAAAAAAAAAAAAAAAAAAAAAAAAAAAAAAAAAAAAAAAAAAAAAAAAAAAAAAAAAAAAAAAAAAAAAAAAAAAAAAAAAAAAAAAAAAAAAAAAAAAAAAAAAAAAAAAAAAAAAAAAAAAAAAAAAAAAAAAAAAAAAAAAAB//8QAKhAAAQMDAgYBBQEBAAAAAAAAAwECBAAFExVQEBESIDBgFCExMjRAoDP/2gAIAQEAAQUC/wA8pCNEwk87zRLg0/pc+Xnfwh3LlX39IuUzl2CE4xBsxi9DkyGxhasfqizByUnS/jDVea8PusGJ8cfob3tGyVIdJLSOVqkI8r+Nth+i3CZmf3QInyCeiXKZ0J3wyBeD0ObKSMJVVy94yOE+MbOD0ExWgEczjl8CIqrDCoI3oCqiJNlLJL4bbD6U9BuUzqXw2+Jnf6DcJeBnhAPKYbGiZ6BJkNjCI9xH+K3Sc4d/e9o2SpLpJfHbH9Mzf7hMzP8AIEqhLGlMks324Kb43mGRwXxZLZI98JLAF0qAw6Oa5ju4QnmIQTxOpEVVIIguMc7o5RkaUe9S5HxgOcr3RZhIyvHHuIjxyR39iJzWDE+MNzWuT4UZaYEY6MFhxyI7oxeFrk9BN6lR0khMB4H0IrwvDJDOHLgPj9lth8u6XGSSFUVq0i8ljFzg3ooWHZLhPjLSLyWJckdUu286+1W+Jnf33UHQXhaC74qIqTLb08bZJfllQRyaGNomd80WWJwgP6Jm+y7e09PE9j7fEwM8RG9BKYvST0qZ9JfBn4eky15y+Dfo30hV6WuXqdQm9Ztzucl4W5i1mLWYtZi1mLWYtZi1mLWYtZi1mLWYtWyUR5PBcS4onC3M65m53j/p5LX+54LjIzSOFpFyHuc+IslmnSq06VWnSq06VRYhwt4pb5Kpp0qtOlVp0qoEFwHd9wl4B8GMUjxDQQt4KNDCKNwScIE7DSLzTwy5bIzCEcV/C1xuW93CJnZxiznxqDJFITuVeSSrm1lOe57uEOKskqIjU3ufA6+xFVqiuhmUy6gdSToy18yNTrlGbRLvRpJj9kaM+S8QmBHvsy3tPTxuG7xxYDz0MbBM38wBnae1kZTmq1e8MQx6j20YvRHiYVJsAIgdkMDZBxQo4vQVVErIysjKyMrIysjKuD2rC7LYqJLyMrIysjKyMrIyuti72R3QMpXmf/Da5Dis3mT+t/FZ/wA95O1XA/is7V3s1vAZ2kgrSQVpIK0kFaSCtJBWkgrSQVpIK0kFaSCtJBWkgrSQVpIK0kFJaQUwbRM/zpf/xAAUEQEAAAAAAAAAAAAAAAAAAADA/9oACAEDAQE/ATlP/8QAFBEBAAAAAAAAAAAAAAAAAAAAwP/aAAgBAgEBPwE5T//EADYQAAECAQgJAQcFAQAAAAAAAAEAAhEDEiExMjNRkRATICIwQVBgoXFAQlJhcoGxBCNikqCC/9oACAEBAAY/Av8APKXuMAFPa8tHIKY/dlPz2XMZdt86RJy9Xxdk6iTNPvHYDGVlNZXNEOxJ7vsMVZZDBUUO+FUW3VKJ0wCi68dX2IXuMAFONXIaItMCFPeYnY18oPpHYurYdxvnbnOu2+exdRJmk2uABI0Q5diUWzUomkngT2GBTZTGvsIvdUEXu4MBWmsNdZ7BialRYbVwtfKCn3R2FqJM0e8eFPeNxvnsKYw77vHCawumx5oMaIAdgzzXyCL3GJPDmuts7AL3GACnGrkOIB8Q7A1bDuN88USjawotr5jrx1Q+r044ewwIURQ4Vjrs18oAVrZCE45FTXCBG2GMESVNe0tOiAQ1jC2OOkPb9xig9tR62X86gi5xiSsWc2qc072PMKa8ehx2YBU23VqDgCPmrlq3GNb6BTHhTHfY46dS6p1Xr1uZGBrBU14honsMCtXKATsFObvSf42NfKCn3RtTfeFkqBrGiITZTGvrcx4iFG0zHRELV/qP7LWfp/6qlT33bfPAEqKnV+ul8l9x1yBpCMpIVfDp1BMWwo+SnWXYhBjRADgPHMUjSz50dens3X/lTHNIdgp77x3jhubgdDXYHsuV+rSPTsqV+rSOySTyRdidDG4nqjWSZgXc1ePzV4/NXj81ePzV4/NXj81ePzV4/NXj81ePzV4/NXj80ZJ5nUREeC7F1Glv8aeqSfpxf+TwZosso0ulT71A6oCy01XflXflXflXflTpRkBsREnR6hXflXflXflGUlLVQHAmNO+7xpDG1lNYKgOsuk3VFFjqxp1cpY5HBRHCxeagi95iTp17h9PW57LbfOxC0zBRY77bcSpsjvOx5Kc4xJ0/wFZUBUOuGWkhvcxjsRBgVB8Hj5reDmq9Cvm5q3H0C/ak/u5b76MNiDauZQYwUDr0+T3X/lTXtgeJOdus/KmMEB2BCUbFRkjPGHNQcCD8+BusoxKnP33eOxIPYHeqdKsiCOUdmY4kCHJUScTiaewaTBW25q23NW25q23NW25p8HDlz2aTDdVtuattzVtuattzVtuatDPrbn/CIoveYn2J0m8xm1HrUr9J9jlPQdae0Vlp9jlHcqutziC0/JWnq09Wnq09Wnq09Wnq09Wnq09Wnq09Wnq09Wnq09VvzUxggB/nT//EACsQAQABAgMGBgMBAQAAAAAAAAERACExQfEQMFFgYdEgUHGBkfChscFAoP/aAAgBAQABPyH/AJ5YDTlphN1lsFRcP4PRyVgS1fy58uOzClmZwHD60IBGR5Iit4wsungK6fwVeuwlx5EWXHDiKxHtDULs8VQQucLw60jJK3V2ggErgUUd+h05EiBOVpTaNuEbC7MAlOlvn4IovM798i51LHi8awdy/VwoAILByJI2FcZHDcW5hu8TkTBRsn+05dRKu4GJPMoYyEWcHkJZ+hxeFJndwOBw3IIJVgK7qM5BRJAurUYcYXj13UReMbLryFMWjAzeG6zeXy4VhyDk8vhxrHciWBxKoTTgOQWN3BxmpXTld2krNheJk8gQAnK0xtG3CN42QoP75AzrV3j3oeCuDUmoOLiefACecRif4HRX6/D896RxxipWi5BS4Xjh3AmXqZjZAhVyKwUCSG3Iq9hTLyc+dlAS7PWkgKlWoWXsT+VYYGA+BrDSyMPCQglbAUEpnG8OldBFCaUS/DsvBVKHBzKaXDHgNtzP1vOzpwHoGrm7Jydh5Yfmo9yxefUphn4mfq8EUvGNl18STBc4DTk4SE2ISQjI0ObD5Z+dtf2wqGbuBy9diAiJglEDF7DwfWiCXV7aRSCExGrOXPlwrCx44R5O0xF+1/554iATEaWBnE5z0rDZFKdMqLe7LH1qA04Nxamx7xtl+Sn7+fTcP4fVSfpwqzlj4cN0kkOddZ82dOB8/gmY3ghdW1SvEclSTr2mHwDkk8BCWnexR2dIM/PmijJqjGK17Wva17Wva17Wva17Wva17Wva17WvaUOLjEbmEDk/7tnmQX5p+S3uFuS8M2XVz2x8uvYPNFUDCHMr7zX1mvrNfWaxnGJkfAHIokSr6zX1mvrNRZiIDMbgMNdujjtKyVgrIjXnOHAxRnwvztlD3/T0oAQRwTdXVFDkoK7tjOOt3ed2ctfDhSQw7Xp+vy9KiKXNYnjBEAM2hmP4LvTN+OXbfUmjUZOAgDzz2pP8isNp1wYI1Fh7I/NY5PpJWFn62pKthT6UrL90/lK3ngWPBG6D6ZUaT8nn0pFm8Kt2Hk7x8l4+foo0M+QIdOBzKnOuVqJyrIRuHrx6IqP93LPbkSKK6KKmMzDHw33gaXUuQRDyXqa05WnK05WnK05R6tyHUeGdEJXWtOVpytOVpytOUMgd6edhYJEorNPx/iSgoycPOvquHJrLioB8Vgw/4pUeSXXztew4ria187Vr52rXztWvnatfO1a+dq187Vr52rXztWvnatfO1a+dq187Vr52rXztWvnagsrdIdqKBwwf86f/2gAMAwEAAgADAAAAEAAAAAAAAAAAAAAAAAAAAAAAAAAAAAAAAAAAAAAAAAAAAAAAAAAAAAAAAAAAAAAAAAAAAAAAAAAAAAAAAAAAAAAAAAAAAAAAAAAAAAAAAAAAAAAAAAAAAAAAAAAAAAAAAAAAAAAAAAAAAAAAAAAAAAAAAAAAAAAAAAAAAAAAAAAAAAAAAAAAAAAAAAAAAAAAAAAAAAAAAAAAAAAAAAAAAAAAAAAAAAAAAAAAAAAAAAAAAAAAAAAAAAAAAAAAAAAAAAAAAAAAAAAAAAAAAAAAAAAAAAAAAAAAAAAAAAAAAAAAAAAAAAAAAAAAAAAAAAAAAAAAAAAAAAAAAAAAAAAAAAAAAAAAAAAAAAAAAAAAAAAAAAAAAAAAAAAAAAAAAAAAAAAAAAAAAAAAAAAAAAAAAAAAAAAAAAAAAAAAAAAAAAAAAAAAAAAAAAAAAAAAAAAAAAAAAAAAAAAAAAAAAAAAAAAAAAAAAAAAAAAAAAAAAAAAAAAAAAAAAAAAAAAAAAAAAAAAAAAAAAAAAAAAAAAAAAAAAAAAAAAAAAAAAAAAAAAAAAAAAAAAAAAAAAAAAAAAAAAAAAAAAAAAAAAAAAAAAAAAAAAAAAAAAAAAAAAAAAAAAAAAAAAAAAAAAAAAAAAAAAAAAAAAAAAAAAAAAAAAAAAAAAAAAAAAAAAAAAAAAAAAAAAAAAAAAAAAAAAAAAAAAAAAAAAAAAAAAAAAAAAAAAAAAAAAAAAAAAAAAAAAAAAAAAAAAAABFAAAAAAAAAAAAAAAAAAAAAAAAAAAAAAAAAAAABJtAAAAAAAAAAAAAAAAAAAAAAAAAAAAAAAAAAAABtsAAAAAAAAAAAAAAAAAAAAAAAAAAAAAAAAABBBtkAAAAAAAAAAAAAAAAAAAAAAAAAAAAAAAAAAFtttAAAAAAAAAAAAAAAAAAAAAAAAAAAAAAAAABJttsoAAAAAAAAAAAAAAAAAAAAAAAAAAAAAAAAAJtttgAAAAAAAAAAAAAAAAAAAAAAAAAAAAAAAAAAtttsoAAAAAAAAAAAAAAAAAAAAAAAAAAAAAAAAJttttsAAAAAAAAAAAAAAAAAAAAAAAAAAAAAAAAJtttttAAAAAAAAAAAAAAAAAAAAAAAAAAAAAAAAANtttsoAAAAAAAAAAAAAAAAAAAAAAAAAAAAAAAANtttsoAAAAAAAAAAAAAAAAAAAAAAAAAAAAAAAANttttsAAAAAAAAAAAAAAAAAAAAAAAAAAAAAAABNtttttkAAAAAAAAAAAAAAAAAAAAAAAAAAAAAABBttttttgAAAAAAAAAAAAAAAAAAAAAAAAAAAAAABttttttsgAAAAAAAAAAAAAAAAAAAAAAAAAAAAAAAtttstttoAAAAAAAAAAAAAAAAAAAAAAAAAAAAAFpttsIIFsAAAAAAAAAAAAAAAAAAAAAAAAAAAAABsottAABFsAAAAAAAAAAAAAAAAAAAAAAAAAAAAABtgFoAABNoAAAAAAAAAAAAAAAAAAAAAAAAAAAAAJNgIAAAJtgAAAAAAAAAAAAAAAAAAAAAAAAAAAAAANAAAAAFlAAAAAAAAAAAAAAAAAAAAAAAAAAAAAAAAAAAAAtgAAAAAAAAAAAAAAAAAAAAAAAAAAAAAAAAAAAAFtAAAAAAAAAAAAAAAAAAAAAAAAAAAAAAAAAAAAAsoAAAAAAAAAAAAAAAAAAAAAAAABMkkkkkoAAABNkAAAAAAAAAAAAAAAAAAAAAAAAABtttttsAAAAFsAAAAAAAAAAAAAAAAAAAAAAAAABNJFtlJgAAAJtoAAAAAAAAAAAAAAAAAAAAAAAAAAAANsAAAAAItgAAAAAAAAAAAAAAAAAAAAAAAAAAAABFtoAAABtlAAAAAAAAAAAAAAAAAAAAAAAAAAAAABNsoJINttAAAAAAAAAAAAAAAAAAAAAAAAAAAAAABNtttttlAAAAAAAAAAAAAAAAAAAAAAAAAAAAAAABAtttthAAAAAAAAAAAAAAAAAAAAAAAAAAAAAAAAAINttIAAAAAAAAAAAAAAAAAAAAAAAAAAAAAAAAAABtsgAAAAAAAAAAAAAAAAAAAAAAAAAAAAAAAAttttttttsAAAAAAAAAAAAAAAAAAAAAAAAAAAABNttttttttoAAAAAAAAAAAAAAAAAAAAAAAAAAAAAttttttttsAAAAAAAAAAAAAAAAAAAAAAAAAAAAAAAAAAAAAAIAAAAAAAAAAAAAAAAAAAAAAAAAAAAAAAAAAAAAAAAAAAAAAAAAAAAAAAAAAAAAAAAAAAAAAAAAAAAAAAAAAAAAAAAAAAAAAAAAAAAAAAAAAAAAAAAAAAAAAAAAAAAAAAAAAAAAAAAAAAAAAAAAAAAAAAAAAAAAAAAAAAAAAAAAAAAAAAAAAAAAAAAAAAAAAAAAAAAAAAAAAAAAAAAAAAAAAAAAAAAAAAAAAAAAAAAAAAAAAAAAAAAAAAAAAAAAAAAAAAAAAAAAAAAAAAAAAAAAAAAAAAAAAAAAAAAAAAAAAAAAAAAAAAAAAAAAAAAAAAAAAAAAAAAAAAAAAAAAAAAAAAAAAAAAAAAAAAAAAAAAAAAAAAAAAAAAAAAAAAAAAAAAAAAAAAAAAAAAAAAAAAAAAAAAAAAAAAAAAAAAAAAAAAAAAAAAAAAAAAAAAAAAAAAAAAAAAAAAAAAAAAAAAAAAAAAAAAAAAAAAAAAAAAAAAAAAAAAAAAAAAAAAAAAAAAAAAAAAAAAAAAAAAAAAAAAAAAAAAAAAAAAAAAAAAAAAAAAAAAAAAAAAAAAAAAAAAAAAAAAAAAAAAAAAAAAAAAAAAAAAAAAAAAAAAAAAAAAAAAAAAAAAAAAAAAAAAAAAAAAAAAAAAAAAAAAAAAAAAAAAAAAAAAAAAAAAAAAAAAAAAAAAAAAAAAAAAAAAAAAAAAAAAAAAAAAAAAAAAAAAAAAAAAAAAAAAAAAAAAAAAAAB//xAAUEQEAAAAAAAAAAAAAAAAAAADA/9oACAEDAQE/EDlP/8QAFBEBAAAAAAAAAAAAAAAAAAAAwP/aAAgBAgEBPxA5T//EACwQAQABAQYDCQEAAwAAAAAAAAERACExQVFh8HGBwRAgMFBgkaGx0UCg4fH/2gAIAQEAAT8Q/wAeUq0gdDWjxDk4CXOs0VhEEx0zp6KURAAlXCnntyTcMuwVCKJaJhUmN8rXRmNaMsCRGRPRFwwWi5l1ce5IlcaDFdCjAYlN8CJ9CWyGw2HI4Zta2eA4zUkY0tt4jiVBcJMji+H3SRXqEquPa+BUASrUKCAvLgeuvoQXCCsqnfvj3Lj2MdaVwjQswBVlhph3ItuLhcZ+nvl6EWCW6kfFQNh48DD378yOK+06/wC6BAAgC4PQmcBNffZx0498iSZjGKVMGL94rnLjj6ESKDcnmtCkMgUlVvfAb2NiX6OZRLEYGBY+gowwWC/CGrUo5YC7CHgufaASq3FMmNoC4TMcrvQJvyqEAF7U6Ck+UtX68K4I7Bc63D0FeAds5HQx18JZBfB3DOgAAAFgHoEYJdE3nKlUqqtqvgh0iliD9y1oa0APt19Aw2Jebfyzpc0gPrh4QoyWJS6wh1/3FkPD0AYhBWBUjl/e5cfEJDY9wIfXn6wS1MYADYOPAw9/FfYJBsRIT2as6rbrXqa+fNGMxOsg1x08d6zLEuTJMShccAmteZo4eelFK+KuKBjnTcuW04pk/FI8iBwj38MCC4DFXAp8IYGx4Nzy7AC2gCV5U8ErpJN4dqLzcksxBqzrgzMx1LvOxTKyLljfoQtOUFeytEVWSizjkaAEBAoXIxNlN4KzRaPTupXeASq3FQWCHIYDh90reLwD2atrWkD2KvBMwF51hXMXuY4NFPgMszP07US28zeRz+487ghRCmDPS1pq/ALRzHHsvWaRcMkxKZla12LN2lWqCunJ/XcuGWQXOtw7zPCUz2ODc0h1hV4l52PcGBeJc0KIsIMDYPfzswbXOLmODS+R1it0DB1u7EwtKIRqQEEByP370Yi0hNjr+fbKnqOgEI0s9vQ7hnQAAALAMO+EH3bgMeZ9Pa+FWF8eeBlxgEiZJUkOutTMaX0ikREvHsbeAQLCbHLShMoUwDkMeNFWgDq6+AAUvkh8knPtaahepCD5jz4ol/WI6Z1oEAYlaeGfKhz6h3HPwgYJBCV/xw1OxwmE3kjQyCY+fLBBS5i7xBEun92e2TsR8eijFuh9mOnYEoGNaIr49EtBDEyAmr0hPFZ7FDJ+XBVxHmZcUuMEWDhM36Usy7rWtlda2V1rZXWtlda2V1rZXWtlda2V1rZXWtlda2V1pq/a0oRJOJD8eCEKWfo/ifftdYnlgQfKeabHmeLtGngklvSF2K6cu1I0ljzPn680minJga8nBspk2fmt39a3f1rd/WhaWENseD3CVKQhG5vrd/Wt39a3f1pqWNhFiVTGzwENohBtxPx/qr2XsjeOWrQL2IuebzbfORhmWcRwTUbasTiOQwTRO1GdS0tU7cKDC0okTM8JFISxbXVyKQbJJ9Gna0KJTTDHoOfndh27BuOVIgIjCOHaUnRtS3WsOF1FRgwXHOt3fDC0qQBWCKl/Dm+ONMqiVyvaUCmOdo1aASQJABceeLqMb/o0x43opERLx7VR5KwnMo8JY/RdRoIMXT84t+KHnm37FAy8mX1QbImLfKBRQonDon7Si30lk8jr3BrHipY9XSomWvxWKuK+fMTbaLuNk6+9X3rR+TM18Q9r3MsNHX7q5ciGLmuL6AgNTR4LhS+IVgHR3ZV7iBiOT4AZY6Lzx5TTbQrSwTTFz9qACAgPQeVYAWODhTLlgJMgxtxz7pKYawliLLeNLA5qvmw5FABAQHoA0Gbkj7raXWtpda2l1raXWtpdaSM7AFe7B4kYQYZ1tLrW0utbS61tLrW0utGXy4BXzuVwIZwTTwBkFsGQYH8IoyMNT2HIlXNi6R8+db3m/j2TN86B6DWaoKRQERhHD+IKUMLMJX7PfztykyUHmiJP8IQIECBAgQIECBAgQIECBQ42qB9qFLLYxf8AHT//2Q==;" parent="1" vertex="1">
          <mxGeometry x="969" y="150" width="51" height="51" as="geometry" />
        </mxCell>
        <mxCell id="mzBB7SvwG0IbSalPoIVl-88" value="&lt;font style=&quot;font-size: 16px&quot; face=&quot;Georgia&quot;&gt;&lt;b&gt;Image&lt;/b&gt;&lt;/font&gt;" style="text;html=1;align=center;verticalAlign=middle;resizable=0;points=[];autosize=1;" parent="1" vertex="1">
          <mxGeometry x="1010" y="165.5" width="70" height="20" as="geometry" />
        </mxCell>
        <mxCell id="mzBB7SvwG0IbSalPoIVl-89" value="" style="edgeStyle=orthogonalEdgeStyle;rounded=0;orthogonalLoop=1;jettySize=auto;html=1;" parent="1" edge="1">
          <mxGeometry relative="1" as="geometry">
            <mxPoint x="954.5" y="250" as="sourcePoint" />
            <mxPoint x="954.5" y="370" as="targetPoint" />
          </mxGeometry>
        </mxCell>
        <mxCell id="mzBB7SvwG0IbSalPoIVl-90" value="" style="shape=image;verticalLabelPosition=bottom;labelBackgroundColor=#ffffff;verticalAlign=top;aspect=fixed;imageAspect=0;image=data:image/jpeg,/9j/4AAQSkZJRgABAQEBLAEsAAD/4QC7RXhpZgAASUkqAAgAAAABAA4BAgCZAAAAGgAAAAAAAABNaWNyb3Njb3BlIGljb24uIE1lZGljYWwgZGlhZ25vc3RpY3MsIGxhYm9yYXRvcnksIHJlc2VhcmNoLCBlZHVjYXRpb24sIHN0dWR5LiBWZWN0b3IgaWxsdXN0cmF0aW9uLiBFcXVpcG1lbnQgZm9yIG1lZGljYWwgcmVzZWFyY2gsIGxhYm9yYXRvcmllcy4gSXNvbGF0ZWT/4QVEaHR0cDovL25zLmFkb2JlLmNvbS94YXAvMS4wLwAJPHJkZjpSREYgeG1sbnM6cmRmPSJodHRwOi8vd3d3LnczLm9yZy8xOTk5LzAyLzIyLXJkZi1zeW50YXgtbnMjIj4KCQk8cmRmOkRlc2NyaXB0aW9uIHJkZjphYm91dD0iIiB4bWxuczpwaG90b3Nob3A9Imh0dHA6Ly9ucy5hZG9iZS5jb20vcGhvdG9zaG9wLzEuMC8iIHhtbG5zOklwdGM0eG1wQ29yZT0iaHR0cDovL2lwdGMub3JnL3N0ZC9JcHRjNHhtcENvcmUvMS4wL3htbG5zLyIgICB4bWxuczpHZXR0eUltYWdlc0dJRlQ9Imh0dHA6Ly94bXAuZ2V0dHlpbWFnZXMuY29tL2dpZnQvMS4wLyIgeG1sbnM6ZGM9Imh0dHA6Ly9wdXJsLm9yZy9kYy9lbGVtZW50cy8xLjEvIiB4bWxuczpwbHVzPSJodHRwOi8vbnMudXNlcGx1cy5vcmcvbGRmL3htcC8xLjAvIiAgeG1sbnM6aXB0Y0V4dD0iaHR0cDovL2lwdGMub3JnL3N0ZC9JcHRjNHhtcEV4dC8yMDA4LTAyLTI5LyIgeG1sbnM6eG1wUmlnaHRzPSJodHRwOi8vbnMuYWRvYmUuY29tL3hhcC8xLjAvcmlnaHRzLyIgcGhvdG9zaG9wOkNyZWRpdD0iR2V0dHkgSW1hZ2VzL2lTdG9ja3Bob3RvIiBHZXR0eUltYWdlc0dJRlQ6QXNzZXRJRD0iOTAzNTA5NDk4IiB4bXBSaWdodHM6V2ViU3RhdGVtZW50PSJodHRwczovL3d3dy5pc3RvY2twaG90by5jb20vbGVnYWwvbGljZW5zZS1hZ3JlZW1lbnQ/dXRtX21lZGl1bT1vcmdhbmljJmFtcDt1dG1fc291cmNlPWdvb2dsZSZhbXA7dXRtX2NhbXBhaWduPWlwdGN1cmwiID4KPGRjOmNyZWF0b3I+PHJkZjpTZXE+PHJkZjpsaT5TaGFtcyBTdWxleW1hbm92YTwvcmRmOmxpPjwvcmRmOlNlcT48L2RjOmNyZWF0b3I+PGRjOmRlc2NyaXB0aW9uPjxyZGY6QWx0PjxyZGY6bGkgeG1sOmxhbmc9IngtZGVmYXVsdCI+TWljcm9zY29wZSBpY29uLiBNZWRpY2FsIGRpYWdub3N0aWNzLCBsYWJvcmF0b3J5LCByZXNlYXJjaCwgZWR1Y2F0aW9uLCBzdHVkeS4gVmVjdG9yIGlsbHVzdHJhdGlvbi4gRXF1aXBtZW50IGZvciBtZWRpY2FsIHJlc2VhcmNoLCBsYWJvcmF0b3JpZXMuIElzb2xhdGVkPC9yZGY6bGk+PC9yZGY6QWx0PjwvZGM6ZGVzY3JpcHRpb24+CjxwbHVzOkxpY2Vuc29yPjxyZGY6U2VxPjxyZGY6bGkgcmRmOnBhcnNlVHlwZT0nUmVzb3VyY2UnPjxwbHVzOkxpY2Vuc29yVVJMPmh0dHBzOi8vd3d3LmlzdG9ja3Bob3RvLmNvbS9waG90by9saWNlbnNlLWdtOTAzNTA5NDk4LT91dG1fbWVkaXVtPW9yZ2FuaWMmYW1wO3V0bV9zb3VyY2U9Z29vZ2xlJmFtcDt1dG1fY2FtcGFpZ249aXB0Y3VybDwvcGx1czpMaWNlbnNvclVSTD48L3JkZjpsaT48L3JkZjpTZXE+PC9wbHVzOkxpY2Vuc29yPgoJCTwvcmRmOkRlc2NyaXB0aW9uPgoJPC9yZGY6UkRGPgr/7QDuUGhvdG9zaG9wIDMuMAA4QklNBAQAAAAAANEcAlAAEVNoYW1zIFN1bGV5bWFub3ZhHAJ4AJlNaWNyb3Njb3BlIGljb24uIE1lZGljYWwgZGlhZ25vc3RpY3MsIGxhYm9yYXRvcnksIHJlc2VhcmNoLCBlZHVjYXRpb24sIHN0dWR5LiBWZWN0b3IgaWxsdXN0cmF0aW9uLiBFcXVpcG1lbnQgZm9yIG1lZGljYWwgcmVzZWFyY2gsIGxhYm9yYXRvcmllcy4gSXNvbGF0ZWQcAm4AGEdldHR5IEltYWdlcy9pU3RvY2twaG90bwD/2wBDAAoHBwgHBgoICAgLCgoLDhgQDg0NDh0VFhEYIx8lJCIfIiEmKzcvJik0KSEiMEExNDk7Pj4+JS5ESUM8SDc9Pjv/2wBDAQoLCw4NDhwQEBw7KCIoOzs7Ozs7Ozs7Ozs7Ozs7Ozs7Ozs7Ozs7Ozs7Ozs7Ozs7Ozs7Ozs7Ozs7Ozs7Ozs7Ozv/wgARCAJkAmQDAREAAhEBAxEB/8QAGwABAAIDAQEAAAAAAAAAAAAAAAUGAQMEAgf/xAAUAQEAAAAAAAAAAAAAAAAAAAAA/9oADAMBAAIQAxAAAAG5gAAAAAAAAAAAAAAAAAAAAAAAAAAAAAAAAAAAAAAAAAAAAAAAAAAAAAAAAAAAAAAAAAAAAAAAAAAAAAAAAAAAAAAAAAAAAAAAAAAAAAAAAAAAAAAAAAAAAAAAAAAAAAAAAAAAAAAAAAAAAAAAAAAAAAAAAAAAAAAAAAAAAAAAAAAAAAAAAAAAAAAAAAAAAAAAAAAAAAAAAAAAAAAAAAAAAAAAAAAAAAAAAAAAAAAAAAAAAAAAAAAAAAAAAAAAAAAAAAAAAAAAAAAAAAAAAAAAAAAAAAAAAAAAAAAAAAAAAAAAAAAAAAAAAAAAAAAAAAAAAAAAAAAAAAAAAAAAAAAAAAAAAAAAAAAAAAAAAAAAAAAAAAAAAAAAAAAAAAAAAAAAAAAAAAAAAAAAAAAAAAAAAAAAAAAAAAAAAAAAAAAAAAAAAAAAAAAAAAAAAAAAAAAAAAAAAAAAAAAAAAAAAAAAAAAAAAAAAAAAAAAAAAAAAAAAAAAAAAAAAAAAAAAAAAAAAAAAAAAAAAAAAAAAAAAAAAAAAAAAAAAAAAAAAAAAAAAAAAAAAAAAAAAAAAAAAAAAAAAAAAAAAAAAAAAAAAAAAAAAAAAAAAAAAAAAAAAAAAAAAAAAAAAAAAAAAAAAAAAAAAAAAAAAAAAAAAAAAAAAAAAAAAAAAAAAAAAAAAAAAAAAAAAAAAAAAAAAAAAAAAAAAAAAAAAAAAAAAAAAAAAAAAAAAAAAAAAAAAAAAAAAAAAAAAAAAAGopRYSZAAAAAAAAAAAAAAAAAAAAAAAAAAAAAAAAAAAAMFLIcFjLSZAAAAAAAAAAAAAAAAAAAAAAAAAAAAAAAAAAAK2VYA3H0I2gAAAAAAAAAAAAAAAAAAAAAAAAAAAAAAAAHGVsnzwUcwDJdyVAAAAAAAAAAAAAAAAAAAAAAAAAAAAAAAAANZQziPR7NQBZyzAAAAAAAAAAAAAAAAAAAAAAAAAAAAAAAAAGCmkKAACXLqZAAAAAAAAAAAAAAAAAAAAAAAAAAAAAAAAAK6VQAAAvpIAAAAAAAAAAAAAAAAAAAAAAAAAAAAAAAAAEaUY8gAAG0vp1gAAAAAAAAAAAAAAAAAAAAAAAAAAAAAAAHOUI5wAAAZL8dwAAAAAAAAAAAAAAAAAAAAAAAAAAAAAAAPJRyMAAAALSWQAAAAAAAAAAAAAAAAAAAAAAAAAAAAAAAAqpXAAAACZLmZAAAAAAAAAAAAAAAAAAAAAAAAAAAAAAABDFLAAAAOg+gG0AAAAAAAAAAAAAAAAAAAAAAAAAAAAAAAHGUI1gAAAAuxLgAAAAAAAAAAAAAAAAAAAAAAAAAAAAAAGsoZxAAAAAEwXUAAAAAAAAAAAAAAAAAAAAAAAAAAAAAAGCnEIAAAAADeXk7QAAAAAAAAAAAAAAAAAAAAAAAAAAAAACLKMAAAAAADcXk7gAAAAAAAAAAAAAAAAAAAAAAAAAAAAAcZGFUPAAANwNJk2mkHSX43AAAAAAAAAAAAAAAAAAAAAAAAAAAAA4ShncWQqhygAyXgkTkN5gopyAny3AAAAAAAAAAAAAAAAAAAAAAAAAAAAA4ijnOby2EGRABaSyAAHAUM8mT6EdQAAAAAAAAAAAAAAAAAAAAAAAAAAAANBTCMMlnMFZJcuhkAAFRIAFmLOAAAAAAAAAAAAAAAAAAAAAAAAAAAAAeSrlcBYiXO82gAAEeUIEiXwAAAAAAAAAAAAAAAAAAAAAAAAAAAAAAhioFvJkAAAAwfODUbD6QZAAAAAAAAAAAAAAAAAAAAAAAAAAAAAAMGQAAAAD5+cQPpR7AAAAAAAAAAAAAAAAAAAAAAAAAAAAAAAAAAAAPnxxg+lHsAAAAAAAAAAAAAAAAAAAAAAAAAAAAAAAAAAAHk+bng3H0YyAAAAAAAAAAAAAAAAAAAAAAAACBKuAAAAACfLOAAACKKOCVLwAAAAAAAAAAAAAAAAAAAAAAAAAVUrgAAAAAJkugAAAKUQ4LYWEAAAAAAAAAAAAAAAAAAAAAAAAAiCuAA0nEASRkAnCeAAAIcpQNh9DNwAAAAAAAAAAAAAAAAAAAAAAAAAAANJ8+NIJ0t5kAAAAjikGoFoLKAAAAAAAAAAAAAAAAAAAAAAAAAAAACGKYYBKFuOsAAGCAKqeASReT0AAAAAAAAAAAAAAAAAAAAAAAAAAAAAV0qgB6JglzsPRoI4gzkAO0vJvAAAAAAAAAAAAAAAAAAAAAAAAAAAAAAIQqJrAAAAAJcuBuAAAAAAAAAAAAAAAAAAAAAAAAAAAAAAAOYrJCHgAAA7SzEyZAAAAAAAAAAAAAAAAAAAAAAAAAAAAAAAABpK+VgAHeW47zIAAAAAAAAAAAAAAAAAAAAAAAAAAAAAAB5PAABGlJABMFwAAMmwAAAAAAAAAAAAAAAAAAAAAAAAAAAAGs+emgAAAAAAAAt5PAAAAAAAAAAAAAAAAAAAAAAAAAAAAHKfPAAAAAAAAAWMtQAAAAAAAAAAAAAAAAAAAAAAAAAAABoPnRgAAAAAAAAsxZwAAAAAAAAAAAAAAAAAAAAAAAAAAAARZzAAAAAAAAyS5tAAAAAAAAAAAAAAAAAAAAAAAAAAAAAAAAAAAAAAAAAAAAAAAAAAAAAAAAAAAAAAAAAAAAAAAAAAAAAAAAAAAAAAAAAAAAAAAAAAAAAAAAAAAAAAAAAAAAAAAAAAAAAAAAAAAAAAAAAAAAAAAAAAAAAAAAAAAAAAAAAAAAAAAAAAAAAAAAAAAAAAAAAAAAAAAAAAAAAAAAAAAAAAAAAAAAAAAAAAAAAAAAAAAAAAAAAAAAAAAAAAAAAAAAAAAAAAAAAAAAAAAAAAAAAAAAAAAAAAAAAAAAAAAAAAAAAAAAAAAAAAAAAAAAAAAAAAAAAAAAAAAAAAAAAAAAAAAAAAAAAAAAAAAAAAAAAAAAAAAAAAAAAAAAAAAAAAAAAAAAAAAAAAAAAAAAAAAAAAAAAAAAAAAAAAAAAAAAAAAAAAAAAAAAAAAAAAAAAAAAAAAAAAAAAAAAAAAAAAAAAAAAAAAAAAAAAAAAAAAAAAAAAAAAAAAAAAAAAAAAAAAAAAAAAAAAAAAAAAAAAAAAAAAAAAAAAAAAAAAAAAAAAAAAAAAAAAAAAAAAAAAAAAAAAAAAAAAAAAAAAAAAAAAAAAAAAAAAAAAAAAAAAAAAAAAAAAAAAAAAAAAAAAAAAAAAAAAAAAAAAAAAAAAAAAAAAAAAAAAAAAAAAAAAAAAAAAAAAAAAAAAAAAAAAAAAAAAAAAAAAAAAAAAAAAAAAAAAAAAAAAAAAAAAAAAAAAAAAAAAAAAAB//8QAKhAAAQMDAgYBBQEBAAAAAAAAAwECBAAFExVQEBESIDBgFCExMjRAoDP/2gAIAQEAAQUC/wA8pCNEwk87zRLg0/pc+Xnfwh3LlX39IuUzl2CE4xBsxi9DkyGxhasfqizByUnS/jDVea8PusGJ8cfob3tGyVIdJLSOVqkI8r+Nth+i3CZmf3QInyCeiXKZ0J3wyBeD0ObKSMJVVy94yOE+MbOD0ExWgEczjl8CIqrDCoI3oCqiJNlLJL4bbD6U9BuUzqXw2+Jnf6DcJeBnhAPKYbGiZ6BJkNjCI9xH+K3Sc4d/e9o2SpLpJfHbH9Mzf7hMzP8AIEqhLGlMks324Kb43mGRwXxZLZI98JLAF0qAw6Oa5ju4QnmIQTxOpEVVIIguMc7o5RkaUe9S5HxgOcr3RZhIyvHHuIjxyR39iJzWDE+MNzWuT4UZaYEY6MFhxyI7oxeFrk9BN6lR0khMB4H0IrwvDJDOHLgPj9lth8u6XGSSFUVq0i8ljFzg3ooWHZLhPjLSLyWJckdUu286+1W+Jnf33UHQXhaC74qIqTLb08bZJfllQRyaGNomd80WWJwgP6Jm+y7e09PE9j7fEwM8RG9BKYvST0qZ9JfBn4eky15y+Dfo30hV6WuXqdQm9Ztzucl4W5i1mLWYtZi1mLWYtZi1mLWYtZi1mLWYtWyUR5PBcS4onC3M65m53j/p5LX+54LjIzSOFpFyHuc+IslmnSq06VWnSq06VRYhwt4pb5Kpp0qtOlVp0qoEFwHd9wl4B8GMUjxDQQt4KNDCKNwScIE7DSLzTwy5bIzCEcV/C1xuW93CJnZxiznxqDJFITuVeSSrm1lOe57uEOKskqIjU3ufA6+xFVqiuhmUy6gdSToy18yNTrlGbRLvRpJj9kaM+S8QmBHvsy3tPTxuG7xxYDz0MbBM38wBnae1kZTmq1e8MQx6j20YvRHiYVJsAIgdkMDZBxQo4vQVVErIysjKyMrIysjKuD2rC7LYqJLyMrIysjKyMrIyuti72R3QMpXmf/Da5Dis3mT+t/FZ/wA95O1XA/is7V3s1vAZ2kgrSQVpIK0kFaSCtJBWkgrSQVpIK0kFaSCtJBWkgrSQVpIK0kFJaQUwbRM/zpf/xAAUEQEAAAAAAAAAAAAAAAAAAADA/9oACAEDAQE/ATlP/8QAFBEBAAAAAAAAAAAAAAAAAAAAwP/aAAgBAgEBPwE5T//EADYQAAECAQgJAQcFAQAAAAAAAAEAAhEDEiExMjNRkRATICIwQVBgoXFAQlJhcoGxBCNikqCC/9oACAEBAAY/Av8APKXuMAFPa8tHIKY/dlPz2XMZdt86RJy9Xxdk6iTNPvHYDGVlNZXNEOxJ7vsMVZZDBUUO+FUW3VKJ0wCi68dX2IXuMAFONXIaItMCFPeYnY18oPpHYurYdxvnbnOu2+exdRJmk2uABI0Q5diUWzUomkngT2GBTZTGvsIvdUEXu4MBWmsNdZ7BialRYbVwtfKCn3R2FqJM0e8eFPeNxvnsKYw77vHCawumx5oMaIAdgzzXyCL3GJPDmuts7AL3GACnGrkOIB8Q7A1bDuN88USjawotr5jrx1Q+r044ewwIURQ4Vjrs18oAVrZCE45FTXCBG2GMESVNe0tOiAQ1jC2OOkPb9xig9tR62X86gi5xiSsWc2qc072PMKa8ehx2YBU23VqDgCPmrlq3GNb6BTHhTHfY46dS6p1Xr1uZGBrBU14honsMCtXKATsFObvSf42NfKCn3RtTfeFkqBrGiITZTGvrcx4iFG0zHRELV/qP7LWfp/6qlT33bfPAEqKnV+ul8l9x1yBpCMpIVfDp1BMWwo+SnWXYhBjRADgPHMUjSz50dens3X/lTHNIdgp77x3jhubgdDXYHsuV+rSPTsqV+rSOySTyRdidDG4nqjWSZgXc1ePzV4/NXj81ePzV4/NXj81ePzV4/NXj81ePzV4/NXj80ZJ5nUREeC7F1Glv8aeqSfpxf+TwZosso0ulT71A6oCy01XflXflXflXflTpRkBsREnR6hXflXflXflGUlLVQHAmNO+7xpDG1lNYKgOsuk3VFFjqxp1cpY5HBRHCxeagi95iTp17h9PW57LbfOxC0zBRY77bcSpsjvOx5Kc4xJ0/wFZUBUOuGWkhvcxjsRBgVB8Hj5reDmq9Cvm5q3H0C/ak/u5b76MNiDauZQYwUDr0+T3X/lTXtgeJOdus/KmMEB2BCUbFRkjPGHNQcCD8+BusoxKnP33eOxIPYHeqdKsiCOUdmY4kCHJUScTiaewaTBW25q23NW25q23NW25p8HDlz2aTDdVtuattzVtuattzVtuatDPrbn/CIoveYn2J0m8xm1HrUr9J9jlPQdae0Vlp9jlHcqutziC0/JWnq09Wnq09Wnq09Wnq09Wnq09Wnq09Wnq09Wnq09VvzUxggB/nT//EACsQAQABAgMGBgMBAQAAAAAAAAERACExQfEQMFFgYdEgUHGBkfChscFAoP/aAAgBAQABPyH/AJ5YDTlphN1lsFRcP4PRyVgS1fy58uOzClmZwHD60IBGR5Iit4wsungK6fwVeuwlx5EWXHDiKxHtDULs8VQQucLw60jJK3V2ggErgUUd+h05EiBOVpTaNuEbC7MAlOlvn4IovM798i51LHi8awdy/VwoAILByJI2FcZHDcW5hu8TkTBRsn+05dRKu4GJPMoYyEWcHkJZ+hxeFJndwOBw3IIJVgK7qM5BRJAurUYcYXj13UReMbLryFMWjAzeG6zeXy4VhyDk8vhxrHciWBxKoTTgOQWN3BxmpXTld2krNheJk8gQAnK0xtG3CN42QoP75AzrV3j3oeCuDUmoOLiefACecRif4HRX6/D896RxxipWi5BS4Xjh3AmXqZjZAhVyKwUCSG3Iq9hTLyc+dlAS7PWkgKlWoWXsT+VYYGA+BrDSyMPCQglbAUEpnG8OldBFCaUS/DsvBVKHBzKaXDHgNtzP1vOzpwHoGrm7Jydh5Yfmo9yxefUphn4mfq8EUvGNl18STBc4DTk4SE2ISQjI0ObD5Z+dtf2wqGbuBy9diAiJglEDF7DwfWiCXV7aRSCExGrOXPlwrCx44R5O0xF+1/554iATEaWBnE5z0rDZFKdMqLe7LH1qA04Nxamx7xtl+Sn7+fTcP4fVSfpwqzlj4cN0kkOddZ82dOB8/gmY3ghdW1SvEclSTr2mHwDkk8BCWnexR2dIM/PmijJqjGK17Wva17Wva17Wva17Wva17Wva17WvaUOLjEbmEDk/7tnmQX5p+S3uFuS8M2XVz2x8uvYPNFUDCHMr7zX1mvrNfWaxnGJkfAHIokSr6zX1mvrNRZiIDMbgMNdujjtKyVgrIjXnOHAxRnwvztlD3/T0oAQRwTdXVFDkoK7tjOOt3ed2ctfDhSQw7Xp+vy9KiKXNYnjBEAM2hmP4LvTN+OXbfUmjUZOAgDzz2pP8isNp1wYI1Fh7I/NY5PpJWFn62pKthT6UrL90/lK3ngWPBG6D6ZUaT8nn0pFm8Kt2Hk7x8l4+foo0M+QIdOBzKnOuVqJyrIRuHrx6IqP93LPbkSKK6KKmMzDHw33gaXUuQRDyXqa05WnK05WnK05R6tyHUeGdEJXWtOVpytOVpytOUMgd6edhYJEorNPx/iSgoycPOvquHJrLioB8Vgw/4pUeSXXztew4ria187Vr52rXztWvnatfO1a+dq187Vr52rXztWvnatfO1a+dq187Vr52rXztWvnagsrdIdqKBwwf86f/2gAMAwEAAgADAAAAEAAAAAAAAAAAAAAAAAAAAAAAAAAAAAAAAAAAAAAAAAAAAAAAAAAAAAAAAAAAAAAAAAAAAAAAAAAAAAAAAAAAAAAAAAAAAAAAAAAAAAAAAAAAAAAAAAAAAAAAAAAAAAAAAAAAAAAAAAAAAAAAAAAAAAAAAAAAAAAAAAAAAAAAAAAAAAAAAAAAAAAAAAAAAAAAAAAAAAAAAAAAAAAAAAAAAAAAAAAAAAAAAAAAAAAAAAAAAAAAAAAAAAAAAAAAAAAAAAAAAAAAAAAAAAAAAAAAAAAAAAAAAAAAAAAAAAAAAAAAAAAAAAAAAAAAAAAAAAAAAAAAAAAAAAAAAAAAAAAAAAAAAAAAAAAAAAAAAAAAAAAAAAAAAAAAAAAAAAAAAAAAAAAAAAAAAAAAAAAAAAAAAAAAAAAAAAAAAAAAAAAAAAAAAAAAAAAAAAAAAAAAAAAAAAAAAAAAAAAAAAAAAAAAAAAAAAAAAAAAAAAAAAAAAAAAAAAAAAAAAAAAAAAAAAAAAAAAAAAAAAAAAAAAAAAAAAAAAAAAAAAAAAAAAAAAAAAAAAAAAAAAAAAAAAAAAAAAAAAAAAAAAAAAAAAAAAAAAAAAAAAAAAAAAAAAAAAAAAAAAAAAAAAAAAAAAAAAAAAAAAAAAAAAAAAAAAAAAAAAAAAAAAAAAAAAAAAAAAAAAAAAAAAAAAAAAAAAAAAAAAAAAAAAAAAAAAAAAAAAAAAAAAAAAAAAAAAAAAAAAAAAAAAAAAAAAAABFAAAAAAAAAAAAAAAAAAAAAAAAAAAAAAAAAAAABJtAAAAAAAAAAAAAAAAAAAAAAAAAAAAAAAAAAAABtsAAAAAAAAAAAAAAAAAAAAAAAAAAAAAAAAABBBtkAAAAAAAAAAAAAAAAAAAAAAAAAAAAAAAAAAFtttAAAAAAAAAAAAAAAAAAAAAAAAAAAAAAAAABJttsoAAAAAAAAAAAAAAAAAAAAAAAAAAAAAAAAAJtttgAAAAAAAAAAAAAAAAAAAAAAAAAAAAAAAAAAtttsoAAAAAAAAAAAAAAAAAAAAAAAAAAAAAAAAJttttsAAAAAAAAAAAAAAAAAAAAAAAAAAAAAAAAJtttttAAAAAAAAAAAAAAAAAAAAAAAAAAAAAAAAANtttsoAAAAAAAAAAAAAAAAAAAAAAAAAAAAAAAANtttsoAAAAAAAAAAAAAAAAAAAAAAAAAAAAAAAANttttsAAAAAAAAAAAAAAAAAAAAAAAAAAAAAAABNtttttkAAAAAAAAAAAAAAAAAAAAAAAAAAAAAABBttttttgAAAAAAAAAAAAAAAAAAAAAAAAAAAAAABttttttsgAAAAAAAAAAAAAAAAAAAAAAAAAAAAAAAtttstttoAAAAAAAAAAAAAAAAAAAAAAAAAAAAAFpttsIIFsAAAAAAAAAAAAAAAAAAAAAAAAAAAAABsottAABFsAAAAAAAAAAAAAAAAAAAAAAAAAAAAABtgFoAABNoAAAAAAAAAAAAAAAAAAAAAAAAAAAAAJNgIAAAJtgAAAAAAAAAAAAAAAAAAAAAAAAAAAAAANAAAAAFlAAAAAAAAAAAAAAAAAAAAAAAAAAAAAAAAAAAAAtgAAAAAAAAAAAAAAAAAAAAAAAAAAAAAAAAAAAAFtAAAAAAAAAAAAAAAAAAAAAAAAAAAAAAAAAAAAAsoAAAAAAAAAAAAAAAAAAAAAAAABMkkkkkoAAABNkAAAAAAAAAAAAAAAAAAAAAAAAABtttttsAAAAFsAAAAAAAAAAAAAAAAAAAAAAAAABNJFtlJgAAAJtoAAAAAAAAAAAAAAAAAAAAAAAAAAAANsAAAAAItgAAAAAAAAAAAAAAAAAAAAAAAAAAAABFtoAAABtlAAAAAAAAAAAAAAAAAAAAAAAAAAAAABNsoJINttAAAAAAAAAAAAAAAAAAAAAAAAAAAAAABNtttttlAAAAAAAAAAAAAAAAAAAAAAAAAAAAAAABAtttthAAAAAAAAAAAAAAAAAAAAAAAAAAAAAAAAAINttIAAAAAAAAAAAAAAAAAAAAAAAAAAAAAAAAAABtsgAAAAAAAAAAAAAAAAAAAAAAAAAAAAAAAAttttttttsAAAAAAAAAAAAAAAAAAAAAAAAAAAABNttttttttoAAAAAAAAAAAAAAAAAAAAAAAAAAAAAttttttttsAAAAAAAAAAAAAAAAAAAAAAAAAAAAAAAAAAAAAAIAAAAAAAAAAAAAAAAAAAAAAAAAAAAAAAAAAAAAAAAAAAAAAAAAAAAAAAAAAAAAAAAAAAAAAAAAAAAAAAAAAAAAAAAAAAAAAAAAAAAAAAAAAAAAAAAAAAAAAAAAAAAAAAAAAAAAAAAAAAAAAAAAAAAAAAAAAAAAAAAAAAAAAAAAAAAAAAAAAAAAAAAAAAAAAAAAAAAAAAAAAAAAAAAAAAAAAAAAAAAAAAAAAAAAAAAAAAAAAAAAAAAAAAAAAAAAAAAAAAAAAAAAAAAAAAAAAAAAAAAAAAAAAAAAAAAAAAAAAAAAAAAAAAAAAAAAAAAAAAAAAAAAAAAAAAAAAAAAAAAAAAAAAAAAAAAAAAAAAAAAAAAAAAAAAAAAAAAAAAAAAAAAAAAAAAAAAAAAAAAAAAAAAAAAAAAAAAAAAAAAAAAAAAAAAAAAAAAAAAAAAAAAAAAAAAAAAAAAAAAAAAAAAAAAAAAAAAAAAAAAAAAAAAAAAAAAAAAAAAAAAAAAAAAAAAAAAAAAAAAAAAAAAAAAAAAAAAAAAAAAAAAAAAAAAAAAAAAAAAAAAAAAAAAAAAAAAAAAAAAAAAAAAAAAAAAAAAAAAAAAAAAAAAAAAAAAAAAAAAAAAAAAAAAAAAAAAAAAAAAAAAAAAAAAAAAAAAAAAAAAAAAAAAAAAAAAAAAAAAAAAAAAAAAAAAAAAAAAAAAAAAAAAAAAAAAAAAAAAAAAAAAAAAAAAAAAAAAAAAAAAAAB//xAAUEQEAAAAAAAAAAAAAAAAAAADA/9oACAEDAQE/EDlP/8QAFBEBAAAAAAAAAAAAAAAAAAAAwP/aAAgBAgEBPxA5T//EACwQAQABAQYDCQEAAwAAAAAAAAERACExQVFh8HGBwRAgMFBgkaGx0UCg4fH/2gAIAQEAAT8Q/wAeUq0gdDWjxDk4CXOs0VhEEx0zp6KURAAlXCnntyTcMuwVCKJaJhUmN8rXRmNaMsCRGRPRFwwWi5l1ce5IlcaDFdCjAYlN8CJ9CWyGw2HI4Zta2eA4zUkY0tt4jiVBcJMji+H3SRXqEquPa+BUASrUKCAvLgeuvoQXCCsqnfvj3Lj2MdaVwjQswBVlhph3ItuLhcZ+nvl6EWCW6kfFQNh48DD378yOK+06/wC6BAAgC4PQmcBNffZx0498iSZjGKVMGL94rnLjj6ESKDcnmtCkMgUlVvfAb2NiX6OZRLEYGBY+gowwWC/CGrUo5YC7CHgufaASq3FMmNoC4TMcrvQJvyqEAF7U6Ck+UtX68K4I7Bc63D0FeAds5HQx18JZBfB3DOgAAAFgHoEYJdE3nKlUqqtqvgh0iliD9y1oa0APt19Aw2Jebfyzpc0gPrh4QoyWJS6wh1/3FkPD0AYhBWBUjl/e5cfEJDY9wIfXn6wS1MYADYOPAw9/FfYJBsRIT2as6rbrXqa+fNGMxOsg1x08d6zLEuTJMShccAmteZo4eelFK+KuKBjnTcuW04pk/FI8iBwj38MCC4DFXAp8IYGx4Nzy7AC2gCV5U8ErpJN4dqLzcksxBqzrgzMx1LvOxTKyLljfoQtOUFeytEVWSizjkaAEBAoXIxNlN4KzRaPTupXeASq3FQWCHIYDh90reLwD2atrWkD2KvBMwF51hXMXuY4NFPgMszP07US28zeRz+487ghRCmDPS1pq/ALRzHHsvWaRcMkxKZla12LN2lWqCunJ/XcuGWQXOtw7zPCUz2ODc0h1hV4l52PcGBeJc0KIsIMDYPfzswbXOLmODS+R1it0DB1u7EwtKIRqQEEByP370Yi0hNjr+fbKnqOgEI0s9vQ7hnQAAALAMO+EH3bgMeZ9Pa+FWF8eeBlxgEiZJUkOutTMaX0ikREvHsbeAQLCbHLShMoUwDkMeNFWgDq6+AAUvkh8knPtaahepCD5jz4ol/WI6Z1oEAYlaeGfKhz6h3HPwgYJBCV/xw1OxwmE3kjQyCY+fLBBS5i7xBEun92e2TsR8eijFuh9mOnYEoGNaIr49EtBDEyAmr0hPFZ7FDJ+XBVxHmZcUuMEWDhM36Usy7rWtlda2V1rZXWtlda2V1rZXWtlda2V1rZXWtlda2V1pq/a0oRJOJD8eCEKWfo/ifftdYnlgQfKeabHmeLtGngklvSF2K6cu1I0ljzPn680minJga8nBspk2fmt39a3f1rd/WhaWENseD3CVKQhG5vrd/Wt39a3f1pqWNhFiVTGzwENohBtxPx/qr2XsjeOWrQL2IuebzbfORhmWcRwTUbasTiOQwTRO1GdS0tU7cKDC0okTM8JFISxbXVyKQbJJ9Gna0KJTTDHoOfndh27BuOVIgIjCOHaUnRtS3WsOF1FRgwXHOt3fDC0qQBWCKl/Dm+ONMqiVyvaUCmOdo1aASQJABceeLqMb/o0x43opERLx7VR5KwnMo8JY/RdRoIMXT84t+KHnm37FAy8mX1QbImLfKBRQonDon7Si30lk8jr3BrHipY9XSomWvxWKuK+fMTbaLuNk6+9X3rR+TM18Q9r3MsNHX7q5ciGLmuL6AgNTR4LhS+IVgHR3ZV7iBiOT4AZY6Lzx5TTbQrSwTTFz9qACAgPQeVYAWODhTLlgJMgxtxz7pKYawliLLeNLA5qvmw5FABAQHoA0Gbkj7raXWtpda2l1raXWtpdaSM7AFe7B4kYQYZ1tLrW0utbS61tLrW0utGXy4BXzuVwIZwTTwBkFsGQYH8IoyMNT2HIlXNi6R8+db3m/j2TN86B6DWaoKRQERhHD+IKUMLMJX7PfztykyUHmiJP8IQIECBAgQIECBAgQIECBQ42qB9qFLLYxf8AHT//2Q==;" parent="1" vertex="1">
          <mxGeometry x="980" y="280" width="51" height="51" as="geometry" />
        </mxCell>
        <mxCell id="mzBB7SvwG0IbSalPoIVl-91" value="&lt;font style=&quot;font-size: 16px&quot; face=&quot;Georgia&quot;&gt;&lt;b&gt;Image&lt;/b&gt;&lt;/font&gt;" style="text;html=1;align=center;verticalAlign=middle;resizable=0;points=[];autosize=1;" parent="1" vertex="1">
          <mxGeometry x="1021" y="295.5" width="70" height="20" as="geometry" />
        </mxCell>
        <mxCell id="mzBB7SvwG0IbSalPoIVl-95" value="" style="edgeStyle=orthogonalEdgeStyle;rounded=0;orthogonalLoop=1;jettySize=auto;html=1;entryX=0.503;entryY=-0.014;entryDx=0;entryDy=0;entryPerimeter=0;" parent="1" edge="1">
          <mxGeometry relative="1" as="geometry">
            <mxPoint x="954.7399999999999" y="390" as="sourcePoint" />
            <mxPoint x="954.7700000000001" y="487.34000000000003" as="targetPoint" />
            <Array as="points">
              <mxPoint x="955.14" y="487" />
            </Array>
          </mxGeometry>
        </mxCell>
        <mxCell id="mzBB7SvwG0IbSalPoIVl-106" value="&lt;font style=&quot;font-size: 12px&quot;&gt;&lt;b&gt;Incubate for 1 hour minimum&lt;/b&gt;&lt;/font&gt;" style="edgeLabel;html=1;align=center;verticalAlign=middle;resizable=0;points=[];" parent="mzBB7SvwG0IbSalPoIVl-95" vertex="1" connectable="0">
          <mxGeometry x="-0.3399" y="-1" relative="1" as="geometry">
            <mxPoint x="1.27" y="8" as="offset" />
          </mxGeometry>
        </mxCell>
        <mxCell id="mzBB7SvwG0IbSalPoIVl-94" value="&lt;b&gt;&lt;font style=&quot;font-size: 16px&quot; face=&quot;Georgia&quot;&gt;Weigh the chip using a precise laboratory-level balance &lt;/font&gt;&lt;/b&gt;" style="text;html=1;align=center;verticalAlign=middle;resizable=0;points=[];autosize=1;" parent="1" vertex="1">
          <mxGeometry x="720" y="370" width="470" height="20" as="geometry" />
        </mxCell>
        <mxCell id="mzBB7SvwG0IbSalPoIVl-98" value="" style="shape=image;verticalLabelPosition=bottom;labelBackgroundColor=#ffffff;verticalAlign=top;aspect=fixed;imageAspect=0;image=data:image/jpeg,/9j/4AAQSkZJRgABAQEBLAEsAAD/4QC7RXhpZgAASUkqAAgAAAABAA4BAgCZAAAAGgAAAAAAAABNaWNyb3Njb3BlIGljb24uIE1lZGljYWwgZGlhZ25vc3RpY3MsIGxhYm9yYXRvcnksIHJlc2VhcmNoLCBlZHVjYXRpb24sIHN0dWR5LiBWZWN0b3IgaWxsdXN0cmF0aW9uLiBFcXVpcG1lbnQgZm9yIG1lZGljYWwgcmVzZWFyY2gsIGxhYm9yYXRvcmllcy4gSXNvbGF0ZWT/4QVEaHR0cDovL25zLmFkb2JlLmNvbS94YXAvMS4wLwAJPHJkZjpSREYgeG1sbnM6cmRmPSJodHRwOi8vd3d3LnczLm9yZy8xOTk5LzAyLzIyLXJkZi1zeW50YXgtbnMjIj4KCQk8cmRmOkRlc2NyaXB0aW9uIHJkZjphYm91dD0iIiB4bWxuczpwaG90b3Nob3A9Imh0dHA6Ly9ucy5hZG9iZS5jb20vcGhvdG9zaG9wLzEuMC8iIHhtbG5zOklwdGM0eG1wQ29yZT0iaHR0cDovL2lwdGMub3JnL3N0ZC9JcHRjNHhtcENvcmUvMS4wL3htbG5zLyIgICB4bWxuczpHZXR0eUltYWdlc0dJRlQ9Imh0dHA6Ly94bXAuZ2V0dHlpbWFnZXMuY29tL2dpZnQvMS4wLyIgeG1sbnM6ZGM9Imh0dHA6Ly9wdXJsLm9yZy9kYy9lbGVtZW50cy8xLjEvIiB4bWxuczpwbHVzPSJodHRwOi8vbnMudXNlcGx1cy5vcmcvbGRmL3htcC8xLjAvIiAgeG1sbnM6aXB0Y0V4dD0iaHR0cDovL2lwdGMub3JnL3N0ZC9JcHRjNHhtcEV4dC8yMDA4LTAyLTI5LyIgeG1sbnM6eG1wUmlnaHRzPSJodHRwOi8vbnMuYWRvYmUuY29tL3hhcC8xLjAvcmlnaHRzLyIgcGhvdG9zaG9wOkNyZWRpdD0iR2V0dHkgSW1hZ2VzL2lTdG9ja3Bob3RvIiBHZXR0eUltYWdlc0dJRlQ6QXNzZXRJRD0iOTAzNTA5NDk4IiB4bXBSaWdodHM6V2ViU3RhdGVtZW50PSJodHRwczovL3d3dy5pc3RvY2twaG90by5jb20vbGVnYWwvbGljZW5zZS1hZ3JlZW1lbnQ/dXRtX21lZGl1bT1vcmdhbmljJmFtcDt1dG1fc291cmNlPWdvb2dsZSZhbXA7dXRtX2NhbXBhaWduPWlwdGN1cmwiID4KPGRjOmNyZWF0b3I+PHJkZjpTZXE+PHJkZjpsaT5TaGFtcyBTdWxleW1hbm92YTwvcmRmOmxpPjwvcmRmOlNlcT48L2RjOmNyZWF0b3I+PGRjOmRlc2NyaXB0aW9uPjxyZGY6QWx0PjxyZGY6bGkgeG1sOmxhbmc9IngtZGVmYXVsdCI+TWljcm9zY29wZSBpY29uLiBNZWRpY2FsIGRpYWdub3N0aWNzLCBsYWJvcmF0b3J5LCByZXNlYXJjaCwgZWR1Y2F0aW9uLCBzdHVkeS4gVmVjdG9yIGlsbHVzdHJhdGlvbi4gRXF1aXBtZW50IGZvciBtZWRpY2FsIHJlc2VhcmNoLCBsYWJvcmF0b3JpZXMuIElzb2xhdGVkPC9yZGY6bGk+PC9yZGY6QWx0PjwvZGM6ZGVzY3JpcHRpb24+CjxwbHVzOkxpY2Vuc29yPjxyZGY6U2VxPjxyZGY6bGkgcmRmOnBhcnNlVHlwZT0nUmVzb3VyY2UnPjxwbHVzOkxpY2Vuc29yVVJMPmh0dHBzOi8vd3d3LmlzdG9ja3Bob3RvLmNvbS9waG90by9saWNlbnNlLWdtOTAzNTA5NDk4LT91dG1fbWVkaXVtPW9yZ2FuaWMmYW1wO3V0bV9zb3VyY2U9Z29vZ2xlJmFtcDt1dG1fY2FtcGFpZ249aXB0Y3VybDwvcGx1czpMaWNlbnNvclVSTD48L3JkZjpsaT48L3JkZjpTZXE+PC9wbHVzOkxpY2Vuc29yPgoJCTwvcmRmOkRlc2NyaXB0aW9uPgoJPC9yZGY6UkRGPgr/7QDuUGhvdG9zaG9wIDMuMAA4QklNBAQAAAAAANEcAlAAEVNoYW1zIFN1bGV5bWFub3ZhHAJ4AJlNaWNyb3Njb3BlIGljb24uIE1lZGljYWwgZGlhZ25vc3RpY3MsIGxhYm9yYXRvcnksIHJlc2VhcmNoLCBlZHVjYXRpb24sIHN0dWR5LiBWZWN0b3IgaWxsdXN0cmF0aW9uLiBFcXVpcG1lbnQgZm9yIG1lZGljYWwgcmVzZWFyY2gsIGxhYm9yYXRvcmllcy4gSXNvbGF0ZWQcAm4AGEdldHR5IEltYWdlcy9pU3RvY2twaG90bwD/2wBDAAoHBwgHBgoICAgLCgoLDhgQDg0NDh0VFhEYIx8lJCIfIiEmKzcvJik0KSEiMEExNDk7Pj4+JS5ESUM8SDc9Pjv/2wBDAQoLCw4NDhwQEBw7KCIoOzs7Ozs7Ozs7Ozs7Ozs7Ozs7Ozs7Ozs7Ozs7Ozs7Ozs7Ozs7Ozs7Ozs7Ozs7Ozs7Ozv/wgARCAJkAmQDAREAAhEBAxEB/8QAGwABAAIDAQEAAAAAAAAAAAAAAAUGAQMEAgf/xAAUAQEAAAAAAAAAAAAAAAAAAAAA/9oADAMBAAIQAxAAAAG5gAAAAAAAAAAAAAAAAAAAAAAAAAAAAAAAAAAAAAAAAAAAAAAAAAAAAAAAAAAAAAAAAAAAAAAAAAAAAAAAAAAAAAAAAAAAAAAAAAAAAAAAAAAAAAAAAAAAAAAAAAAAAAAAAAAAAAAAAAAAAAAAAAAAAAAAAAAAAAAAAAAAAAAAAAAAAAAAAAAAAAAAAAAAAAAAAAAAAAAAAAAAAAAAAAAAAAAAAAAAAAAAAAAAAAAAAAAAAAAAAAAAAAAAAAAAAAAAAAAAAAAAAAAAAAAAAAAAAAAAAAAAAAAAAAAAAAAAAAAAAAAAAAAAAAAAAAAAAAAAAAAAAAAAAAAAAAAAAAAAAAAAAAAAAAAAAAAAAAAAAAAAAAAAAAAAAAAAAAAAAAAAAAAAAAAAAAAAAAAAAAAAAAAAAAAAAAAAAAAAAAAAAAAAAAAAAAAAAAAAAAAAAAAAAAAAAAAAAAAAAAAAAAAAAAAAAAAAAAAAAAAAAAAAAAAAAAAAAAAAAAAAAAAAAAAAAAAAAAAAAAAAAAAAAAAAAAAAAAAAAAAAAAAAAAAAAAAAAAAAAAAAAAAAAAAAAAAAAAAAAAAAAAAAAAAAAAAAAAAAAAAAAAAAAAAAAAAAAAAAAAAAAAAAAAAAAAAAAAAAAAAAAAAAAAAAAAAAAAAAAAAAAAAAAAAAAAAAAAAAAAAAAAAAAAAAAAAAAAAAAAAAAAAAAAAAAAAAAAAAAAAAAAAAAAAAAAAAAAAAAAAAAAAAAAAAAAGopRYSZAAAAAAAAAAAAAAAAAAAAAAAAAAAAAAAAAAAAMFLIcFjLSZAAAAAAAAAAAAAAAAAAAAAAAAAAAAAAAAAAAK2VYA3H0I2gAAAAAAAAAAAAAAAAAAAAAAAAAAAAAAAAHGVsnzwUcwDJdyVAAAAAAAAAAAAAAAAAAAAAAAAAAAAAAAAANZQziPR7NQBZyzAAAAAAAAAAAAAAAAAAAAAAAAAAAAAAAAAGCmkKAACXLqZAAAAAAAAAAAAAAAAAAAAAAAAAAAAAAAAAK6VQAAAvpIAAAAAAAAAAAAAAAAAAAAAAAAAAAAAAAAAEaUY8gAAG0vp1gAAAAAAAAAAAAAAAAAAAAAAAAAAAAAAAHOUI5wAAAZL8dwAAAAAAAAAAAAAAAAAAAAAAAAAAAAAAAPJRyMAAAALSWQAAAAAAAAAAAAAAAAAAAAAAAAAAAAAAAAqpXAAAACZLmZAAAAAAAAAAAAAAAAAAAAAAAAAAAAAAABDFLAAAAOg+gG0AAAAAAAAAAAAAAAAAAAAAAAAAAAAAAAHGUI1gAAAAuxLgAAAAAAAAAAAAAAAAAAAAAAAAAAAAAAGsoZxAAAAAEwXUAAAAAAAAAAAAAAAAAAAAAAAAAAAAAAGCnEIAAAAADeXk7QAAAAAAAAAAAAAAAAAAAAAAAAAAAAACLKMAAAAAADcXk7gAAAAAAAAAAAAAAAAAAAAAAAAAAAAAcZGFUPAAANwNJk2mkHSX43AAAAAAAAAAAAAAAAAAAAAAAAAAAAA4ShncWQqhygAyXgkTkN5gopyAny3AAAAAAAAAAAAAAAAAAAAAAAAAAAAA4ijnOby2EGRABaSyAAHAUM8mT6EdQAAAAAAAAAAAAAAAAAAAAAAAAAAAANBTCMMlnMFZJcuhkAAFRIAFmLOAAAAAAAAAAAAAAAAAAAAAAAAAAAAAeSrlcBYiXO82gAAEeUIEiXwAAAAAAAAAAAAAAAAAAAAAAAAAAAAAAhioFvJkAAAAwfODUbD6QZAAAAAAAAAAAAAAAAAAAAAAAAAAAAAAMGQAAAAD5+cQPpR7AAAAAAAAAAAAAAAAAAAAAAAAAAAAAAAAAAAAPnxxg+lHsAAAAAAAAAAAAAAAAAAAAAAAAAAAAAAAAAAAHk+bng3H0YyAAAAAAAAAAAAAAAAAAAAAAAACBKuAAAAACfLOAAACKKOCVLwAAAAAAAAAAAAAAAAAAAAAAAAAVUrgAAAAAJkugAAAKUQ4LYWEAAAAAAAAAAAAAAAAAAAAAAAAAiCuAA0nEASRkAnCeAAAIcpQNh9DNwAAAAAAAAAAAAAAAAAAAAAAAAAAANJ8+NIJ0t5kAAAAjikGoFoLKAAAAAAAAAAAAAAAAAAAAAAAAAAAACGKYYBKFuOsAAGCAKqeASReT0AAAAAAAAAAAAAAAAAAAAAAAAAAAAAV0qgB6JglzsPRoI4gzkAO0vJvAAAAAAAAAAAAAAAAAAAAAAAAAAAAAAIQqJrAAAAAJcuBuAAAAAAAAAAAAAAAAAAAAAAAAAAAAAAAOYrJCHgAAA7SzEyZAAAAAAAAAAAAAAAAAAAAAAAAAAAAAAAABpK+VgAHeW47zIAAAAAAAAAAAAAAAAAAAAAAAAAAAAAAB5PAABGlJABMFwAAMmwAAAAAAAAAAAAAAAAAAAAAAAAAAAAGs+emgAAAAAAAAt5PAAAAAAAAAAAAAAAAAAAAAAAAAAAAHKfPAAAAAAAAAWMtQAAAAAAAAAAAAAAAAAAAAAAAAAAABoPnRgAAAAAAAAsxZwAAAAAAAAAAAAAAAAAAAAAAAAAAAARZzAAAAAAAAyS5tAAAAAAAAAAAAAAAAAAAAAAAAAAAAAAAAAAAAAAAAAAAAAAAAAAAAAAAAAAAAAAAAAAAAAAAAAAAAAAAAAAAAAAAAAAAAAAAAAAAAAAAAAAAAAAAAAAAAAAAAAAAAAAAAAAAAAAAAAAAAAAAAAAAAAAAAAAAAAAAAAAAAAAAAAAAAAAAAAAAAAAAAAAAAAAAAAAAAAAAAAAAAAAAAAAAAAAAAAAAAAAAAAAAAAAAAAAAAAAAAAAAAAAAAAAAAAAAAAAAAAAAAAAAAAAAAAAAAAAAAAAAAAAAAAAAAAAAAAAAAAAAAAAAAAAAAAAAAAAAAAAAAAAAAAAAAAAAAAAAAAAAAAAAAAAAAAAAAAAAAAAAAAAAAAAAAAAAAAAAAAAAAAAAAAAAAAAAAAAAAAAAAAAAAAAAAAAAAAAAAAAAAAAAAAAAAAAAAAAAAAAAAAAAAAAAAAAAAAAAAAAAAAAAAAAAAAAAAAAAAAAAAAAAAAAAAAAAAAAAAAAAAAAAAAAAAAAAAAAAAAAAAAAAAAAAAAAAAAAAAAAAAAAAAAAAAAAAAAAAAAAAAAAAAAAAAAAAAAAAAAAAAAAAAAAAAAAAAAAAAAAAAAAAAAAAAAAAAAAAAAAAAAAAAAAAAAAAAAAAAAAAAAAAAAAAAAAAAAAAAAAAAAAAAAAAAAAAAAAAAAAAAAAAAAAAAAAAAAAAAAAAAAAAAAAAAAAAAAAAAAAAAAAAAAAAAAAAAAAAAAAAAB//8QAKhAAAQMDAgYBBQEBAAAAAAAAAwECBAAFExVQEBESIDBgFCExMjRAoDP/2gAIAQEAAQUC/wA8pCNEwk87zRLg0/pc+Xnfwh3LlX39IuUzl2CE4xBsxi9DkyGxhasfqizByUnS/jDVea8PusGJ8cfob3tGyVIdJLSOVqkI8r+Nth+i3CZmf3QInyCeiXKZ0J3wyBeD0ObKSMJVVy94yOE+MbOD0ExWgEczjl8CIqrDCoI3oCqiJNlLJL4bbD6U9BuUzqXw2+Jnf6DcJeBnhAPKYbGiZ6BJkNjCI9xH+K3Sc4d/e9o2SpLpJfHbH9Mzf7hMzP8AIEqhLGlMks324Kb43mGRwXxZLZI98JLAF0qAw6Oa5ju4QnmIQTxOpEVVIIguMc7o5RkaUe9S5HxgOcr3RZhIyvHHuIjxyR39iJzWDE+MNzWuT4UZaYEY6MFhxyI7oxeFrk9BN6lR0khMB4H0IrwvDJDOHLgPj9lth8u6XGSSFUVq0i8ljFzg3ooWHZLhPjLSLyWJckdUu286+1W+Jnf33UHQXhaC74qIqTLb08bZJfllQRyaGNomd80WWJwgP6Jm+y7e09PE9j7fEwM8RG9BKYvST0qZ9JfBn4eky15y+Dfo30hV6WuXqdQm9Ztzucl4W5i1mLWYtZi1mLWYtZi1mLWYtZi1mLWYtWyUR5PBcS4onC3M65m53j/p5LX+54LjIzSOFpFyHuc+IslmnSq06VWnSq06VRYhwt4pb5Kpp0qtOlVp0qoEFwHd9wl4B8GMUjxDQQt4KNDCKNwScIE7DSLzTwy5bIzCEcV/C1xuW93CJnZxiznxqDJFITuVeSSrm1lOe57uEOKskqIjU3ufA6+xFVqiuhmUy6gdSToy18yNTrlGbRLvRpJj9kaM+S8QmBHvsy3tPTxuG7xxYDz0MbBM38wBnae1kZTmq1e8MQx6j20YvRHiYVJsAIgdkMDZBxQo4vQVVErIysjKyMrIysjKuD2rC7LYqJLyMrIysjKyMrIyuti72R3QMpXmf/Da5Dis3mT+t/FZ/wA95O1XA/is7V3s1vAZ2kgrSQVpIK0kFaSCtJBWkgrSQVpIK0kFaSCtJBWkgrSQVpIK0kFJaQUwbRM/zpf/xAAUEQEAAAAAAAAAAAAAAAAAAADA/9oACAEDAQE/ATlP/8QAFBEBAAAAAAAAAAAAAAAAAAAAwP/aAAgBAgEBPwE5T//EADYQAAECAQgJAQcFAQAAAAAAAAEAAhEDEiExMjNRkRATICIwQVBgoXFAQlJhcoGxBCNikqCC/9oACAEBAAY/Av8APKXuMAFPa8tHIKY/dlPz2XMZdt86RJy9Xxdk6iTNPvHYDGVlNZXNEOxJ7vsMVZZDBUUO+FUW3VKJ0wCi68dX2IXuMAFONXIaItMCFPeYnY18oPpHYurYdxvnbnOu2+exdRJmk2uABI0Q5diUWzUomkngT2GBTZTGvsIvdUEXu4MBWmsNdZ7BialRYbVwtfKCn3R2FqJM0e8eFPeNxvnsKYw77vHCawumx5oMaIAdgzzXyCL3GJPDmuts7AL3GACnGrkOIB8Q7A1bDuN88USjawotr5jrx1Q+r044ewwIURQ4Vjrs18oAVrZCE45FTXCBG2GMESVNe0tOiAQ1jC2OOkPb9xig9tR62X86gi5xiSsWc2qc072PMKa8ehx2YBU23VqDgCPmrlq3GNb6BTHhTHfY46dS6p1Xr1uZGBrBU14honsMCtXKATsFObvSf42NfKCn3RtTfeFkqBrGiITZTGvrcx4iFG0zHRELV/qP7LWfp/6qlT33bfPAEqKnV+ul8l9x1yBpCMpIVfDp1BMWwo+SnWXYhBjRADgPHMUjSz50dens3X/lTHNIdgp77x3jhubgdDXYHsuV+rSPTsqV+rSOySTyRdidDG4nqjWSZgXc1ePzV4/NXj81ePzV4/NXj81ePzV4/NXj81ePzV4/NXj80ZJ5nUREeC7F1Glv8aeqSfpxf+TwZosso0ulT71A6oCy01XflXflXflXflTpRkBsREnR6hXflXflXflGUlLVQHAmNO+7xpDG1lNYKgOsuk3VFFjqxp1cpY5HBRHCxeagi95iTp17h9PW57LbfOxC0zBRY77bcSpsjvOx5Kc4xJ0/wFZUBUOuGWkhvcxjsRBgVB8Hj5reDmq9Cvm5q3H0C/ak/u5b76MNiDauZQYwUDr0+T3X/lTXtgeJOdus/KmMEB2BCUbFRkjPGHNQcCD8+BusoxKnP33eOxIPYHeqdKsiCOUdmY4kCHJUScTiaewaTBW25q23NW25q23NW25p8HDlz2aTDdVtuattzVtuattzVtuatDPrbn/CIoveYn2J0m8xm1HrUr9J9jlPQdae0Vlp9jlHcqutziC0/JWnq09Wnq09Wnq09Wnq09Wnq09Wnq09Wnq09Wnq09VvzUxggB/nT//EACsQAQABAgMGBgMBAQAAAAAAAAERACExQfEQMFFgYdEgUHGBkfChscFAoP/aAAgBAQABPyH/AJ5YDTlphN1lsFRcP4PRyVgS1fy58uOzClmZwHD60IBGR5Iit4wsungK6fwVeuwlx5EWXHDiKxHtDULs8VQQucLw60jJK3V2ggErgUUd+h05EiBOVpTaNuEbC7MAlOlvn4IovM798i51LHi8awdy/VwoAILByJI2FcZHDcW5hu8TkTBRsn+05dRKu4GJPMoYyEWcHkJZ+hxeFJndwOBw3IIJVgK7qM5BRJAurUYcYXj13UReMbLryFMWjAzeG6zeXy4VhyDk8vhxrHciWBxKoTTgOQWN3BxmpXTld2krNheJk8gQAnK0xtG3CN42QoP75AzrV3j3oeCuDUmoOLiefACecRif4HRX6/D896RxxipWi5BS4Xjh3AmXqZjZAhVyKwUCSG3Iq9hTLyc+dlAS7PWkgKlWoWXsT+VYYGA+BrDSyMPCQglbAUEpnG8OldBFCaUS/DsvBVKHBzKaXDHgNtzP1vOzpwHoGrm7Jydh5Yfmo9yxefUphn4mfq8EUvGNl18STBc4DTk4SE2ISQjI0ObD5Z+dtf2wqGbuBy9diAiJglEDF7DwfWiCXV7aRSCExGrOXPlwrCx44R5O0xF+1/554iATEaWBnE5z0rDZFKdMqLe7LH1qA04Nxamx7xtl+Sn7+fTcP4fVSfpwqzlj4cN0kkOddZ82dOB8/gmY3ghdW1SvEclSTr2mHwDkk8BCWnexR2dIM/PmijJqjGK17Wva17Wva17Wva17Wva17Wva17WvaUOLjEbmEDk/7tnmQX5p+S3uFuS8M2XVz2x8uvYPNFUDCHMr7zX1mvrNfWaxnGJkfAHIokSr6zX1mvrNRZiIDMbgMNdujjtKyVgrIjXnOHAxRnwvztlD3/T0oAQRwTdXVFDkoK7tjOOt3ed2ctfDhSQw7Xp+vy9KiKXNYnjBEAM2hmP4LvTN+OXbfUmjUZOAgDzz2pP8isNp1wYI1Fh7I/NY5PpJWFn62pKthT6UrL90/lK3ngWPBG6D6ZUaT8nn0pFm8Kt2Hk7x8l4+foo0M+QIdOBzKnOuVqJyrIRuHrx6IqP93LPbkSKK6KKmMzDHw33gaXUuQRDyXqa05WnK05WnK05R6tyHUeGdEJXWtOVpytOVpytOUMgd6edhYJEorNPx/iSgoycPOvquHJrLioB8Vgw/4pUeSXXztew4ria187Vr52rXztWvnatfO1a+dq187Vr52rXztWvnatfO1a+dq187Vr52rXztWvnagsrdIdqKBwwf86f/2gAMAwEAAgADAAAAEAAAAAAAAAAAAAAAAAAAAAAAAAAAAAAAAAAAAAAAAAAAAAAAAAAAAAAAAAAAAAAAAAAAAAAAAAAAAAAAAAAAAAAAAAAAAAAAAAAAAAAAAAAAAAAAAAAAAAAAAAAAAAAAAAAAAAAAAAAAAAAAAAAAAAAAAAAAAAAAAAAAAAAAAAAAAAAAAAAAAAAAAAAAAAAAAAAAAAAAAAAAAAAAAAAAAAAAAAAAAAAAAAAAAAAAAAAAAAAAAAAAAAAAAAAAAAAAAAAAAAAAAAAAAAAAAAAAAAAAAAAAAAAAAAAAAAAAAAAAAAAAAAAAAAAAAAAAAAAAAAAAAAAAAAAAAAAAAAAAAAAAAAAAAAAAAAAAAAAAAAAAAAAAAAAAAAAAAAAAAAAAAAAAAAAAAAAAAAAAAAAAAAAAAAAAAAAAAAAAAAAAAAAAAAAAAAAAAAAAAAAAAAAAAAAAAAAAAAAAAAAAAAAAAAAAAAAAAAAAAAAAAAAAAAAAAAAAAAAAAAAAAAAAAAAAAAAAAAAAAAAAAAAAAAAAAAAAAAAAAAAAAAAAAAAAAAAAAAAAAAAAAAAAAAAAAAAAAAAAAAAAAAAAAAAAAAAAAAAAAAAAAAAAAAAAAAAAAAAAAAAAAAAAAAAAAAAAAAAAAAAAAAAAAAAAAAAAAAAAAAAAAAAAAAAAAAAAAAAAAAAAAAAAAAAAAAAAAAAAAAAAAAAAAAAAAAAAAAAAAAAAAAAAAAAAAAAAAAAAAAAAAAAAAAAAAAABFAAAAAAAAAAAAAAAAAAAAAAAAAAAAAAAAAAAABJtAAAAAAAAAAAAAAAAAAAAAAAAAAAAAAAAAAAABtsAAAAAAAAAAAAAAAAAAAAAAAAAAAAAAAAABBBtkAAAAAAAAAAAAAAAAAAAAAAAAAAAAAAAAAAFtttAAAAAAAAAAAAAAAAAAAAAAAAAAAAAAAAABJttsoAAAAAAAAAAAAAAAAAAAAAAAAAAAAAAAAAJtttgAAAAAAAAAAAAAAAAAAAAAAAAAAAAAAAAAAtttsoAAAAAAAAAAAAAAAAAAAAAAAAAAAAAAAAJttttsAAAAAAAAAAAAAAAAAAAAAAAAAAAAAAAAJtttttAAAAAAAAAAAAAAAAAAAAAAAAAAAAAAAAANtttsoAAAAAAAAAAAAAAAAAAAAAAAAAAAAAAAANtttsoAAAAAAAAAAAAAAAAAAAAAAAAAAAAAAAANttttsAAAAAAAAAAAAAAAAAAAAAAAAAAAAAAABNtttttkAAAAAAAAAAAAAAAAAAAAAAAAAAAAAABBttttttgAAAAAAAAAAAAAAAAAAAAAAAAAAAAAABttttttsgAAAAAAAAAAAAAAAAAAAAAAAAAAAAAAAtttstttoAAAAAAAAAAAAAAAAAAAAAAAAAAAAAFpttsIIFsAAAAAAAAAAAAAAAAAAAAAAAAAAAAABsottAABFsAAAAAAAAAAAAAAAAAAAAAAAAAAAAABtgFoAABNoAAAAAAAAAAAAAAAAAAAAAAAAAAAAAJNgIAAAJtgAAAAAAAAAAAAAAAAAAAAAAAAAAAAAANAAAAAFlAAAAAAAAAAAAAAAAAAAAAAAAAAAAAAAAAAAAAtgAAAAAAAAAAAAAAAAAAAAAAAAAAAAAAAAAAAAFtAAAAAAAAAAAAAAAAAAAAAAAAAAAAAAAAAAAAAsoAAAAAAAAAAAAAAAAAAAAAAAABMkkkkkoAAABNkAAAAAAAAAAAAAAAAAAAAAAAAABtttttsAAAAFsAAAAAAAAAAAAAAAAAAAAAAAAABNJFtlJgAAAJtoAAAAAAAAAAAAAAAAAAAAAAAAAAAANsAAAAAItgAAAAAAAAAAAAAAAAAAAAAAAAAAAABFtoAAABtlAAAAAAAAAAAAAAAAAAAAAAAAAAAAABNsoJINttAAAAAAAAAAAAAAAAAAAAAAAAAAAAAABNtttttlAAAAAAAAAAAAAAAAAAAAAAAAAAAAAAABAtttthAAAAAAAAAAAAAAAAAAAAAAAAAAAAAAAAAINttIAAAAAAAAAAAAAAAAAAAAAAAAAAAAAAAAAABtsgAAAAAAAAAAAAAAAAAAAAAAAAAAAAAAAAttttttttsAAAAAAAAAAAAAAAAAAAAAAAAAAAABNttttttttoAAAAAAAAAAAAAAAAAAAAAAAAAAAAAttttttttsAAAAAAAAAAAAAAAAAAAAAAAAAAAAAAAAAAAAAAIAAAAAAAAAAAAAAAAAAAAAAAAAAAAAAAAAAAAAAAAAAAAAAAAAAAAAAAAAAAAAAAAAAAAAAAAAAAAAAAAAAAAAAAAAAAAAAAAAAAAAAAAAAAAAAAAAAAAAAAAAAAAAAAAAAAAAAAAAAAAAAAAAAAAAAAAAAAAAAAAAAAAAAAAAAAAAAAAAAAAAAAAAAAAAAAAAAAAAAAAAAAAAAAAAAAAAAAAAAAAAAAAAAAAAAAAAAAAAAAAAAAAAAAAAAAAAAAAAAAAAAAAAAAAAAAAAAAAAAAAAAAAAAAAAAAAAAAAAAAAAAAAAAAAAAAAAAAAAAAAAAAAAAAAAAAAAAAAAAAAAAAAAAAAAAAAAAAAAAAAAAAAAAAAAAAAAAAAAAAAAAAAAAAAAAAAAAAAAAAAAAAAAAAAAAAAAAAAAAAAAAAAAAAAAAAAAAAAAAAAAAAAAAAAAAAAAAAAAAAAAAAAAAAAAAAAAAAAAAAAAAAAAAAAAAAAAAAAAAAAAAAAAAAAAAAAAAAAAAAAAAAAAAAAAAAAAAAAAAAAAAAAAAAAAAAAAAAAAAAAAAAAAAAAAAAAAAAAAAAAAAAAAAAAAAAAAAAAAAAAAAAAAAAAAAAAAAAAAAAAAAAAAAAAAAAAAAAAAAAAAAAAAAAAAAAAAAAAAAAAAAAAAAAAAAAAAAAAAAAAAAAAAAAAAAAAAAAAAAAAAAAAAAAAAAAAAAAAAAAAAAAAAAAAAAAAAAAAAAAAAAAAB//xAAUEQEAAAAAAAAAAAAAAAAAAADA/9oACAEDAQE/EDlP/8QAFBEBAAAAAAAAAAAAAAAAAAAAwP/aAAgBAgEBPxA5T//EACwQAQABAQYDCQEAAwAAAAAAAAERACExQVFh8HGBwRAgMFBgkaGx0UCg4fH/2gAIAQEAAT8Q/wAeUq0gdDWjxDk4CXOs0VhEEx0zp6KURAAlXCnntyTcMuwVCKJaJhUmN8rXRmNaMsCRGRPRFwwWi5l1ce5IlcaDFdCjAYlN8CJ9CWyGw2HI4Zta2eA4zUkY0tt4jiVBcJMji+H3SRXqEquPa+BUASrUKCAvLgeuvoQXCCsqnfvj3Lj2MdaVwjQswBVlhph3ItuLhcZ+nvl6EWCW6kfFQNh48DD378yOK+06/wC6BAAgC4PQmcBNffZx0498iSZjGKVMGL94rnLjj6ESKDcnmtCkMgUlVvfAb2NiX6OZRLEYGBY+gowwWC/CGrUo5YC7CHgufaASq3FMmNoC4TMcrvQJvyqEAF7U6Ck+UtX68K4I7Bc63D0FeAds5HQx18JZBfB3DOgAAAFgHoEYJdE3nKlUqqtqvgh0iliD9y1oa0APt19Aw2Jebfyzpc0gPrh4QoyWJS6wh1/3FkPD0AYhBWBUjl/e5cfEJDY9wIfXn6wS1MYADYOPAw9/FfYJBsRIT2as6rbrXqa+fNGMxOsg1x08d6zLEuTJMShccAmteZo4eelFK+KuKBjnTcuW04pk/FI8iBwj38MCC4DFXAp8IYGx4Nzy7AC2gCV5U8ErpJN4dqLzcksxBqzrgzMx1LvOxTKyLljfoQtOUFeytEVWSizjkaAEBAoXIxNlN4KzRaPTupXeASq3FQWCHIYDh90reLwD2atrWkD2KvBMwF51hXMXuY4NFPgMszP07US28zeRz+487ghRCmDPS1pq/ALRzHHsvWaRcMkxKZla12LN2lWqCunJ/XcuGWQXOtw7zPCUz2ODc0h1hV4l52PcGBeJc0KIsIMDYPfzswbXOLmODS+R1it0DB1u7EwtKIRqQEEByP370Yi0hNjr+fbKnqOgEI0s9vQ7hnQAAALAMO+EH3bgMeZ9Pa+FWF8eeBlxgEiZJUkOutTMaX0ikREvHsbeAQLCbHLShMoUwDkMeNFWgDq6+AAUvkh8knPtaahepCD5jz4ol/WI6Z1oEAYlaeGfKhz6h3HPwgYJBCV/xw1OxwmE3kjQyCY+fLBBS5i7xBEun92e2TsR8eijFuh9mOnYEoGNaIr49EtBDEyAmr0hPFZ7FDJ+XBVxHmZcUuMEWDhM36Usy7rWtlda2V1rZXWtlda2V1rZXWtlda2V1rZXWtlda2V1pq/a0oRJOJD8eCEKWfo/ifftdYnlgQfKeabHmeLtGngklvSF2K6cu1I0ljzPn680minJga8nBspk2fmt39a3f1rd/WhaWENseD3CVKQhG5vrd/Wt39a3f1pqWNhFiVTGzwENohBtxPx/qr2XsjeOWrQL2IuebzbfORhmWcRwTUbasTiOQwTRO1GdS0tU7cKDC0okTM8JFISxbXVyKQbJJ9Gna0KJTTDHoOfndh27BuOVIgIjCOHaUnRtS3WsOF1FRgwXHOt3fDC0qQBWCKl/Dm+ONMqiVyvaUCmOdo1aASQJABceeLqMb/o0x43opERLx7VR5KwnMo8JY/RdRoIMXT84t+KHnm37FAy8mX1QbImLfKBRQonDon7Si30lk8jr3BrHipY9XSomWvxWKuK+fMTbaLuNk6+9X3rR+TM18Q9r3MsNHX7q5ciGLmuL6AgNTR4LhS+IVgHR3ZV7iBiOT4AZY6Lzx5TTbQrSwTTFz9qACAgPQeVYAWODhTLlgJMgxtxz7pKYawliLLeNLA5qvmw5FABAQHoA0Gbkj7raXWtpda2l1raXWtpdaSM7AFe7B4kYQYZ1tLrW0utbS61tLrW0utGXy4BXzuVwIZwTTwBkFsGQYH8IoyMNT2HIlXNi6R8+db3m/j2TN86B6DWaoKRQERhHD+IKUMLMJX7PfztykyUHmiJP8IQIECBAgQIECBAgQIECBQ42qB9qFLLYxf8AHT//2Q==;" parent="1" vertex="1">
          <mxGeometry x="530" y="740" width="51" height="51" as="geometry" />
        </mxCell>
        <mxCell id="mzBB7SvwG0IbSalPoIVl-99" value="&lt;font style=&quot;font-size: 16px&quot; face=&quot;Georgia&quot;&gt;&lt;b&gt;Image&lt;/b&gt;&lt;/font&gt;" style="text;html=1;align=center;verticalAlign=middle;resizable=0;points=[];autosize=1;" parent="1" vertex="1">
          <mxGeometry x="571" y="755.5" width="70" height="20" as="geometry" />
        </mxCell>
        <mxCell id="mzBB7SvwG0IbSalPoIVl-100" value="" style="shape=image;verticalLabelPosition=bottom;labelBackgroundColor=#ffffff;verticalAlign=top;aspect=fixed;imageAspect=0;image=data:image/jpeg,/9j/4AAQSkZJRgABAQEBLAEsAAD/4QC7RXhpZgAASUkqAAgAAAABAA4BAgCZAAAAGgAAAAAAAABNaWNyb3Njb3BlIGljb24uIE1lZGljYWwgZGlhZ25vc3RpY3MsIGxhYm9yYXRvcnksIHJlc2VhcmNoLCBlZHVjYXRpb24sIHN0dWR5LiBWZWN0b3IgaWxsdXN0cmF0aW9uLiBFcXVpcG1lbnQgZm9yIG1lZGljYWwgcmVzZWFyY2gsIGxhYm9yYXRvcmllcy4gSXNvbGF0ZWT/4QVEaHR0cDovL25zLmFkb2JlLmNvbS94YXAvMS4wLwAJPHJkZjpSREYgeG1sbnM6cmRmPSJodHRwOi8vd3d3LnczLm9yZy8xOTk5LzAyLzIyLXJkZi1zeW50YXgtbnMjIj4KCQk8cmRmOkRlc2NyaXB0aW9uIHJkZjphYm91dD0iIiB4bWxuczpwaG90b3Nob3A9Imh0dHA6Ly9ucy5hZG9iZS5jb20vcGhvdG9zaG9wLzEuMC8iIHhtbG5zOklwdGM0eG1wQ29yZT0iaHR0cDovL2lwdGMub3JnL3N0ZC9JcHRjNHhtcENvcmUvMS4wL3htbG5zLyIgICB4bWxuczpHZXR0eUltYWdlc0dJRlQ9Imh0dHA6Ly94bXAuZ2V0dHlpbWFnZXMuY29tL2dpZnQvMS4wLyIgeG1sbnM6ZGM9Imh0dHA6Ly9wdXJsLm9yZy9kYy9lbGVtZW50cy8xLjEvIiB4bWxuczpwbHVzPSJodHRwOi8vbnMudXNlcGx1cy5vcmcvbGRmL3htcC8xLjAvIiAgeG1sbnM6aXB0Y0V4dD0iaHR0cDovL2lwdGMub3JnL3N0ZC9JcHRjNHhtcEV4dC8yMDA4LTAyLTI5LyIgeG1sbnM6eG1wUmlnaHRzPSJodHRwOi8vbnMuYWRvYmUuY29tL3hhcC8xLjAvcmlnaHRzLyIgcGhvdG9zaG9wOkNyZWRpdD0iR2V0dHkgSW1hZ2VzL2lTdG9ja3Bob3RvIiBHZXR0eUltYWdlc0dJRlQ6QXNzZXRJRD0iOTAzNTA5NDk4IiB4bXBSaWdodHM6V2ViU3RhdGVtZW50PSJodHRwczovL3d3dy5pc3RvY2twaG90by5jb20vbGVnYWwvbGljZW5zZS1hZ3JlZW1lbnQ/dXRtX21lZGl1bT1vcmdhbmljJmFtcDt1dG1fc291cmNlPWdvb2dsZSZhbXA7dXRtX2NhbXBhaWduPWlwdGN1cmwiID4KPGRjOmNyZWF0b3I+PHJkZjpTZXE+PHJkZjpsaT5TaGFtcyBTdWxleW1hbm92YTwvcmRmOmxpPjwvcmRmOlNlcT48L2RjOmNyZWF0b3I+PGRjOmRlc2NyaXB0aW9uPjxyZGY6QWx0PjxyZGY6bGkgeG1sOmxhbmc9IngtZGVmYXVsdCI+TWljcm9zY29wZSBpY29uLiBNZWRpY2FsIGRpYWdub3N0aWNzLCBsYWJvcmF0b3J5LCByZXNlYXJjaCwgZWR1Y2F0aW9uLCBzdHVkeS4gVmVjdG9yIGlsbHVzdHJhdGlvbi4gRXF1aXBtZW50IGZvciBtZWRpY2FsIHJlc2VhcmNoLCBsYWJvcmF0b3JpZXMuIElzb2xhdGVkPC9yZGY6bGk+PC9yZGY6QWx0PjwvZGM6ZGVzY3JpcHRpb24+CjxwbHVzOkxpY2Vuc29yPjxyZGY6U2VxPjxyZGY6bGkgcmRmOnBhcnNlVHlwZT0nUmVzb3VyY2UnPjxwbHVzOkxpY2Vuc29yVVJMPmh0dHBzOi8vd3d3LmlzdG9ja3Bob3RvLmNvbS9waG90by9saWNlbnNlLWdtOTAzNTA5NDk4LT91dG1fbWVkaXVtPW9yZ2FuaWMmYW1wO3V0bV9zb3VyY2U9Z29vZ2xlJmFtcDt1dG1fY2FtcGFpZ249aXB0Y3VybDwvcGx1czpMaWNlbnNvclVSTD48L3JkZjpsaT48L3JkZjpTZXE+PC9wbHVzOkxpY2Vuc29yPgoJCTwvcmRmOkRlc2NyaXB0aW9uPgoJPC9yZGY6UkRGPgr/7QDuUGhvdG9zaG9wIDMuMAA4QklNBAQAAAAAANEcAlAAEVNoYW1zIFN1bGV5bWFub3ZhHAJ4AJlNaWNyb3Njb3BlIGljb24uIE1lZGljYWwgZGlhZ25vc3RpY3MsIGxhYm9yYXRvcnksIHJlc2VhcmNoLCBlZHVjYXRpb24sIHN0dWR5LiBWZWN0b3IgaWxsdXN0cmF0aW9uLiBFcXVpcG1lbnQgZm9yIG1lZGljYWwgcmVzZWFyY2gsIGxhYm9yYXRvcmllcy4gSXNvbGF0ZWQcAm4AGEdldHR5IEltYWdlcy9pU3RvY2twaG90bwD/2wBDAAoHBwgHBgoICAgLCgoLDhgQDg0NDh0VFhEYIx8lJCIfIiEmKzcvJik0KSEiMEExNDk7Pj4+JS5ESUM8SDc9Pjv/2wBDAQoLCw4NDhwQEBw7KCIoOzs7Ozs7Ozs7Ozs7Ozs7Ozs7Ozs7Ozs7Ozs7Ozs7Ozs7Ozs7Ozs7Ozs7Ozs7Ozs7Ozv/wgARCAJkAmQDAREAAhEBAxEB/8QAGwABAAIDAQEAAAAAAAAAAAAAAAUGAQMEAgf/xAAUAQEAAAAAAAAAAAAAAAAAAAAA/9oADAMBAAIQAxAAAAG5gAAAAAAAAAAAAAAAAAAAAAAAAAAAAAAAAAAAAAAAAAAAAAAAAAAAAAAAAAAAAAAAAAAAAAAAAAAAAAAAAAAAAAAAAAAAAAAAAAAAAAAAAAAAAAAAAAAAAAAAAAAAAAAAAAAAAAAAAAAAAAAAAAAAAAAAAAAAAAAAAAAAAAAAAAAAAAAAAAAAAAAAAAAAAAAAAAAAAAAAAAAAAAAAAAAAAAAAAAAAAAAAAAAAAAAAAAAAAAAAAAAAAAAAAAAAAAAAAAAAAAAAAAAAAAAAAAAAAAAAAAAAAAAAAAAAAAAAAAAAAAAAAAAAAAAAAAAAAAAAAAAAAAAAAAAAAAAAAAAAAAAAAAAAAAAAAAAAAAAAAAAAAAAAAAAAAAAAAAAAAAAAAAAAAAAAAAAAAAAAAAAAAAAAAAAAAAAAAAAAAAAAAAAAAAAAAAAAAAAAAAAAAAAAAAAAAAAAAAAAAAAAAAAAAAAAAAAAAAAAAAAAAAAAAAAAAAAAAAAAAAAAAAAAAAAAAAAAAAAAAAAAAAAAAAAAAAAAAAAAAAAAAAAAAAAAAAAAAAAAAAAAAAAAAAAAAAAAAAAAAAAAAAAAAAAAAAAAAAAAAAAAAAAAAAAAAAAAAAAAAAAAAAAAAAAAAAAAAAAAAAAAAAAAAAAAAAAAAAAAAAAAAAAAAAAAAAAAAAAAAAAAAAAAAAAAAAAAAAAAAAAAAAAAAAAAAAAAAAAAAAAAAAAAAAAAAAAAAAAAAAAAAAAAAAAAAAGopRYSZAAAAAAAAAAAAAAAAAAAAAAAAAAAAAAAAAAAAMFLIcFjLSZAAAAAAAAAAAAAAAAAAAAAAAAAAAAAAAAAAAK2VYA3H0I2gAAAAAAAAAAAAAAAAAAAAAAAAAAAAAAAAHGVsnzwUcwDJdyVAAAAAAAAAAAAAAAAAAAAAAAAAAAAAAAAANZQziPR7NQBZyzAAAAAAAAAAAAAAAAAAAAAAAAAAAAAAAAAGCmkKAACXLqZAAAAAAAAAAAAAAAAAAAAAAAAAAAAAAAAAK6VQAAAvpIAAAAAAAAAAAAAAAAAAAAAAAAAAAAAAAAAEaUY8gAAG0vp1gAAAAAAAAAAAAAAAAAAAAAAAAAAAAAAAHOUI5wAAAZL8dwAAAAAAAAAAAAAAAAAAAAAAAAAAAAAAAPJRyMAAAALSWQAAAAAAAAAAAAAAAAAAAAAAAAAAAAAAAAqpXAAAACZLmZAAAAAAAAAAAAAAAAAAAAAAAAAAAAAAABDFLAAAAOg+gG0AAAAAAAAAAAAAAAAAAAAAAAAAAAAAAAHGUI1gAAAAuxLgAAAAAAAAAAAAAAAAAAAAAAAAAAAAAAGsoZxAAAAAEwXUAAAAAAAAAAAAAAAAAAAAAAAAAAAAAAGCnEIAAAAADeXk7QAAAAAAAAAAAAAAAAAAAAAAAAAAAAACLKMAAAAAADcXk7gAAAAAAAAAAAAAAAAAAAAAAAAAAAAAcZGFUPAAANwNJk2mkHSX43AAAAAAAAAAAAAAAAAAAAAAAAAAAAA4ShncWQqhygAyXgkTkN5gopyAny3AAAAAAAAAAAAAAAAAAAAAAAAAAAAA4ijnOby2EGRABaSyAAHAUM8mT6EdQAAAAAAAAAAAAAAAAAAAAAAAAAAAANBTCMMlnMFZJcuhkAAFRIAFmLOAAAAAAAAAAAAAAAAAAAAAAAAAAAAAeSrlcBYiXO82gAAEeUIEiXwAAAAAAAAAAAAAAAAAAAAAAAAAAAAAAhioFvJkAAAAwfODUbD6QZAAAAAAAAAAAAAAAAAAAAAAAAAAAAAAMGQAAAAD5+cQPpR7AAAAAAAAAAAAAAAAAAAAAAAAAAAAAAAAAAAAPnxxg+lHsAAAAAAAAAAAAAAAAAAAAAAAAAAAAAAAAAAAHk+bng3H0YyAAAAAAAAAAAAAAAAAAAAAAAACBKuAAAAACfLOAAACKKOCVLwAAAAAAAAAAAAAAAAAAAAAAAAAVUrgAAAAAJkugAAAKUQ4LYWEAAAAAAAAAAAAAAAAAAAAAAAAAiCuAA0nEASRkAnCeAAAIcpQNh9DNwAAAAAAAAAAAAAAAAAAAAAAAAAAANJ8+NIJ0t5kAAAAjikGoFoLKAAAAAAAAAAAAAAAAAAAAAAAAAAAACGKYYBKFuOsAAGCAKqeASReT0AAAAAAAAAAAAAAAAAAAAAAAAAAAAAV0qgB6JglzsPRoI4gzkAO0vJvAAAAAAAAAAAAAAAAAAAAAAAAAAAAAAIQqJrAAAAAJcuBuAAAAAAAAAAAAAAAAAAAAAAAAAAAAAAAOYrJCHgAAA7SzEyZAAAAAAAAAAAAAAAAAAAAAAAAAAAAAAAABpK+VgAHeW47zIAAAAAAAAAAAAAAAAAAAAAAAAAAAAAAB5PAABGlJABMFwAAMmwAAAAAAAAAAAAAAAAAAAAAAAAAAAAGs+emgAAAAAAAAt5PAAAAAAAAAAAAAAAAAAAAAAAAAAAAHKfPAAAAAAAAAWMtQAAAAAAAAAAAAAAAAAAAAAAAAAAABoPnRgAAAAAAAAsxZwAAAAAAAAAAAAAAAAAAAAAAAAAAAARZzAAAAAAAAyS5tAAAAAAAAAAAAAAAAAAAAAAAAAAAAAAAAAAAAAAAAAAAAAAAAAAAAAAAAAAAAAAAAAAAAAAAAAAAAAAAAAAAAAAAAAAAAAAAAAAAAAAAAAAAAAAAAAAAAAAAAAAAAAAAAAAAAAAAAAAAAAAAAAAAAAAAAAAAAAAAAAAAAAAAAAAAAAAAAAAAAAAAAAAAAAAAAAAAAAAAAAAAAAAAAAAAAAAAAAAAAAAAAAAAAAAAAAAAAAAAAAAAAAAAAAAAAAAAAAAAAAAAAAAAAAAAAAAAAAAAAAAAAAAAAAAAAAAAAAAAAAAAAAAAAAAAAAAAAAAAAAAAAAAAAAAAAAAAAAAAAAAAAAAAAAAAAAAAAAAAAAAAAAAAAAAAAAAAAAAAAAAAAAAAAAAAAAAAAAAAAAAAAAAAAAAAAAAAAAAAAAAAAAAAAAAAAAAAAAAAAAAAAAAAAAAAAAAAAAAAAAAAAAAAAAAAAAAAAAAAAAAAAAAAAAAAAAAAAAAAAAAAAAAAAAAAAAAAAAAAAAAAAAAAAAAAAAAAAAAAAAAAAAAAAAAAAAAAAAAAAAAAAAAAAAAAAAAAAAAAAAAAAAAAAAAAAAAAAAAAAAAAAAAAAAAAAAAAAAAAAAAAAAAAAAAAAAAAAAAAAAAAAAAAAAAAAAAAAAAAAAAAAAAAAAAAAAAAAAAAAAAAAAAAAAAAAAAAAAAAAAAAAAAAAAAAAAAAAAAAAAAAAAAAAAAAAAAAAAAAAAAAAB//8QAKhAAAQMDAgYBBQEBAAAAAAAAAwECBAAFExVQEBESIDBgFCExMjRAoDP/2gAIAQEAAQUC/wA8pCNEwk87zRLg0/pc+Xnfwh3LlX39IuUzl2CE4xBsxi9DkyGxhasfqizByUnS/jDVea8PusGJ8cfob3tGyVIdJLSOVqkI8r+Nth+i3CZmf3QInyCeiXKZ0J3wyBeD0ObKSMJVVy94yOE+MbOD0ExWgEczjl8CIqrDCoI3oCqiJNlLJL4bbD6U9BuUzqXw2+Jnf6DcJeBnhAPKYbGiZ6BJkNjCI9xH+K3Sc4d/e9o2SpLpJfHbH9Mzf7hMzP8AIEqhLGlMks324Kb43mGRwXxZLZI98JLAF0qAw6Oa5ju4QnmIQTxOpEVVIIguMc7o5RkaUe9S5HxgOcr3RZhIyvHHuIjxyR39iJzWDE+MNzWuT4UZaYEY6MFhxyI7oxeFrk9BN6lR0khMB4H0IrwvDJDOHLgPj9lth8u6XGSSFUVq0i8ljFzg3ooWHZLhPjLSLyWJckdUu286+1W+Jnf33UHQXhaC74qIqTLb08bZJfllQRyaGNomd80WWJwgP6Jm+y7e09PE9j7fEwM8RG9BKYvST0qZ9JfBn4eky15y+Dfo30hV6WuXqdQm9Ztzucl4W5i1mLWYtZi1mLWYtZi1mLWYtZi1mLWYtWyUR5PBcS4onC3M65m53j/p5LX+54LjIzSOFpFyHuc+IslmnSq06VWnSq06VRYhwt4pb5Kpp0qtOlVp0qoEFwHd9wl4B8GMUjxDQQt4KNDCKNwScIE7DSLzTwy5bIzCEcV/C1xuW93CJnZxiznxqDJFITuVeSSrm1lOe57uEOKskqIjU3ufA6+xFVqiuhmUy6gdSToy18yNTrlGbRLvRpJj9kaM+S8QmBHvsy3tPTxuG7xxYDz0MbBM38wBnae1kZTmq1e8MQx6j20YvRHiYVJsAIgdkMDZBxQo4vQVVErIysjKyMrIysjKuD2rC7LYqJLyMrIysjKyMrIyuti72R3QMpXmf/Da5Dis3mT+t/FZ/wA95O1XA/is7V3s1vAZ2kgrSQVpIK0kFaSCtJBWkgrSQVpIK0kFaSCtJBWkgrSQVpIK0kFJaQUwbRM/zpf/xAAUEQEAAAAAAAAAAAAAAAAAAADA/9oACAEDAQE/ATlP/8QAFBEBAAAAAAAAAAAAAAAAAAAAwP/aAAgBAgEBPwE5T//EADYQAAECAQgJAQcFAQAAAAAAAAEAAhEDEiExMjNRkRATICIwQVBgoXFAQlJhcoGxBCNikqCC/9oACAEBAAY/Av8APKXuMAFPa8tHIKY/dlPz2XMZdt86RJy9Xxdk6iTNPvHYDGVlNZXNEOxJ7vsMVZZDBUUO+FUW3VKJ0wCi68dX2IXuMAFONXIaItMCFPeYnY18oPpHYurYdxvnbnOu2+exdRJmk2uABI0Q5diUWzUomkngT2GBTZTGvsIvdUEXu4MBWmsNdZ7BialRYbVwtfKCn3R2FqJM0e8eFPeNxvnsKYw77vHCawumx5oMaIAdgzzXyCL3GJPDmuts7AL3GACnGrkOIB8Q7A1bDuN88USjawotr5jrx1Q+r044ewwIURQ4Vjrs18oAVrZCE45FTXCBG2GMESVNe0tOiAQ1jC2OOkPb9xig9tR62X86gi5xiSsWc2qc072PMKa8ehx2YBU23VqDgCPmrlq3GNb6BTHhTHfY46dS6p1Xr1uZGBrBU14honsMCtXKATsFObvSf42NfKCn3RtTfeFkqBrGiITZTGvrcx4iFG0zHRELV/qP7LWfp/6qlT33bfPAEqKnV+ul8l9x1yBpCMpIVfDp1BMWwo+SnWXYhBjRADgPHMUjSz50dens3X/lTHNIdgp77x3jhubgdDXYHsuV+rSPTsqV+rSOySTyRdidDG4nqjWSZgXc1ePzV4/NXj81ePzV4/NXj81ePzV4/NXj81ePzV4/NXj80ZJ5nUREeC7F1Glv8aeqSfpxf+TwZosso0ulT71A6oCy01XflXflXflXflTpRkBsREnR6hXflXflXflGUlLVQHAmNO+7xpDG1lNYKgOsuk3VFFjqxp1cpY5HBRHCxeagi95iTp17h9PW57LbfOxC0zBRY77bcSpsjvOx5Kc4xJ0/wFZUBUOuGWkhvcxjsRBgVB8Hj5reDmq9Cvm5q3H0C/ak/u5b76MNiDauZQYwUDr0+T3X/lTXtgeJOdus/KmMEB2BCUbFRkjPGHNQcCD8+BusoxKnP33eOxIPYHeqdKsiCOUdmY4kCHJUScTiaewaTBW25q23NW25q23NW25p8HDlz2aTDdVtuattzVtuattzVtuatDPrbn/CIoveYn2J0m8xm1HrUr9J9jlPQdae0Vlp9jlHcqutziC0/JWnq09Wnq09Wnq09Wnq09Wnq09Wnq09Wnq09Wnq09VvzUxggB/nT//EACsQAQABAgMGBgMBAQAAAAAAAAERACExQfEQMFFgYdEgUHGBkfChscFAoP/aAAgBAQABPyH/AJ5YDTlphN1lsFRcP4PRyVgS1fy58uOzClmZwHD60IBGR5Iit4wsungK6fwVeuwlx5EWXHDiKxHtDULs8VQQucLw60jJK3V2ggErgUUd+h05EiBOVpTaNuEbC7MAlOlvn4IovM798i51LHi8awdy/VwoAILByJI2FcZHDcW5hu8TkTBRsn+05dRKu4GJPMoYyEWcHkJZ+hxeFJndwOBw3IIJVgK7qM5BRJAurUYcYXj13UReMbLryFMWjAzeG6zeXy4VhyDk8vhxrHciWBxKoTTgOQWN3BxmpXTld2krNheJk8gQAnK0xtG3CN42QoP75AzrV3j3oeCuDUmoOLiefACecRif4HRX6/D896RxxipWi5BS4Xjh3AmXqZjZAhVyKwUCSG3Iq9hTLyc+dlAS7PWkgKlWoWXsT+VYYGA+BrDSyMPCQglbAUEpnG8OldBFCaUS/DsvBVKHBzKaXDHgNtzP1vOzpwHoGrm7Jydh5Yfmo9yxefUphn4mfq8EUvGNl18STBc4DTk4SE2ISQjI0ObD5Z+dtf2wqGbuBy9diAiJglEDF7DwfWiCXV7aRSCExGrOXPlwrCx44R5O0xF+1/554iATEaWBnE5z0rDZFKdMqLe7LH1qA04Nxamx7xtl+Sn7+fTcP4fVSfpwqzlj4cN0kkOddZ82dOB8/gmY3ghdW1SvEclSTr2mHwDkk8BCWnexR2dIM/PmijJqjGK17Wva17Wva17Wva17Wva17Wva17WvaUOLjEbmEDk/7tnmQX5p+S3uFuS8M2XVz2x8uvYPNFUDCHMr7zX1mvrNfWaxnGJkfAHIokSr6zX1mvrNRZiIDMbgMNdujjtKyVgrIjXnOHAxRnwvztlD3/T0oAQRwTdXVFDkoK7tjOOt3ed2ctfDhSQw7Xp+vy9KiKXNYnjBEAM2hmP4LvTN+OXbfUmjUZOAgDzz2pP8isNp1wYI1Fh7I/NY5PpJWFn62pKthT6UrL90/lK3ngWPBG6D6ZUaT8nn0pFm8Kt2Hk7x8l4+foo0M+QIdOBzKnOuVqJyrIRuHrx6IqP93LPbkSKK6KKmMzDHw33gaXUuQRDyXqa05WnK05WnK05R6tyHUeGdEJXWtOVpytOVpytOUMgd6edhYJEorNPx/iSgoycPOvquHJrLioB8Vgw/4pUeSXXztew4ria187Vr52rXztWvnatfO1a+dq187Vr52rXztWvnatfO1a+dq187Vr52rXztWvnagsrdIdqKBwwf86f/2gAMAwEAAgADAAAAEAAAAAAAAAAAAAAAAAAAAAAAAAAAAAAAAAAAAAAAAAAAAAAAAAAAAAAAAAAAAAAAAAAAAAAAAAAAAAAAAAAAAAAAAAAAAAAAAAAAAAAAAAAAAAAAAAAAAAAAAAAAAAAAAAAAAAAAAAAAAAAAAAAAAAAAAAAAAAAAAAAAAAAAAAAAAAAAAAAAAAAAAAAAAAAAAAAAAAAAAAAAAAAAAAAAAAAAAAAAAAAAAAAAAAAAAAAAAAAAAAAAAAAAAAAAAAAAAAAAAAAAAAAAAAAAAAAAAAAAAAAAAAAAAAAAAAAAAAAAAAAAAAAAAAAAAAAAAAAAAAAAAAAAAAAAAAAAAAAAAAAAAAAAAAAAAAAAAAAAAAAAAAAAAAAAAAAAAAAAAAAAAAAAAAAAAAAAAAAAAAAAAAAAAAAAAAAAAAAAAAAAAAAAAAAAAAAAAAAAAAAAAAAAAAAAAAAAAAAAAAAAAAAAAAAAAAAAAAAAAAAAAAAAAAAAAAAAAAAAAAAAAAAAAAAAAAAAAAAAAAAAAAAAAAAAAAAAAAAAAAAAAAAAAAAAAAAAAAAAAAAAAAAAAAAAAAAAAAAAAAAAAAAAAAAAAAAAAAAAAAAAAAAAAAAAAAAAAAAAAAAAAAAAAAAAAAAAAAAAAAAAAAAAAAAAAAAAAAAAAAAAAAAAAAAAAAAAAAAAAAAAAAAAAAAAAAAAAAAAAAAAAAAAAAAAAAAAAAAAAAAAAAAAAAAAAAAAAAAAAAAAAAAAAAAAAAABFAAAAAAAAAAAAAAAAAAAAAAAAAAAAAAAAAAAABJtAAAAAAAAAAAAAAAAAAAAAAAAAAAAAAAAAAAABtsAAAAAAAAAAAAAAAAAAAAAAAAAAAAAAAAABBBtkAAAAAAAAAAAAAAAAAAAAAAAAAAAAAAAAAAFtttAAAAAAAAAAAAAAAAAAAAAAAAAAAAAAAAABJttsoAAAAAAAAAAAAAAAAAAAAAAAAAAAAAAAAAJtttgAAAAAAAAAAAAAAAAAAAAAAAAAAAAAAAAAAtttsoAAAAAAAAAAAAAAAAAAAAAAAAAAAAAAAAJttttsAAAAAAAAAAAAAAAAAAAAAAAAAAAAAAAAJtttttAAAAAAAAAAAAAAAAAAAAAAAAAAAAAAAAANtttsoAAAAAAAAAAAAAAAAAAAAAAAAAAAAAAAANtttsoAAAAAAAAAAAAAAAAAAAAAAAAAAAAAAAANttttsAAAAAAAAAAAAAAAAAAAAAAAAAAAAAAABNtttttkAAAAAAAAAAAAAAAAAAAAAAAAAAAAAABBttttttgAAAAAAAAAAAAAAAAAAAAAAAAAAAAAABttttttsgAAAAAAAAAAAAAAAAAAAAAAAAAAAAAAAtttstttoAAAAAAAAAAAAAAAAAAAAAAAAAAAAAFpttsIIFsAAAAAAAAAAAAAAAAAAAAAAAAAAAAABsottAABFsAAAAAAAAAAAAAAAAAAAAAAAAAAAAABtgFoAABNoAAAAAAAAAAAAAAAAAAAAAAAAAAAAAJNgIAAAJtgAAAAAAAAAAAAAAAAAAAAAAAAAAAAAANAAAAAFlAAAAAAAAAAAAAAAAAAAAAAAAAAAAAAAAAAAAAtgAAAAAAAAAAAAAAAAAAAAAAAAAAAAAAAAAAAAFtAAAAAAAAAAAAAAAAAAAAAAAAAAAAAAAAAAAAAsoAAAAAAAAAAAAAAAAAAAAAAAABMkkkkkoAAABNkAAAAAAAAAAAAAAAAAAAAAAAAABtttttsAAAAFsAAAAAAAAAAAAAAAAAAAAAAAAABNJFtlJgAAAJtoAAAAAAAAAAAAAAAAAAAAAAAAAAAANsAAAAAItgAAAAAAAAAAAAAAAAAAAAAAAAAAAABFtoAAABtlAAAAAAAAAAAAAAAAAAAAAAAAAAAAABNsoJINttAAAAAAAAAAAAAAAAAAAAAAAAAAAAAABNtttttlAAAAAAAAAAAAAAAAAAAAAAAAAAAAAAABAtttthAAAAAAAAAAAAAAAAAAAAAAAAAAAAAAAAAINttIAAAAAAAAAAAAAAAAAAAAAAAAAAAAAAAAAABtsgAAAAAAAAAAAAAAAAAAAAAAAAAAAAAAAAttttttttsAAAAAAAAAAAAAAAAAAAAAAAAAAAABNttttttttoAAAAAAAAAAAAAAAAAAAAAAAAAAAAAttttttttsAAAAAAAAAAAAAAAAAAAAAAAAAAAAAAAAAAAAAAIAAAAAAAAAAAAAAAAAAAAAAAAAAAAAAAAAAAAAAAAAAAAAAAAAAAAAAAAAAAAAAAAAAAAAAAAAAAAAAAAAAAAAAAAAAAAAAAAAAAAAAAAAAAAAAAAAAAAAAAAAAAAAAAAAAAAAAAAAAAAAAAAAAAAAAAAAAAAAAAAAAAAAAAAAAAAAAAAAAAAAAAAAAAAAAAAAAAAAAAAAAAAAAAAAAAAAAAAAAAAAAAAAAAAAAAAAAAAAAAAAAAAAAAAAAAAAAAAAAAAAAAAAAAAAAAAAAAAAAAAAAAAAAAAAAAAAAAAAAAAAAAAAAAAAAAAAAAAAAAAAAAAAAAAAAAAAAAAAAAAAAAAAAAAAAAAAAAAAAAAAAAAAAAAAAAAAAAAAAAAAAAAAAAAAAAAAAAAAAAAAAAAAAAAAAAAAAAAAAAAAAAAAAAAAAAAAAAAAAAAAAAAAAAAAAAAAAAAAAAAAAAAAAAAAAAAAAAAAAAAAAAAAAAAAAAAAAAAAAAAAAAAAAAAAAAAAAAAAAAAAAAAAAAAAAAAAAAAAAAAAAAAAAAAAAAAAAAAAAAAAAAAAAAAAAAAAAAAAAAAAAAAAAAAAAAAAAAAAAAAAAAAAAAAAAAAAAAAAAAAAAAAAAAAAAAAAAAAAAAAAAAAAAAAAAAAAAAAAAAAAAAAAAAAAAAAAAAAAAAAAAAAAAAAAAAAAAAAAAAAAAAAAAAAAAAAAAAAAAAAAAAAAAAAAAAAAAAAAAAAAAAAB//xAAUEQEAAAAAAAAAAAAAAAAAAADA/9oACAEDAQE/EDlP/8QAFBEBAAAAAAAAAAAAAAAAAAAAwP/aAAgBAgEBPxA5T//EACwQAQABAQYDCQEAAwAAAAAAAAERACExQVFh8HGBwRAgMFBgkaGx0UCg4fH/2gAIAQEAAT8Q/wAeUq0gdDWjxDk4CXOs0VhEEx0zp6KURAAlXCnntyTcMuwVCKJaJhUmN8rXRmNaMsCRGRPRFwwWi5l1ce5IlcaDFdCjAYlN8CJ9CWyGw2HI4Zta2eA4zUkY0tt4jiVBcJMji+H3SRXqEquPa+BUASrUKCAvLgeuvoQXCCsqnfvj3Lj2MdaVwjQswBVlhph3ItuLhcZ+nvl6EWCW6kfFQNh48DD378yOK+06/wC6BAAgC4PQmcBNffZx0498iSZjGKVMGL94rnLjj6ESKDcnmtCkMgUlVvfAb2NiX6OZRLEYGBY+gowwWC/CGrUo5YC7CHgufaASq3FMmNoC4TMcrvQJvyqEAF7U6Ck+UtX68K4I7Bc63D0FeAds5HQx18JZBfB3DOgAAAFgHoEYJdE3nKlUqqtqvgh0iliD9y1oa0APt19Aw2Jebfyzpc0gPrh4QoyWJS6wh1/3FkPD0AYhBWBUjl/e5cfEJDY9wIfXn6wS1MYADYOPAw9/FfYJBsRIT2as6rbrXqa+fNGMxOsg1x08d6zLEuTJMShccAmteZo4eelFK+KuKBjnTcuW04pk/FI8iBwj38MCC4DFXAp8IYGx4Nzy7AC2gCV5U8ErpJN4dqLzcksxBqzrgzMx1LvOxTKyLljfoQtOUFeytEVWSizjkaAEBAoXIxNlN4KzRaPTupXeASq3FQWCHIYDh90reLwD2atrWkD2KvBMwF51hXMXuY4NFPgMszP07US28zeRz+487ghRCmDPS1pq/ALRzHHsvWaRcMkxKZla12LN2lWqCunJ/XcuGWQXOtw7zPCUz2ODc0h1hV4l52PcGBeJc0KIsIMDYPfzswbXOLmODS+R1it0DB1u7EwtKIRqQEEByP370Yi0hNjr+fbKnqOgEI0s9vQ7hnQAAALAMO+EH3bgMeZ9Pa+FWF8eeBlxgEiZJUkOutTMaX0ikREvHsbeAQLCbHLShMoUwDkMeNFWgDq6+AAUvkh8knPtaahepCD5jz4ol/WI6Z1oEAYlaeGfKhz6h3HPwgYJBCV/xw1OxwmE3kjQyCY+fLBBS5i7xBEun92e2TsR8eijFuh9mOnYEoGNaIr49EtBDEyAmr0hPFZ7FDJ+XBVxHmZcUuMEWDhM36Usy7rWtlda2V1rZXWtlda2V1rZXWtlda2V1rZXWtlda2V1pq/a0oRJOJD8eCEKWfo/ifftdYnlgQfKeabHmeLtGngklvSF2K6cu1I0ljzPn680minJga8nBspk2fmt39a3f1rd/WhaWENseD3CVKQhG5vrd/Wt39a3f1pqWNhFiVTGzwENohBtxPx/qr2XsjeOWrQL2IuebzbfORhmWcRwTUbasTiOQwTRO1GdS0tU7cKDC0okTM8JFISxbXVyKQbJJ9Gna0KJTTDHoOfndh27BuOVIgIjCOHaUnRtS3WsOF1FRgwXHOt3fDC0qQBWCKl/Dm+ONMqiVyvaUCmOdo1aASQJABceeLqMb/o0x43opERLx7VR5KwnMo8JY/RdRoIMXT84t+KHnm37FAy8mX1QbImLfKBRQonDon7Si30lk8jr3BrHipY9XSomWvxWKuK+fMTbaLuNk6+9X3rR+TM18Q9r3MsNHX7q5ciGLmuL6AgNTR4LhS+IVgHR3ZV7iBiOT4AZY6Lzx5TTbQrSwTTFz9qACAgPQeVYAWODhTLlgJMgxtxz7pKYawliLLeNLA5qvmw5FABAQHoA0Gbkj7raXWtpda2l1raXWtpdaSM7AFe7B4kYQYZ1tLrW0utbS61tLrW0utGXy4BXzuVwIZwTTwBkFsGQYH8IoyMNT2HIlXNi6R8+db3m/j2TN86B6DWaoKRQERhHD+IKUMLMJX7PfztykyUHmiJP8IQIECBAgQIECBAgQIECBQ42qB9qFLLYxf8AHT//2Q==;" parent="1" vertex="1">
          <mxGeometry x="809" y="740" width="51" height="51" as="geometry" />
        </mxCell>
        <mxCell id="mzBB7SvwG0IbSalPoIVl-101" value="&lt;font style=&quot;font-size: 16px&quot; face=&quot;Georgia&quot;&gt;&lt;b&gt;Image&lt;/b&gt;&lt;/font&gt;" style="text;html=1;align=center;verticalAlign=middle;resizable=0;points=[];autosize=1;" parent="1" vertex="1">
          <mxGeometry x="850" y="755.5" width="70" height="20" as="geometry" />
        </mxCell>
      </root>
    </mxGraphModel>
  </diagram>
</mxfile>
